VotoSerifGX-CondensedLightText.ufo
<glyph name="hyphen" format="2">
  <advance width="187"/>
  <unicode hex="002D"/>
  <outline>
    <contour>
      <point x="17" y="259" type="line"/>
      <point x="170" y="259" type="line"/>
      <point x="170" y="287" type="line"/>
      <point x="17" y="287" type="line"/>
    </contour>
  </outline>
</glyph>
<glyph name="zero" format="2">
  <advance width="336"/>
  <unicode hex="0030"/>
  <outline>
    <contour>
      <point x="167" y="-10" type="curve" smooth="yes"/>
      <point x="247" y="-10"/>
      <point x="302" y="100"/>
      <point x="302" y="358" type="curve" smooth="yes"/>
      <point x="302" y="595"/>
      <point x="258" y="724"/>
      <point x="168" y="724" type="curve" smooth="yes"/>
      <point x="69" y="724"/>
      <point x="32" y="581"/>
      <point x="32" y="359" type="curve" smooth="yes"/>
      <point x="32" y="121"/>
      <point x="79" y="-10"/>
    </contour>
    <contour>
      <point x="167" y="15" type="curve" smooth="yes"/>
      <point x="90" y="15"/>
      <point x="60" y="154"/>
      <point x="60" y="358" type="curve" smooth="yes"/>
      <point x="60" y="573"/>
      <point x="97" y="699"/>
      <point x="168" y="699" type="curve" smooth="yes"/>
      <point x="240" y="699"/>
      <point x="274" y="568"/>
      <point x="274" y="358" type="curve" smooth="yes"/>
      <point x="274" y="149"/>
      <point x="244" y="15"/>
    </contour>
  </outline>
</glyph>
<glyph name="five" format="2">
  <advance width="336"/>
  <unicode hex="0035"/>
  <outline>
    <contour>
      <point x="160" y="-10" type="curve" smooth="yes"/>
      <point x="225" y="-10"/>
      <point x="290" y="47"/>
      <point x="290" y="215" type="curve" smooth="yes"/>
      <point x="290" y="351"/>
      <point x="238" y="423"/>
      <point x="150" y="423" type="curve" smooth="yes"/>
      <point x="123" y="423"/>
      <point x="99" y="411"/>
      <point x="83" y="399" type="curve"/>
      <point x="99" y="686" type="line"/>
      <point x="200" y="686" type="line" smooth="yes"/>
      <point x="237" y="686"/>
      <point x="243" y="677"/>
      <point x="245" y="626" type="curve" smooth="yes"/>
      <point x="246" y="603" type="line"/>
      <point x="266" y="603" type="line"/>
      <point x="263" y="714" type="line"/>
      <point x="76" y="714" type="line"/>
      <point x="56" y="361" type="line"/>
      <point x="68" y="357" type="line"/>
      <point x="81" y="377"/>
      <point x="108" y="398"/>
      <point x="153" y="398" type="curve" smooth="yes"/>
      <point x="228" y="398"/>
      <point x="262" y="334"/>
      <point x="262" y="216" type="curve" smooth="yes"/>
      <point x="262" y="65"/>
      <point x="213" y="15"/>
      <point x="160" y="15" type="curve" smooth="yes"/>
      <point x="63" y="15"/>
      <point x="57" y="82"/>
      <point x="57" y="126" type="curve"/>
      <point x="39" y="126"/>
      <point x="34" y="112"/>
      <point x="34" y="85" type="curve" smooth="yes"/>
      <point x="34" y="69"/>
      <point x="54" y="-10"/>
    </contour>
  </outline>
</glyph>
<glyph name="F" format="2">
  <advance width="340"/>
  <unicode hex="0046"/>
  <anchor x="96" y="0" name="bottom"/>
  <anchor x="170" y="714" name="top"/>
  <anchor x="320" y="714" name="topright"/>
  <outline>
    <contour>
      <point x="27" y="0" type="line"/>
      <point x="181" y="0" type="line"/>
      <point x="181" y="20" type="line"/>
      <point x="166" y="20" type="line" smooth="yes"/>
      <point x="116" y="20"/>
      <point x="110" y="31"/>
      <point x="110" y="108" type="curve" smooth="yes"/>
      <point x="110" y="338" type="line"/>
      <point x="265" y="338" type="line"/>
      <point x="265" y="363" type="line"/>
      <point x="110" y="363" type="line"/>
      <point x="110" y="689" type="line"/>
      <point x="227" y="689" type="line" smooth="yes"/>
      <point x="279" y="689"/>
      <point x="285" y="675"/>
      <point x="287" y="620" type="curve" smooth="yes"/>
      <point x="290" y="551" type="line"/>
      <point x="310" y="551" type="line"/>
      <point x="305" y="714" type="line"/>
      <point x="27" y="714" type="line"/>
      <point x="27" y="694" type="line"/>
      <point x="26" y="694" type="line" smooth="yes"/>
      <point x="76" y="694"/>
      <point x="82" y="683"/>
      <point x="82" y="606" type="curve" smooth="yes"/>
      <point x="82" y="108" type="line" smooth="yes"/>
      <point x="82" y="31"/>
      <point x="76" y="20"/>
      <point x="26" y="20" type="curve" smooth="yes"/>
      <point x="27" y="20" type="line"/>
    </contour>
  </outline>
</glyph>
<glyph name="N" format="2">
  <advance width="444"/>
  <unicode hex="004E"/>
  <anchor x="223" y="0" name="bottom"/>
  <anchor x="223" y="714" name="top"/>
  <anchor x="424" y="714" name="topright"/>
  <outline>
    <contour>
      <point x="27" y="0" type="line"/>
      <point x="184" y="0" type="line"/>
      <point x="184" y="20" type="line"/>
      <point x="165" y="20" type="line" smooth="yes"/>
      <point x="115" y="20"/>
      <point x="109" y="31"/>
      <point x="109" y="108" type="curve" smooth="yes"/>
      <point x="109" y="630" type="line"/>
      <point x="342" y="0" type="line"/>
      <point x="367" y="0" type="line"/>
      <point x="367" y="606" type="line" smooth="yes"/>
      <point x="367" y="683"/>
      <point x="373" y="694"/>
      <point x="423" y="694" type="curve" smooth="yes"/>
      <point x="426" y="694" type="line"/>
      <point x="426" y="714" type="line"/>
      <point x="267" y="714" type="line"/>
      <point x="267" y="694" type="line"/>
      <point x="286" y="694" type="line" smooth="yes"/>
      <point x="336" y="694"/>
      <point x="342" y="683"/>
      <point x="342" y="606" type="curve" smooth="yes"/>
      <point x="342" y="75" type="line"/>
      <point x="105" y="714" type="line"/>
      <point x="27" y="714" type="line"/>
      <point x="27" y="694" type="line"/>
      <point x="28" y="694" type="line" smooth="yes"/>
      <point x="78" y="694"/>
      <point x="84" y="683"/>
      <point x="84" y="606" type="curve" smooth="yes"/>
      <point x="84" y="108" type="line" smooth="yes"/>
      <point x="84" y="31"/>
      <point x="78" y="20"/>
      <point x="28" y="20" type="curve" smooth="yes"/>
      <point x="27" y="20" type="line"/>
    </contour>
  </outline>
</glyph>
<glyph name="S" format="2">
  <advance width="310"/>
  <unicode hex="0053"/>
  <anchor x="148" y="0" name="bottom"/>
  <anchor x="142" y="714" name="top"/>
  <anchor x="290" y="714" name="topright"/>
  <outline>
    <contour>
      <point x="141" y="-10" type="curve" smooth="yes"/>
      <point x="229" y="-10"/>
      <point x="275" y="45"/>
      <point x="275" y="174" type="curve" smooth="yes"/>
      <point x="275" y="283"/>
      <point x="228" y="327"/>
      <point x="167" y="371" type="curve" smooth="yes"/>
      <point x="95" y="420"/>
      <point x="66" y="459"/>
      <point x="66" y="559" type="curve" smooth="yes"/>
      <point x="66" y="639"/>
      <point x="94" y="699"/>
      <point x="156" y="699" type="curve" smooth="yes"/>
      <point x="211" y="699"/>
      <point x="238" y="639"/>
      <point x="238" y="572" type="curve"/>
      <point x="247" y="572"/>
      <point x="259" y="581"/>
      <point x="259" y="614" type="curve" smooth="yes"/>
      <point x="259" y="657"/>
      <point x="229" y="724"/>
      <point x="155" y="724" type="curve" smooth="yes"/>
      <point x="77" y="724"/>
      <point x="38" y="655"/>
      <point x="38" y="569" type="curve" smooth="yes"/>
      <point x="38" y="440"/>
      <point x="102" y="385"/>
      <point x="146" y="350" type="curve" smooth="yes"/>
      <point x="218" y="298"/>
      <point x="247" y="274"/>
      <point x="247" y="160" type="curve" smooth="yes"/>
      <point x="247" y="56"/>
      <point x="206" y="15"/>
      <point x="143" y="15" type="curve" smooth="yes"/>
      <point x="72" y="15"/>
      <point x="54" y="103"/>
      <point x="48" y="169" type="curve"/>
      <point x="30" y="169"/>
      <point x="30" y="133"/>
      <point x="30" y="123" type="curve" smooth="yes"/>
      <point x="30" y="67"/>
      <point x="59" y="-10"/>
    </contour>
  </outline>
</glyph>
<glyph name="h" format="2">
  <advance width="365"/>
  <unicode hex="0068"/>
  <anchor x="183" y="0" name="bottom"/>
  <anchor x="183" y="268" name="center"/>
  <anchor x="183" y="760" name="top"/>
  <anchor x="305" y="760" name="topright"/>
  <outline>
    <contour>
      <point x="9" y="0" type="line"/>
      <point x="150" y="0" type="line"/>
      <point x="150" y="20" type="line"/>
      <point x="155" y="20" type="line" smooth="yes"/>
      <point x="103" y="20"/>
      <point x="96" y="27"/>
      <point x="96" y="97" type="curve" smooth="yes"/>
      <point x="96" y="332" type="line" smooth="yes"/>
      <point x="96" y="458"/>
      <point x="120" y="517"/>
      <point x="179" y="517" type="curve" smooth="yes"/>
      <point x="247" y="517"/>
      <point x="265" y="458"/>
      <point x="265" y="367" type="curve" smooth="yes"/>
      <point x="265" y="0" type="line"/>
      <point x="346" y="0" type="line"/>
      <point x="346" y="20" type="line"/>
      <point x="344" y="20" type="line" smooth="yes"/>
      <point x="299" y="20"/>
      <point x="293" y="32"/>
      <point x="293" y="94" type="curve" smooth="yes"/>
      <point x="293" y="365" type="line" smooth="yes"/>
      <point x="293" y="477"/>
      <point x="251" y="542"/>
      <point x="189" y="542" type="curve" smooth="yes"/>
      <point x="146" y="542"/>
      <point x="113" y="505"/>
      <point x="95" y="462" type="curve"/>
      <point x="93" y="462" type="line"/>
      <point x="95" y="484"/>
      <point x="96" y="495"/>
      <point x="96" y="504" type="curve" smooth="yes"/>
      <point x="96" y="760" type="line"/>
      <point x="8" y="760" type="line"/>
      <point x="8" y="740" type="line"/>
      <point x="18" y="740" type="line" smooth="yes"/>
      <point x="61" y="740"/>
      <point x="68" y="728"/>
      <point x="68" y="665" type="curve" smooth="yes"/>
      <point x="68" y="97" type="line" smooth="yes"/>
      <point x="68" y="27"/>
      <point x="61" y="20"/>
      <point x="8" y="20" type="curve" smooth="yes"/>
      <point x="9" y="20" type="line"/>
    </contour>
  </outline>
</glyph>
<glyph name="j" format="2">
  <advance width="162"/>
  <unicode hex="006A"/>
  <anchor x="65" y="-240" name="bottom"/>
  <anchor x="84" y="738" name="top"/>
  <anchor x="137" y="738" name="topright"/>
  <outline>
    <contour>
      <point x="3" y="-240" type="line"/>
      <point x="7" y="-240" type="line" smooth="yes"/>
      <point x="55" y="-240"/>
      <point x="102" y="-210"/>
      <point x="102" y="-25" type="curve" smooth="yes"/>
      <point x="102" y="536" type="line"/>
      <point x="19" y="536" type="line"/>
      <point x="19" y="516" type="line"/>
      <point x="26" y="516" type="line" smooth="yes"/>
      <point x="69" y="516"/>
      <point x="74" y="502"/>
      <point x="74" y="441" type="curve" smooth="yes"/>
      <point x="74" y="-28" type="line" smooth="yes"/>
      <point x="74" y="-175"/>
      <point x="47" y="-215"/>
      <point x="4" y="-215" type="curve" smooth="yes"/>
      <point x="3" y="-215" type="line"/>
    </contour>
    <contour>
      <point x="83" y="658" type="curve" smooth="yes"/>
      <point x="95" y="658"/>
      <point x="106" y="666"/>
      <point x="106" y="698" type="curve" smooth="yes"/>
      <point x="106" y="729"/>
      <point x="95" y="738"/>
      <point x="83" y="738" type="curve" smooth="yes"/>
      <point x="73" y="738"/>
      <point x="60" y="729"/>
      <point x="60" y="698" type="curve" smooth="yes"/>
      <point x="60" y="666"/>
      <point x="73" y="658"/>
    </contour>
  </outline>
</glyph>
<glyph name="l" format="2">
  <advance width="168"/>
  <unicode hex="006C"/>
  <anchor x="85" y="0" name="bottom"/>
  <anchor x="85" y="268" name="center"/>
  <anchor x="85" y="760" name="top"/>
  <anchor x="164" y="760" name="topright"/>
  <outline>
    <contour>
      <point x="7" y="0" type="line"/>
      <point x="161" y="0" type="line"/>
      <point x="161" y="20" type="line"/>
      <point x="174" y="20" type="line" smooth="yes"/>
      <point x="101" y="20"/>
      <point x="97" y="24"/>
      <point x="97" y="94" type="curve" smooth="yes"/>
      <point x="97" y="760" type="line"/>
      <point x="7" y="760" type="line"/>
      <point x="7" y="740" type="line"/>
      <point x="2" y="740" type="line" smooth="yes"/>
      <point x="62" y="740"/>
      <point x="69" y="736"/>
      <point x="69" y="662" type="curve" smooth="yes"/>
      <point x="69" y="94" type="line" smooth="yes"/>
      <point x="69" y="24"/>
      <point x="65" y="20"/>
      <point x="-8" y="20" type="curve" smooth="yes"/>
      <point x="7" y="20" type="line"/>
    </contour>
  </outline>
</glyph>
<glyph name="n" format="2">
  <advance width="377"/>
  <unicode hex="006E"/>
  <anchor x="189" y="0" name="bottom"/>
  <anchor x="189" y="536" name="top"/>
  <anchor x="384" y="536" name="topright"/>
  <outline>
    <contour>
      <point x="21" y="0" type="line"/>
      <point x="166" y="0" type="line"/>
      <point x="166" y="20" type="line"/>
      <point x="166" y="20" type="line" smooth="yes"/>
      <point x="115" y="20"/>
      <point x="108" y="27"/>
      <point x="108" y="97" type="curve" smooth="yes"/>
      <point x="108" y="332" type="line" smooth="yes"/>
      <point x="108" y="496"/>
      <point x="175" y="517"/>
      <point x="201" y="517" type="curve" smooth="yes"/>
      <point x="254" y="517"/>
      <point x="275" y="459"/>
      <point x="275" y="363" type="curve" smooth="yes"/>
      <point x="275" y="0" type="line"/>
      <point x="355" y="0" type="line"/>
      <point x="355" y="20" type="line"/>
      <point x="358" y="20" type="line" smooth="yes"/>
      <point x="310" y="20"/>
      <point x="303" y="27"/>
      <point x="303" y="97" type="curve" smooth="yes"/>
      <point x="303" y="367" type="line" smooth="yes"/>
      <point x="303" y="489"/>
      <point x="273" y="542"/>
      <point x="198" y="542" type="curve" smooth="yes"/>
      <point x="142" y="542"/>
      <point x="122" y="500"/>
      <point x="107" y="466" type="curve"/>
      <point x="107" y="466" type="line"/>
      <point x="104" y="536" type="line"/>
      <point x="23" y="536" type="line"/>
      <point x="23" y="516" type="line"/>
      <point x="13" y="516" type="line" smooth="yes"/>
      <point x="74" y="516"/>
      <point x="80" y="511"/>
      <point x="80" y="440" type="curve" smooth="yes"/>
      <point x="80" y="97" type="line" smooth="yes"/>
      <point x="80" y="27"/>
      <point x="72" y="20"/>
      <point x="19" y="20" type="curve" smooth="yes"/>
      <point x="21" y="20" type="line"/>
    </contour>
  </outline>
</glyph>
<glyph name="cent" format="2">
  <advance width="332"/>
  <unicode hex="00A2"/>
  <outline>
    <contour>
      <point x="170" y="0" type="line"/>
      <point x="194" y="0" type="line"/>
      <point x="194" y="92" type="line"/>
      <point x="253" y="91"/>
      <point x="288" y="143"/>
      <point x="288" y="183" type="curve" smooth="yes"/>
      <point x="288" y="200"/>
      <point x="284" y="206"/>
      <point x="280" y="209" type="curve"/>
      <point x="269" y="171"/>
      <point x="240" y="115"/>
      <point x="194" y="117" type="curve"/>
      <point x="194" y="620" type="line"/>
      <point x="246" y="620"/>
      <point x="260" y="593"/>
      <point x="260" y="508" type="curve"/>
      <point x="270" y="507"/>
      <point x="285" y="514"/>
      <point x="285" y="542" type="curve" smooth="yes"/>
      <point x="285" y="600"/>
      <point x="258" y="643"/>
      <point x="194" y="644" type="curve"/>
      <point x="194" y="714" type="line"/>
      <point x="170" y="714" type="line"/>
      <point x="170" y="643" type="line"/>
      <point x="105" y="633"/>
      <point x="70" y="565"/>
      <point x="70" y="365" type="curve" smooth="yes"/>
      <point x="70" y="166"/>
      <point x="109" y="108"/>
      <point x="170" y="95" type="curve"/>
    </contour>
    <contour>
      <point x="170" y="120" type="line"/>
      <point x="114" y="136"/>
      <point x="98" y="201"/>
      <point x="98" y="366" type="curve" smooth="yes"/>
      <point x="98" y="547"/>
      <point x="124" y="605"/>
      <point x="170" y="618" type="curve"/>
    </contour>
  </outline>
</glyph>
<glyph name="currency" format="2">
  <advance width="332"/>
  <unicode hex="00A4"/>
  <outline>
    <contour>
      <point x="57" y="141" type="line"/>
      <point x="102" y="217" type="line"/>
      <point x="125" y="189"/>
      <point x="145" y="177"/>
      <point x="166" y="177" type="curve" smooth="yes"/>
      <point x="188" y="177"/>
      <point x="209" y="191"/>
      <point x="232" y="217" type="curve"/>
      <point x="276" y="142" type="line"/>
      <point x="298" y="164" type="line"/>
      <point x="250" y="243" type="line"/>
      <point x="269" y="280"/>
      <point x="277" y="321"/>
      <point x="277" y="360" type="curve" smooth="yes"/>
      <point x="277" y="401"/>
      <point x="272" y="438"/>
      <point x="256" y="478" type="curve"/>
      <point x="298" y="553" type="line"/>
      <point x="278" y="573" type="line"/>
      <point x="237" y="501" type="line"/>
      <point x="210" y="531"/>
      <point x="189" y="545"/>
      <point x="166" y="545" type="curve" smooth="yes"/>
      <point x="143" y="545"/>
      <point x="123" y="532"/>
      <point x="98" y="503" type="curve"/>
      <point x="59" y="571" type="line"/>
      <point x="38" y="550" type="line"/>
      <point x="79" y="475" type="line"/>
      <point x="62" y="436"/>
      <point x="56" y="402"/>
      <point x="56" y="360" type="curve" smooth="yes"/>
      <point x="56" y="321"/>
      <point x="63" y="281"/>
      <point x="81" y="241" type="curve"/>
      <point x="35" y="164" type="line"/>
    </contour>
    <contour>
      <point x="166" y="206" type="curve" smooth="yes"/>
      <point x="122" y="206"/>
      <point x="84" y="276"/>
      <point x="84" y="358" type="curve" smooth="yes"/>
      <point x="84" y="444"/>
      <point x="122" y="515"/>
      <point x="166" y="515" type="curve" smooth="yes"/>
      <point x="208" y="515"/>
      <point x="249" y="444"/>
      <point x="249" y="358" type="curve" smooth="yes"/>
      <point x="249" y="276"/>
      <point x="208" y="206"/>
    </contour>
  </outline>
</glyph>
<glyph name="copyright" format="2">
  <advance width="507"/>
  <unicode hex="00A9"/>
  <outline>
    <contour>
      <point x="255" y="-10" type="curve" smooth="yes"/>
      <point x="411" y="-10"/>
      <point x="482" y="156"/>
      <point x="482" y="359" type="curve" smooth="yes"/>
      <point x="482" y="558"/>
      <point x="414" y="725"/>
      <point x="257" y="725" type="curve" smooth="yes"/>
      <point x="100" y="725"/>
      <point x="25" y="558"/>
      <point x="25" y="358" type="curve" smooth="yes"/>
      <point x="25" y="164"/>
      <point x="94" y="-10"/>
    </contour>
    <contour>
      <point x="262" y="119" type="curve" smooth="yes"/>
      <point x="323" y="119"/>
      <point x="352" y="169"/>
      <point x="352" y="216" type="curve" smooth="yes"/>
      <point x="352" y="233"/>
      <point x="347" y="239"/>
      <point x="337" y="245" type="curve"/>
      <point x="323" y="189"/>
      <point x="310" y="145"/>
      <point x="262" y="145" type="curve" smooth="yes"/>
      <point x="195" y="145"/>
      <point x="168" y="228"/>
      <point x="168" y="367" type="curve" smooth="yes"/>
      <point x="168" y="480"/>
      <point x="182" y="566"/>
      <point x="265" y="566" type="curve" smooth="yes"/>
      <point x="336" y="566"/>
      <point x="335" y="507"/>
      <point x="335" y="438" type="curve"/>
      <point x="341" y="437"/>
      <point x="353" y="461"/>
      <point x="353" y="493" type="curve" smooth="yes"/>
      <point x="353" y="541"/>
      <point x="339" y="592"/>
      <point x="267" y="592" type="curve" smooth="yes"/>
      <point x="165" y="592"/>
      <point x="140" y="497"/>
      <point x="140" y="364" type="curve" smooth="yes"/>
      <point x="140" y="213"/>
      <point x="177" y="119"/>
    </contour>
    <contour>
      <point x="259" y="14" type="curve" smooth="yes"/>
      <point x="118" y="14"/>
      <point x="53" y="163"/>
      <point x="53" y="360" type="curve" smooth="yes"/>
      <point x="53" y="553"/>
      <point x="118" y="701"/>
      <point x="257" y="701" type="curve" smooth="yes"/>
      <point x="394" y="701"/>
      <point x="454" y="559"/>
      <point x="454" y="358" type="curve" smooth="yes"/>
      <point x="454" y="159"/>
      <point x="396" y="14"/>
    </contour>
  </outline>
</glyph>
<glyph name="logicalnot" format="2">
  <advance width="336"/>
  <unicode hex="00AC"/>
  <outline>
    <contour>
      <point x="264" y="85" type="line"/>
      <point x="296" y="85" type="line"/>
      <point x="296" y="381" type="line"/>
      <point x="40" y="381" type="line"/>
      <point x="40" y="353" type="line"/>
      <point x="264" y="353" type="line"/>
    </contour>
  </outline>
</glyph>
<glyph name="registered" format="2">
  <advance width="507"/>
  <unicode hex="00AE"/>
  <outline>
    <contour>
      <point x="255" y="-10" type="curve" smooth="yes"/>
      <point x="411" y="-10"/>
      <point x="482" y="156"/>
      <point x="482" y="359" type="curve" smooth="yes"/>
      <point x="482" y="558"/>
      <point x="414" y="725"/>
      <point x="257" y="725" type="curve" smooth="yes"/>
      <point x="100" y="725"/>
      <point x="25" y="558"/>
      <point x="25" y="358" type="curve" smooth="yes"/>
      <point x="25" y="164"/>
      <point x="94" y="-10"/>
    </contour>
    <contour>
      <point x="259" y="14" type="curve" smooth="yes"/>
      <point x="118" y="14"/>
      <point x="53" y="163"/>
      <point x="53" y="360" type="curve" smooth="yes"/>
      <point x="53" y="553"/>
      <point x="118" y="701"/>
      <point x="257" y="701" type="curve" smooth="yes"/>
      <point x="394" y="701"/>
      <point x="454" y="559"/>
      <point x="454" y="358" type="curve" smooth="yes"/>
      <point x="454" y="159"/>
      <point x="396" y="14"/>
    </contour>
    <contour>
      <point x="138" y="141" type="line"/>
      <point x="236" y="141" type="line"/>
      <point x="236" y="161" type="line"/>
      <point x="229" y="161" type="line" smooth="yes"/>
      <point x="194" y="161"/>
      <point x="201" y="165"/>
      <point x="201" y="202" type="curve" smooth="yes"/>
      <point x="201" y="337" type="line"/>
      <point x="260" y="337" type="line"/>
      <point x="328" y="141" type="line"/>
      <point x="377" y="141" type="line"/>
      <point x="377" y="161" type="line"/>
      <point x="349" y="161"/>
      <point x="344" y="165"/>
      <point x="338" y="187" type="curve" smooth="yes"/>
      <point x="284" y="346" type="line"/>
      <point x="308" y="355"/>
      <point x="344" y="368"/>
      <point x="344" y="456" type="curve" smooth="yes"/>
      <point x="344" y="533"/>
      <point x="312" y="573"/>
      <point x="239" y="573" type="curve" smooth="yes"/>
      <point x="138" y="573" type="line"/>
      <point x="138" y="553" type="line"/>
      <point x="144" y="553" type="line" smooth="yes"/>
      <point x="180" y="553"/>
      <point x="173" y="549"/>
      <point x="173" y="518" type="curve" smooth="yes"/>
      <point x="173" y="202" type="line" smooth="yes"/>
      <point x="173" y="165"/>
      <point x="180" y="161"/>
      <point x="144" y="161" type="curve" smooth="yes"/>
      <point x="138" y="161" type="line"/>
    </contour>
    <contour>
      <point x="201" y="364" type="line"/>
      <point x="201" y="547" type="line"/>
      <point x="241" y="547" type="line" smooth="yes"/>
      <point x="302" y="547"/>
      <point x="317" y="515"/>
      <point x="317" y="451" type="curve" smooth="yes"/>
      <point x="317" y="393"/>
      <point x="306" y="364"/>
      <point x="229" y="364" type="curve" smooth="yes"/>
    </contour>
  </outline>
</glyph>
<glyph name="onesuperior" format="2">
  <advance width="238"/>
  <unicode hex="00B9"/>
  <outline>
    <contour>
      <point x="47" y="385" type="line"/>
      <point x="192" y="385" type="line"/>
      <point x="192" y="405" type="line"/>
      <point x="173" y="405" type="line" smooth="yes"/>
      <point x="141" y="405"/>
      <point x="142" y="413"/>
      <point x="142" y="470" type="curve" smooth="yes"/>
      <point x="142" y="817" type="line"/>
      <point x="116" y="817" type="line"/>
      <point x="115" y="815" type="line" smooth="yes"/>
      <point x="62" y="748"/>
      <point x="67" y="750"/>
      <point x="36" y="743" type="curve"/>
      <point x="36" y="729"/>
      <point x="48" y="724"/>
      <point x="67" y="724" type="curve" smooth="yes"/>
      <point x="73" y="724"/>
      <point x="94" y="730"/>
      <point x="113" y="768" type="curve"/>
      <point x="113" y="470" type="line" smooth="yes"/>
      <point x="113" y="413"/>
      <point x="114" y="405"/>
      <point x="81" y="405" type="curve" smooth="yes"/>
      <point x="47" y="405" type="line"/>
    </contour>
  </outline>
</glyph>
<glyph name="guillemotright" format="2">
  <advance width="289"/>
  <unicode hex="00BB"/>
  <outline>
    <contour>
      <point x="138" y="90" type="line"/>
      <point x="143" y="90" type="line"/>
      <point x="248" y="264" type="line"/>
      <point x="248" y="276" type="line"/>
      <point x="143" y="450" type="line"/>
      <point x="138" y="450" type="line"/>
      <point x="196" y="270" type="line"/>
    </contour>
    <contour>
      <point x="38" y="90" type="line"/>
      <point x="46" y="90" type="line"/>
      <point x="149" y="264" type="line"/>
      <point x="149" y="276" type="line"/>
      <point x="46" y="450" type="line"/>
      <point x="38" y="450" type="line"/>
      <point x="98" y="270" type="line"/>
    </contour>
  </outline>
</glyph>
<glyph name="lslash" format="2">
  <advance width="203"/>
  <unicode hex="0142"/>
  <anchor x="101" y="0" name="bottom"/>
  <anchor x="101" y="760" name="top"/>
  <outline>
    <contour>
      <point x="45" y="0" type="line"/>
      <point x="199" y="0" type="line"/>
      <point x="199" y="20" type="line"/>
      <point x="209" y="20" type="line" smooth="yes"/>
      <point x="131" y="20"/>
      <point x="135" y="21"/>
      <point x="135" y="91" type="curve" smooth="yes"/>
      <point x="135" y="283" type="line"/>
      <point x="192" y="333" type="line"/>
      <point x="192" y="368" type="line"/>
      <point x="135" y="318" type="line"/>
      <point x="135" y="760" type="line"/>
      <point x="45" y="760" type="line"/>
      <point x="45" y="740" type="line"/>
      <point x="50" y="740" type="line" smooth="yes"/>
      <point x="108" y="740"/>
      <point x="107" y="741"/>
      <point x="107" y="661" type="curve" smooth="yes"/>
      <point x="107" y="294" type="line"/>
      <point x="49" y="244" type="line"/>
      <point x="49" y="212" type="line"/>
      <point x="107" y="262" type="line"/>
      <point x="107" y="91" type="line" smooth="yes"/>
      <point x="107" y="21"/>
      <point x="112" y="20"/>
      <point x="34" y="20" type="curve" smooth="yes"/>
      <point x="45" y="20" type="line"/>
    </contour>
  </outline>
</glyph>
<glyph name="OE" format="2">
  <advance width="550"/>
  <unicode hex="0152"/>
  <anchor x="275" y="0" name="bottom"/>
  <anchor x="275" y="714" name="top"/>
  <outline>
    <contour>
      <point x="212" y="-12" type="curve" smooth="yes"/>
      <point x="239" y="-12"/>
      <point x="257" y="-9"/>
      <point x="274" y="0" type="curve"/>
      <point x="517" y="0" type="line"/>
      <point x="519" y="165" type="line"/>
      <point x="499" y="165" type="line"/>
      <point x="496" y="102" type="line" smooth="yes"/>
      <point x="491" y="36"/>
      <point x="498" y="25"/>
      <point x="421" y="25" type="curve" smooth="yes"/>
      <point x="297" y="25" type="line"/>
      <point x="301" y="362" type="line"/>
      <point x="454" y="362" type="line"/>
      <point x="454" y="387" type="line"/>
      <point x="301" y="387" type="line"/>
      <point x="301" y="689" type="line"/>
      <point x="398" y="689" type="line" smooth="yes"/>
      <point x="476" y="689"/>
      <point x="475" y="681"/>
      <point x="480" y="582" type="curve" smooth="yes"/>
      <point x="480" y="549" type="line"/>
      <point x="500" y="549" type="line"/>
      <point x="496" y="714" type="line"/>
      <point x="275" y="714" type="line"/>
      <point x="259" y="722"/>
      <point x="242" y="727"/>
      <point x="213" y="727" type="curve" smooth="yes"/>
      <point x="93" y="727"/>
      <point x="35" y="599"/>
      <point x="35" y="359" type="curve" smooth="yes"/>
      <point x="35" y="145"/>
      <point x="92" y="-12"/>
    </contour>
    <contour>
      <point x="212" y="13" type="curve" smooth="yes"/>
      <point x="114" y="13"/>
      <point x="63" y="160"/>
      <point x="63" y="358" type="curve" smooth="yes"/>
      <point x="63" y="575"/>
      <point x="104" y="702"/>
      <point x="213" y="702" type="curve" smooth="yes"/>
      <point x="241" y="702"/>
      <point x="259" y="695"/>
      <point x="272" y="686" type="curve"/>
      <point x="272" y="28" type="line"/>
      <point x="251" y="19"/>
      <point x="227" y="13"/>
    </contour>
  </outline>
</glyph>
<glyph name="longs" format="2">
  <advance width="221"/>
  <unicode hex="017F"/>
  <anchor x="111" y="0" name="bottom"/>
  <anchor x="131" y="772" name="top"/>
  <outline>
    <contour>
      <point x="13" y="0" type="line"/>
      <point x="171" y="0" type="line"/>
      <point x="171" y="20" type="line"/>
      <point x="141" y="20" type="line" smooth="yes"/>
      <point x="104" y="20"/>
      <point x="97" y="32"/>
      <point x="97" y="109" type="curve" smooth="yes"/>
      <point x="97" y="600" type="line" smooth="yes"/>
      <point x="97" y="679"/>
      <point x="107" y="747"/>
      <point x="171" y="747" type="curve" smooth="yes"/>
      <point x="207" y="747"/>
      <point x="214" y="720"/>
      <point x="214" y="658" type="curve"/>
      <point x="226" y="658"/>
      <point x="235" y="677"/>
      <point x="235" y="697" type="curve" smooth="yes"/>
      <point x="235" y="758"/>
      <point x="207" y="772"/>
      <point x="170" y="772" type="curve" smooth="yes"/>
      <point x="105" y="772"/>
      <point x="69" y="722"/>
      <point x="69" y="602" type="curve" smooth="yes"/>
      <point x="69" y="109" type="line" smooth="yes"/>
      <point x="69" y="32"/>
      <point x="62" y="20"/>
      <point x="24" y="20" type="curve" smooth="yes"/>
      <point x="13" y="20" type="line"/>
    </contour>
  </outline>
</glyph>
<glyph name="uni0184" format="2">
  <advance width="315"/>
  <unicode hex="0184"/>
  <anchor x="158" y="0" name="bottom"/>
  <anchor x="158" y="714" name="top"/>
  <outline>
    <contour>
      <point x="177" y="-10" type="curve" smooth="yes"/>
      <point x="239" y="-10"/>
      <point x="279" y="59"/>
      <point x="279" y="167" type="curve" smooth="yes"/>
      <point x="279" y="301"/>
      <point x="229" y="385"/>
      <point x="97" y="385" type="curve" smooth="yes"/>
      <point x="93" y="385" type="line"/>
      <point x="93" y="607" type="line" smooth="yes"/>
      <point x="93" y="683"/>
      <point x="100" y="694"/>
      <point x="147" y="694" type="curve" smooth="yes"/>
      <point x="184" y="694" type="line"/>
      <point x="184" y="714" type="line"/>
      <point x="8" y="714" type="line"/>
      <point x="8" y="694" type="line"/>
      <point x="8" y="694" type="line" smooth="yes"/>
      <point x="60" y="694"/>
      <point x="65" y="683"/>
      <point x="65" y="607" type="curve" smooth="yes"/>
      <point x="65" y="177" type="line" smooth="yes"/>
      <point x="65" y="44"/>
      <point x="112" y="-10"/>
    </contour>
    <contour>
      <point x="174" y="15" type="curve" smooth="yes"/>
      <point x="129" y="15"/>
      <point x="93" y="67"/>
      <point x="93" y="187" type="curve" smooth="yes"/>
      <point x="93" y="360" type="line"/>
      <point x="101" y="360" type="line" smooth="yes"/>
      <point x="213" y="360"/>
      <point x="251" y="285"/>
      <point x="251" y="167" type="curve" smooth="yes"/>
      <point x="251" y="66"/>
      <point x="217" y="15"/>
    </contour>
  </outline>
</glyph>
<glyph name="uni0188" format="2">
  <advance width="280"/>
  <unicode hex="0188"/>
  <anchor x="141" y="0" name="bottom"/>
  <anchor x="141" y="760" name="top"/>
  <outline>
    <contour>
      <point x="166" y="-10" type="curve" smooth="yes"/>
      <point x="221" y="-10"/>
      <point x="255" y="41"/>
      <point x="255" y="81" type="curve" smooth="yes"/>
      <point x="255" y="98"/>
      <point x="252" y="104"/>
      <point x="247" y="107" type="curve"/>
      <point x="237" y="68"/>
      <point x="208" y="14"/>
      <point x="166" y="15" type="curve" smooth="yes"/>
      <point x="91" y="16"/>
      <point x="65" y="75"/>
      <point x="65" y="264" type="curve" smooth="yes"/>
      <point x="65" y="469"/>
      <point x="102" y="517"/>
      <point x="161" y="517" type="curve" smooth="yes"/>
      <point x="215" y="517"/>
      <point x="231" y="492"/>
      <point x="231" y="406" type="curve"/>
      <point x="241" y="405"/>
      <point x="256" y="412"/>
      <point x="256" y="440" type="curve" smooth="yes"/>
      <point x="256" y="630" type="line" smooth="yes"/>
      <point x="256" y="698"/>
      <point x="266" y="733"/>
      <point x="292" y="733" type="curve" smooth="yes"/>
      <point x="310" y="733"/>
      <point x="326" y="713"/>
      <point x="316" y="673" type="curve"/>
      <point x="322" y="682"/>
      <point x="329" y="690"/>
      <point x="329" y="710" type="curve" smooth="yes"/>
      <point x="329" y="746"/>
      <point x="309" y="760"/>
      <point x="287" y="760" type="curve" smooth="yes"/>
      <point x="253" y="760"/>
      <point x="228" y="720"/>
      <point x="228" y="624" type="curve" smooth="yes"/>
      <point x="228" y="518" type="line"/>
      <point x="212" y="533"/>
      <point x="187" y="542"/>
      <point x="159" y="542" type="curve" smooth="yes"/>
      <point x="81" y="542"/>
      <point x="37" y="482"/>
      <point x="37" y="263" type="curve" smooth="yes"/>
      <point x="37" y="40"/>
      <point x="89" y="-10"/>
    </contour>
  </outline>
</glyph>
<glyph name="uni01A5" format="2">
  <advance width="356"/>
  <unicode hex="01A5"/>
  <anchor x="179" y="-240" name="bottom"/>
  <anchor x="179" y="763" name="top"/>
  <outline>
    <contour>
      <point x="14" y="-240" type="line"/>
      <point x="152" y="-240" type="line"/>
      <point x="152" y="-220" type="line"/>
      <point x="160" y="-220" type="line" smooth="yes"/>
      <point x="102" y="-220"/>
      <point x="97" y="-213"/>
      <point x="97" y="-145" type="curve" smooth="yes"/>
      <point x="97" y="-15" type="line" smooth="yes"/>
      <point x="97" y="17"/>
      <point x="101" y="65"/>
      <point x="99" y="96" type="curve"/>
      <point x="99" y="96" type="line"/>
      <point x="115" y="37"/>
      <point x="144" y="-10"/>
      <point x="205" y="-10" type="curve" smooth="yes"/>
      <point x="273" y="-10"/>
      <point x="319" y="80"/>
      <point x="319" y="281" type="curve" smooth="yes"/>
      <point x="319" y="475"/>
      <point x="274" y="546"/>
      <point x="199" y="546" type="curve" smooth="yes"/>
      <point x="145" y="546"/>
      <point x="122" y="500"/>
      <point x="99" y="438" type="curve"/>
      <point x="96" y="438" type="line"/>
      <point x="96" y="480"/>
      <point x="97" y="524"/>
      <point x="97" y="568" type="curve" smooth="yes"/>
      <point x="97" y="550" type="line" smooth="yes"/>
      <point x="97" y="668"/>
      <point x="99" y="740"/>
      <point x="155" y="740" type="curve" smooth="yes"/>
      <point x="196" y="740"/>
      <point x="196" y="688"/>
      <point x="180" y="663" type="curve"/>
      <point x="198" y="662"/>
      <point x="208" y="681"/>
      <point x="208" y="703" type="curve" smooth="yes"/>
      <point x="208" y="733"/>
      <point x="195" y="763"/>
      <point x="155" y="763" type="curve" smooth="yes"/>
      <point x="93" y="763"/>
      <point x="69" y="699"/>
      <point x="69" y="544" type="curve" smooth="yes"/>
      <point x="69" y="-145" type="line" smooth="yes"/>
      <point x="69" y="-213"/>
      <point x="63" y="-220"/>
      <point x="4" y="-220" type="curve" smooth="yes"/>
      <point x="14" y="-220" type="line"/>
    </contour>
    <contour>
      <point x="202" y="15" type="curve" smooth="yes"/>
      <point x="118" y="15"/>
      <point x="97" y="121"/>
      <point x="97" y="274" type="curve" smooth="yes"/>
      <point x="97" y="440"/>
      <point x="143" y="521"/>
      <point x="199" y="521" type="curve" smooth="yes"/>
      <point x="255" y="521"/>
      <point x="291" y="449"/>
      <point x="291" y="285" type="curve" smooth="yes"/>
      <point x="291" y="127"/>
      <point x="275" y="15"/>
    </contour>
  </outline>
</glyph>
<glyph name="uni01BC" format="2">
  <advance width="327"/>
  <unicode hex="01BC"/>
  <anchor x="163" y="0" name="bottom"/>
  <anchor x="163" y="714" name="top"/>
  <outline>
    <contour>
      <point x="151" y="-10" type="curve" smooth="yes"/>
      <point x="213" y="-10"/>
      <point x="291" y="44"/>
      <point x="291" y="199" type="curve" smooth="yes"/>
      <point x="291" y="339"/>
      <point x="236" y="413"/>
      <point x="54" y="415" type="curve" smooth="yes"/>
      <point x="101" y="415" type="line"/>
      <point x="101" y="689" type="line"/>
      <point x="195" y="689" type="line" smooth="yes"/>
      <point x="245" y="689"/>
      <point x="251" y="671"/>
      <point x="253" y="613" type="curve" smooth="yes"/>
      <point x="254" y="536" type="line"/>
      <point x="274" y="536" type="line"/>
      <point x="270" y="714" type="line"/>
      <point x="26" y="714" type="line"/>
      <point x="26" y="694" type="line"/>
      <point x="35" y="694" type="line" smooth="yes"/>
      <point x="69" y="694"/>
      <point x="73" y="682"/>
      <point x="73" y="597" type="curve" smooth="yes"/>
      <point x="73" y="390" type="line"/>
      <point x="61" y="390" type="line" smooth="yes"/>
      <point x="218" y="390"/>
      <point x="263" y="321"/>
      <point x="263" y="199" type="curve" smooth="yes"/>
      <point x="263" y="57"/>
      <point x="195" y="15"/>
      <point x="149" y="15" type="curve" smooth="yes"/>
      <point x="64" y="15"/>
      <point x="29" y="94"/>
      <point x="33" y="156" type="curve"/>
      <point x="17" y="156"/>
      <point x="14" y="139"/>
      <point x="14" y="118" type="curve" smooth="yes"/>
      <point x="14" y="84"/>
      <point x="33" y="-10"/>
    </contour>
  </outline>
</glyph>
<glyph name="uni021D" format="2">
  <advance width="285"/>
  <unicode hex="021D"/>
  <anchor x="125" y="-158" name="bottom"/>
  <anchor x="130" y="536" name="top"/>
  <outline>
    <contour>
      <point x="23" y="-240" type="line"/>
      <point x="169" y="-195"/>
      <point x="245" y="-127"/>
      <point x="245" y="48" type="curve" smooth="yes"/>
      <point x="245" y="149"/>
      <point x="216" y="206"/>
      <point x="159" y="240" type="curve"/>
      <point x="201" y="269"/>
      <point x="231" y="307"/>
      <point x="231" y="391" type="curve" smooth="yes"/>
      <point x="231" y="487"/>
      <point x="191" y="541"/>
      <point x="134" y="541" type="curve" smooth="yes"/>
      <point x="75" y="541"/>
      <point x="31" y="485"/>
      <point x="31" y="433" type="curve" smooth="yes"/>
      <point x="31" y="411"/>
      <point x="42" y="395"/>
      <point x="56" y="395" type="curve"/>
      <point x="56" y="469"/>
      <point x="73" y="516"/>
      <point x="130" y="516" type="curve" smooth="yes"/>
      <point x="181" y="516"/>
      <point x="202" y="477"/>
      <point x="202" y="393" type="curve" smooth="yes"/>
      <point x="202" y="307"/>
      <point x="191" y="269"/>
      <point x="73" y="215" type="curve"/>
      <point x="85" y="194" type="line"/>
      <point x="140" y="225" type="line"/>
      <point x="188" y="193"/>
      <point x="217" y="146"/>
      <point x="217" y="47" type="curve" smooth="yes"/>
      <point x="217" y="-120"/>
      <point x="137" y="-178"/>
      <point x="23" y="-214" type="curve"/>
    </contour>
  </outline>
</glyph>
<glyph name="uni0221" format="2">
  <advance width="457"/>
  <unicode hex="0221"/>
  <anchor x="228" y="0" name="bottom"/>
  <anchor x="228" y="760" name="top"/>
  <outline>
    <contour>
      <point x="263" y="-69" type="line"/>
      <point x="264" y="-39"/>
      <point x="269" y="-21"/>
      <point x="276" y="11" type="curve"/>
      <point x="292" y="-9"/>
      <point x="319" y="-13"/>
      <point x="345" y="-13" type="curve" smooth="yes"/>
      <point x="397" y="-13"/>
      <point x="418" y="27"/>
      <point x="418" y="71" type="curve" smooth="yes"/>
      <point x="418" y="103"/>
      <point x="398" y="138"/>
      <point x="358" y="138" type="curve" smooth="yes"/>
      <point x="320" y="138"/>
      <point x="295" y="112"/>
      <point x="280" y="81" type="curve"/>
      <point x="280" y="760" type="line"/>
      <point x="202" y="760" type="line"/>
      <point x="202" y="740" type="line"/>
      <point x="189" y="740" type="line" smooth="yes"/>
      <point x="248" y="740"/>
      <point x="252" y="734"/>
      <point x="252" y="652" type="curve" smooth="yes"/>
      <point x="252" y="545" type="line" smooth="yes"/>
      <point x="252" y="505"/>
      <point x="253" y="475"/>
      <point x="259" y="448" type="curve"/>
      <point x="255" y="448" type="line"/>
      <point x="235" y="503"/>
      <point x="213" y="545"/>
      <point x="166" y="545" type="curve" smooth="yes"/>
      <point x="103" y="545"/>
      <point x="38" y="498"/>
      <point x="38" y="267" type="curve" smooth="yes"/>
      <point x="38" y="41"/>
      <point x="85" y="-10"/>
      <point x="156" y="-10" type="curve" smooth="yes"/>
      <point x="200" y="-10"/>
      <point x="228" y="19"/>
      <point x="250" y="77" type="curve"/>
      <point x="254" y="77" type="line"/>
      <point x="254" y="65"/>
      <point x="257" y="60"/>
      <point x="264" y="42" type="curve"/>
      <point x="249" y="7"/>
      <point x="240" y="-47"/>
      <point x="241" y="-72" type="curve"/>
    </contour>
    <contour>
      <point x="160" y="16" type="curve" smooth="yes"/>
      <point x="93" y="17"/>
      <point x="66" y="76"/>
      <point x="66" y="266" type="curve" smooth="yes"/>
      <point x="66" y="469"/>
      <point x="116" y="520"/>
      <point x="167" y="520" type="curve" smooth="yes"/>
      <point x="229" y="520"/>
      <point x="253" y="427"/>
      <point x="253" y="265" type="curve" smooth="yes"/>
      <point x="253" y="92"/>
      <point x="218" y="14"/>
    </contour>
    <contour>
      <point x="342" y="12" type="curve" smooth="yes"/>
      <point x="312" y="12"/>
      <point x="291" y="29"/>
      <point x="290" y="50" type="curve"/>
      <point x="311" y="94"/>
      <point x="328" y="113"/>
      <point x="360" y="113" type="curve" smooth="yes"/>
      <point x="377" y="113"/>
      <point x="390" y="100"/>
      <point x="390" y="66" type="curve" smooth="yes"/>
      <point x="390" y="31"/>
      <point x="372" y="12"/>
    </contour>
  </outline>
</glyph>
<glyph name="uni0234" format="2">
  <advance width="220"/>
  <unicode hex="0234"/>
  <anchor x="111" y="0" name="bottom"/>
  <anchor x="111" y="760" name="top"/>
  <outline>
    <contour>
      <point x="34" y="1" type="line"/>
      <point x="40" y="48"/>
      <point x="53" y="109"/>
      <point x="69" y="142" type="curve"/>
      <point x="64" y="26"/>
      <point x="78" y="-10"/>
      <point x="127" y="-10" type="curve" smooth="yes"/>
      <point x="161" y="-10"/>
      <point x="197" y="18"/>
      <point x="197" y="111" type="curve" smooth="yes"/>
      <point x="197" y="156"/>
      <point x="177" y="210"/>
      <point x="125" y="210" type="curve" smooth="yes"/>
      <point x="114" y="210"/>
      <point x="108" y="211"/>
      <point x="97" y="203" type="curve"/>
      <point x="97" y="760" type="line"/>
      <point x="7" y="760" type="line"/>
      <point x="7" y="740" type="line"/>
      <point x="4" y="740" type="line" smooth="yes"/>
      <point x="61" y="740"/>
      <point x="69" y="736"/>
      <point x="69" y="662" type="curve" smooth="yes"/>
      <point x="69" y="199" type="line" smooth="yes"/>
      <point x="69" y="191"/>
      <point x="69" y="185"/>
      <point x="69" y="177" type="curve"/>
      <point x="42" y="159"/>
      <point x="23" y="90"/>
      <point x="9" y="14" type="curve"/>
    </contour>
    <contour>
      <point x="132" y="15" type="curve" smooth="yes"/>
      <point x="92" y="15"/>
      <point x="97" y="61"/>
      <point x="97" y="173" type="curve"/>
      <point x="107" y="183"/>
      <point x="117" y="185"/>
      <point x="126" y="185" type="curve" smooth="yes"/>
      <point x="167" y="185"/>
      <point x="169" y="142"/>
      <point x="169" y="113" type="curve" smooth="yes"/>
      <point x="169" y="66"/>
      <point x="168" y="15"/>
    </contour>
  </outline>
</glyph>
<glyph name="uni0235" format="2">
  <advance width="445"/>
  <unicode hex="0235"/>
  <anchor x="222" y="0" name="bottom"/>
  <anchor x="222" y="536" name="top"/>
  <outline>
    <contour>
      <point x="221" y="-11" type="line"/>
      <point x="225" y="37"/>
      <point x="262" y="114"/>
      <point x="275" y="115" type="curve"/>
      <point x="272" y="-15"/>
      <point x="319" y="-10"/>
      <point x="348" y="-10" type="curve" smooth="yes"/>
      <point x="385" y="-10"/>
      <point x="411" y="28"/>
      <point x="411" y="83" type="curve" smooth="yes"/>
      <point x="411" y="130"/>
      <point x="392" y="169"/>
      <point x="330" y="169" type="curve" smooth="yes"/>
      <point x="327" y="169"/>
      <point x="314" y="168"/>
      <point x="303" y="163" type="curve"/>
      <point x="303" y="367" type="line" smooth="yes"/>
      <point x="303" y="489"/>
      <point x="274" y="542"/>
      <point x="198" y="542" type="curve" smooth="yes"/>
      <point x="147" y="542"/>
      <point x="123" y="503"/>
      <point x="107" y="466" type="curve"/>
      <point x="107" y="466" type="line"/>
      <point x="104" y="536" type="line"/>
      <point x="23" y="536" type="line"/>
      <point x="23" y="516" type="line"/>
      <point x="9" y="516" type="line" smooth="yes"/>
      <point x="75" y="516"/>
      <point x="80" y="511"/>
      <point x="80" y="440" type="curve" smooth="yes"/>
      <point x="80" y="97" type="line" smooth="yes"/>
      <point x="80" y="27"/>
      <point x="74" y="20"/>
      <point x="15" y="20" type="curve" smooth="yes"/>
      <point x="21" y="20" type="line"/>
      <point x="21" y="0" type="line"/>
      <point x="166" y="0" type="line"/>
      <point x="166" y="20" type="line"/>
      <point x="171" y="20" type="line" smooth="yes"/>
      <point x="114" y="20"/>
      <point x="108" y="27"/>
      <point x="108" y="97" type="curve" smooth="yes"/>
      <point x="108" y="332" type="line" smooth="yes"/>
      <point x="108" y="496"/>
      <point x="175" y="517"/>
      <point x="201" y="517" type="curve" smooth="yes"/>
      <point x="254" y="517"/>
      <point x="275" y="459"/>
      <point x="275" y="363" type="curve" smooth="yes"/>
      <point x="275" y="179" type="line" smooth="yes"/>
      <point x="275" y="174"/>
      <point x="275" y="160"/>
      <point x="275" y="147" type="curve"/>
      <point x="218" y="112"/>
      <point x="201" y="43"/>
      <point x="192" y="-6" type="curve"/>
    </contour>
    <contour>
      <point x="348" y="15" type="curve" smooth="yes"/>
      <point x="323" y="15"/>
      <point x="303" y="32"/>
      <point x="303" y="80" type="curve" smooth="yes"/>
      <point x="303" y="135" type="line"/>
      <point x="308" y="140"/>
      <point x="321" y="144"/>
      <point x="337" y="144" type="curve" smooth="yes"/>
      <point x="373" y="144"/>
      <point x="383" y="119"/>
      <point x="383" y="83" type="curve" smooth="yes"/>
      <point x="383" y="61"/>
      <point x="382" y="15"/>
    </contour>
  </outline>
</glyph>
<glyph name="uni0252" format="2">
  <advance width="350"/>
  <unicode hex="0252"/>
  <anchor x="175" y="0" name="bottom"/>
  <anchor x="175" y="536" name="top"/>
  <outline>
    <contour>
      <point x="184" y="-12" type="curve" smooth="yes"/>
      <point x="267" y="-12"/>
      <point x="309" y="66"/>
      <point x="309" y="274" type="curve" smooth="yes"/>
      <point x="309" y="471"/>
      <point x="266" y="546"/>
      <point x="193" y="546" type="curve" smooth="yes"/>
      <point x="111" y="546"/>
      <point x="94" y="465"/>
      <point x="91" y="432" type="curve"/>
      <point x="92" y="432" type="line"/>
      <point x="89" y="523"/>
      <point x="73" y="547"/>
      <point x="35" y="547" type="curve" smooth="yes"/>
      <point x="24" y="547"/>
      <point x="14" y="540"/>
      <point x="7" y="530" type="curve"/>
      <point x="7" y="509" type="line"/>
      <point x="13" y="515"/>
      <point x="20" y="522"/>
      <point x="35" y="522" type="curve" smooth="yes"/>
      <point x="54" y="522"/>
      <point x="65" y="493"/>
      <point x="65" y="446" type="curve" smooth="yes"/>
      <point x="65" y="0" type="line"/>
      <point x="85" y="0" type="line"/>
      <point x="91" y="103" type="line"/>
      <point x="92" y="103" type="line"/>
      <point x="112" y="26"/>
      <point x="146" y="-12"/>
    </contour>
    <contour>
      <point x="186" y="13" type="curve" smooth="yes"/>
      <point x="124" y="13"/>
      <point x="93" y="116"/>
      <point x="93" y="269" type="curve" smooth="yes"/>
      <point x="93" y="464"/>
      <point x="135" y="522"/>
      <point x="188" y="520" type="curve" smooth="yes"/>
      <point x="266" y="519"/>
      <point x="281" y="448"/>
      <point x="281" y="272" type="curve" smooth="yes"/>
      <point x="281" y="85"/>
      <point x="254" y="13"/>
    </contour>
  </outline>
</glyph>
<glyph name="uni0253" format="2">
  <advance width="352"/>
  <unicode hex="0253"/>
  <anchor x="177" y="0" name="bottom"/>
  <anchor x="177" y="763" name="top"/>
  <outline>
    <contour>
      <point x="206" y="-10" type="curve" smooth="yes"/>
      <point x="267" y="-10"/>
      <point x="314" y="38"/>
      <point x="314" y="267" type="curve" smooth="yes"/>
      <point x="314" y="470"/>
      <point x="273" y="544"/>
      <point x="200" y="544" type="curve" smooth="yes"/>
      <point x="141" y="544"/>
      <point x="110" y="499"/>
      <point x="94" y="444" type="curve"/>
      <point x="94" y="444" type="line"/>
      <point x="95" y="486"/>
      <point x="96" y="529"/>
      <point x="96" y="562" type="curve" smooth="yes"/>
      <point x="96" y="550" type="line" smooth="yes"/>
      <point x="96" y="668"/>
      <point x="98" y="740"/>
      <point x="155" y="740" type="curve" smooth="yes"/>
      <point x="195" y="740"/>
      <point x="195" y="688"/>
      <point x="179" y="663" type="curve"/>
      <point x="198" y="662"/>
      <point x="208" y="681"/>
      <point x="208" y="704" type="curve" smooth="yes"/>
      <point x="208" y="733"/>
      <point x="192" y="763"/>
      <point x="154" y="763" type="curve" smooth="yes"/>
      <point x="92" y="763"/>
      <point x="68" y="698"/>
      <point x="68" y="547" type="curve" smooth="yes"/>
      <point x="68" y="82" type="line" smooth="yes"/>
      <point x="68" y="31"/>
      <point x="59" y="20"/>
      <point x="13" y="20" type="curve" smooth="yes"/>
      <point x="10" y="20" type="line"/>
      <point x="10" y="0" type="line"/>
      <point x="94" y="0" type="line"/>
      <point x="95" y="86" type="line"/>
      <point x="100" y="86" type="line"/>
      <point x="119" y="33"/>
      <point x="139" y="-10"/>
    </contour>
    <contour>
      <point x="204" y="15" type="curve" smooth="yes"/>
      <point x="145" y="15"/>
      <point x="95" y="78"/>
      <point x="95" y="267" type="curve" smooth="yes"/>
      <point x="95" y="459"/>
      <point x="138" y="519"/>
      <point x="204" y="519" type="curve" smooth="yes"/>
      <point x="261" y="519"/>
      <point x="286" y="440"/>
      <point x="286" y="268" type="curve" smooth="yes"/>
      <point x="286" y="69"/>
      <point x="254" y="15"/>
    </contour>
  </outline>
</glyph>
<glyph name="uni0263" format="2">
  <advance width="322"/>
  <unicode hex="0263"/>
  <anchor x="161" y="-240" name="bottom"/>
  <anchor x="161" y="536" name="top"/>
  <outline>
    <contour>
      <point x="147" y="-240" type="curve" smooth="yes"/>
      <point x="169" y="-240"/>
      <point x="189" y="-218"/>
      <point x="189" y="-144" type="curve" smooth="yes"/>
      <point x="189" y="-108"/>
      <point x="192" y="-56"/>
      <point x="171" y="37" type="curve"/>
      <point x="290" y="472" type="line" smooth="yes"/>
      <point x="300" y="513"/>
      <point x="306" y="516"/>
      <point x="329" y="516" type="curve" smooth="yes"/>
      <point x="331" y="516" type="line"/>
      <point x="331" y="536" type="line"/>
      <point x="206" y="536" type="line"/>
      <point x="206" y="516" type="line"/>
      <point x="225" y="516" type="line" smooth="yes"/>
      <point x="259" y="516"/>
      <point x="269" y="510"/>
      <point x="269" y="493" type="curve" smooth="yes"/>
      <point x="269" y="483"/>
      <point x="258" y="446"/>
      <point x="236" y="366" type="curve" smooth="yes"/>
      <point x="197" y="224" type="line" smooth="yes"/>
      <point x="172" y="133"/>
      <point x="164" y="100"/>
      <point x="158" y="76" type="curve"/>
      <point x="147" y="125"/>
      <point x="139" y="167"/>
      <point x="126" y="224" type="curve" smooth="yes"/>
      <point x="82" y="412" type="line" smooth="yes"/>
      <point x="75" y="446"/>
      <point x="67" y="489"/>
      <point x="67" y="500" type="curve" smooth="yes"/>
      <point x="67" y="512"/>
      <point x="75" y="516"/>
      <point x="105" y="516" type="curve" smooth="yes"/>
      <point x="120" y="516" type="line"/>
      <point x="120" y="536" type="line"/>
      <point x="0" y="536" type="line"/>
      <point x="0" y="516" type="line"/>
      <point x="27" y="516"/>
      <point x="33" y="512"/>
      <point x="42" y="471" type="curve" smooth="yes"/>
      <point x="142" y="38" type="line"/>
      <point x="110" y="-58"/>
      <point x="108" y="-103"/>
      <point x="108" y="-157" type="curve" smooth="yes"/>
      <point x="108" y="-215"/>
      <point x="126" y="-240"/>
    </contour>
    <contour>
      <point x="147" y="-215" type="curve" smooth="yes"/>
      <point x="131" y="-215"/>
      <point x="131" y="-183"/>
      <point x="131" y="-154" type="curve" smooth="yes"/>
      <point x="131" y="-112"/>
      <point x="137" y="-69"/>
      <point x="153" y="-3" type="curve"/>
      <point x="156" y="-43"/>
      <point x="166" y="-84"/>
      <point x="166" y="-144" type="curve" smooth="yes"/>
      <point x="166" y="-185"/>
      <point x="164" y="-215"/>
    </contour>
  </outline>
</glyph>
<glyph name="uni026B" format="2">
  <advance width="194"/>
  <unicode hex="026B"/>
  <anchor x="98" y="0" name="bottom"/>
  <anchor x="98" y="760" name="top"/>
  <anchor x="193" y="760" name="topright"/>
  <anchor x="114" y="268" name="center"/>
  <outline>
    <contour>
      <point x="9" y="362" type="curve"/>
      <point x="26" y="362" type="line"/>
      <point x="30" y="384"/>
      <point x="40" y="412"/>
      <point x="64" y="412" type="curve" smooth="yes"/>
      <point x="105" y="412"/>
      <point x="107" y="355"/>
      <point x="154" y="355" type="curve" smooth="yes"/>
      <point x="195" y="355"/>
      <point x="209" y="393"/>
      <point x="213" y="425" type="curve"/>
      <point x="197" y="425" type="line"/>
      <point x="189" y="403"/>
      <point x="179" y="380"/>
      <point x="158" y="380" type="curve" smooth="yes"/>
      <point x="119" y="380"/>
      <point x="115" y="437"/>
      <point x="69" y="437" type="curve" smooth="yes"/>
      <point x="25" y="437"/>
      <point x="14" y="397"/>
    </contour>
    <component base="l" xOffset="29"/>
  </outline>
</glyph>
<glyph name="uni0280" format="2">
  <advance width="300"/>
  <unicode hex="0280"/>
  <anchor x="150" y="0" name="bottom"/>
  <anchor x="150" y="536" name="top"/>
  <outline>
    <contour>
      <point x="16" y="0" type="line"/>
      <point x="172" y="0" type="line"/>
      <point x="172" y="20" type="line"/>
      <point x="167" y="20" type="line" smooth="yes"/>
      <point x="112" y="20"/>
      <point x="105" y="27"/>
      <point x="105" y="97" type="curve" smooth="yes"/>
      <point x="105" y="250" type="line"/>
      <point x="172" y="250" type="line"/>
      <point x="232" y="77" type="line" smooth="yes"/>
      <point x="247" y="31"/>
      <point x="257" y="0"/>
      <point x="307" y="0" type="curve" smooth="yes"/>
      <point x="315" y="0" type="line"/>
      <point x="315" y="17" type="line"/>
      <point x="318" y="17" type="line" smooth="yes"/>
      <point x="293" y="17"/>
      <point x="278" y="35"/>
      <point x="258" y="91" type="curve" smooth="yes"/>
      <point x="199" y="254" type="line"/>
      <point x="244" y="266"/>
      <point x="285" y="314"/>
      <point x="285" y="394" type="curve" smooth="yes"/>
      <point x="285" y="481"/>
      <point x="247" y="536"/>
      <point x="176" y="536" type="curve" smooth="yes"/>
      <point x="23" y="536" type="line"/>
      <point x="23" y="516" type="line"/>
      <point x="13" y="516" type="line" smooth="yes"/>
      <point x="71" y="516"/>
      <point x="77" y="511"/>
      <point x="77" y="439" type="curve" smooth="yes"/>
      <point x="77" y="97" type="line" smooth="yes"/>
      <point x="77" y="27"/>
      <point x="71" y="20"/>
      <point x="13" y="20" type="curve" smooth="yes"/>
      <point x="16" y="20" type="line"/>
    </contour>
    <contour>
      <point x="105" y="275" type="line"/>
      <point x="105" y="511" type="line"/>
      <point x="175" y="511" type="line" smooth="yes"/>
      <point x="242" y="511"/>
      <point x="257" y="461"/>
      <point x="257" y="393" type="curve" smooth="yes"/>
      <point x="257" y="350"/>
      <point x="243" y="275"/>
      <point x="176" y="275" type="curve" smooth="yes"/>
    </contour>
  </outline>
</glyph>
<glyph name="uni0289" format="2">
  <advance width="365"/>
  <unicode hex="0289"/>
  <anchor x="182" y="0" name="bottom"/>
  <anchor x="182" y="536" name="top"/>
  <anchor x="352" y="536" name="topright"/>
  <outline>
    <contour>
      <point x="8" y="273" type="line"/>
      <point x="359" y="273" type="line"/>
      <point x="359" y="298" type="line"/>
      <point x="8" y="298" type="line"/>
    </contour>
    <component base="u"/>
  </outline>
</glyph>
<glyph name="uni029D" format="2">
  <advance width="164"/>
  <unicode hex="029D"/>
  <anchor x="82" y="-240" name="bottom"/>
  <anchor x="82" y="738" name="top"/>
  <outline>
    <contour>
      <point x="28" y="-240" type="curve" smooth="yes"/>
      <point x="87" y="-240"/>
      <point x="103" y="-173"/>
      <point x="102" y="-80" type="curve"/>
      <point x="154" y="-80" type="line"/>
      <point x="154" y="-55" type="line"/>
      <point x="102" y="-55" type="line"/>
      <point x="102" y="536" type="line"/>
      <point x="19" y="536" type="line"/>
      <point x="19" y="516" type="line"/>
      <point x="19" y="516" type="line" smooth="yes"/>
      <point x="70" y="516"/>
      <point x="74" y="504"/>
      <point x="74" y="435" type="curve" smooth="yes"/>
      <point x="74" y="-55" type="line"/>
      <point x="62" y="-55" type="line" smooth="yes"/>
      <point x="3" y="-55"/>
      <point x="-27" y="-96"/>
      <point x="-27" y="-160" type="curve" smooth="yes"/>
      <point x="-27" y="-199"/>
      <point x="-9" y="-240"/>
    </contour>
    <contour>
      <point x="29" y="-215" type="curve" smooth="yes"/>
      <point x="12" y="-215"/>
      <point x="1" y="-194"/>
      <point x="1" y="-159" type="curve" smooth="yes"/>
      <point x="1" y="-101"/>
      <point x="34" y="-80"/>
      <point x="64" y="-80" type="curve" smooth="yes"/>
      <point x="74" y="-80" type="line"/>
      <point x="74" y="-88" type="line" smooth="yes"/>
      <point x="74" y="-178"/>
      <point x="59" y="-215"/>
    </contour>
    <contour>
      <point x="83" y="658" type="curve" smooth="yes"/>
      <point x="95" y="658"/>
      <point x="106" y="666"/>
      <point x="106" y="698" type="curve" smooth="yes"/>
      <point x="106" y="729"/>
      <point x="95" y="738"/>
      <point x="83" y="738" type="curve" smooth="yes"/>
      <point x="73" y="738"/>
      <point x="60" y="729"/>
      <point x="60" y="698" type="curve" smooth="yes"/>
      <point x="60" y="666"/>
      <point x="73" y="658"/>
    </contour>
  </outline>
</glyph>
<glyph name="uni02AC" format="2">
  <advance width="319"/>
  <unicode hex="02AC"/>
  <anchor x="160" y="0" name="bottom"/>
  <anchor x="160" y="714" name="top"/>
  <outline>
    <contour>
      <point x="87" y="377" type="line"/>
      <point x="103" y="377" type="line"/>
      <point x="150" y="638" type="line"/>
      <point x="152" y="638" type="line"/>
      <point x="153" y="628"/>
      <point x="162" y="578"/>
      <point x="164" y="564" type="curve" smooth="yes"/>
      <point x="201" y="377" type="line"/>
      <point x="222" y="377" type="line"/>
      <point x="269" y="645" type="line" smooth="yes"/>
      <point x="279" y="692"/>
      <point x="284" y="693"/>
      <point x="295" y="693" type="curve" smooth="yes"/>
      <point x="316" y="693" type="line"/>
      <point x="316" y="714" type="line"/>
      <point x="208" y="714" type="line"/>
      <point x="208" y="693" type="line"/>
      <point x="216" y="693" type="line" smooth="yes"/>
      <point x="234" y="693"/>
      <point x="241" y="682"/>
      <point x="241" y="664" type="curve" smooth="yes"/>
      <point x="241" y="648"/>
      <point x="238" y="615"/>
      <point x="234" y="597" type="curve" smooth="yes"/>
      <point x="221" y="518" type="line" smooth="yes"/>
      <point x="217" y="493"/>
      <point x="216" y="467"/>
      <point x="215" y="450" type="curve"/>
      <point x="212" y="450" type="line"/>
      <point x="201" y="508"/>
      <point x="190" y="560"/>
      <point x="185" y="588" type="curve" smooth="yes"/>
      <point x="162" y="709" type="line"/>
      <point x="147" y="709" type="line"/>
      <point x="113" y="543" type="line" smooth="yes"/>
      <point x="106" y="510"/>
      <point x="100" y="477"/>
      <point x="100" y="451" type="curve"/>
      <point x="98" y="451" type="line"/>
      <point x="96" y="480"/>
      <point x="89" y="533"/>
      <point x="84" y="563" type="curve" smooth="yes"/>
      <point x="85" y="580" type="line" smooth="yes"/>
      <point x="80" y="606"/>
      <point x="73" y="637"/>
      <point x="73" y="664" type="curve" smooth="yes"/>
      <point x="73" y="680"/>
      <point x="81" y="693"/>
      <point x="94" y="693" type="curve" smooth="yes"/>
      <point x="109" y="693" type="line"/>
      <point x="109" y="714" type="line"/>
      <point x="5" y="714" type="line"/>
      <point x="5" y="693" type="line"/>
      <point x="38" y="693"/>
      <point x="31" y="684"/>
      <point x="40" y="639" type="curve" smooth="yes"/>
    </contour>
    <contour>
      <point x="87" y="0" type="line"/>
      <point x="103" y="0" type="line"/>
      <point x="150" y="261" type="line"/>
      <point x="152" y="261" type="line"/>
      <point x="153" y="251"/>
      <point x="162" y="200"/>
      <point x="164" y="187" type="curve" smooth="yes"/>
      <point x="201" y="0" type="line"/>
      <point x="222" y="0" type="line"/>
      <point x="271" y="268" type="line" smooth="yes"/>
      <point x="281" y="315"/>
      <point x="283" y="315"/>
      <point x="296" y="315" type="curve" smooth="yes"/>
      <point x="316" y="315" type="line"/>
      <point x="316" y="337" type="line"/>
      <point x="208" y="337" type="line"/>
      <point x="208" y="315" type="line"/>
      <point x="216" y="315" type="line" smooth="yes"/>
      <point x="234" y="315"/>
      <point x="241" y="305"/>
      <point x="241" y="287" type="curve" smooth="yes"/>
      <point x="241" y="271"/>
      <point x="238" y="237"/>
      <point x="234" y="219" type="curve" smooth="yes"/>
      <point x="221" y="140" type="line" smooth="yes"/>
      <point x="217" y="115"/>
      <point x="216" y="90"/>
      <point x="215" y="72" type="curve"/>
      <point x="212" y="72" type="line"/>
      <point x="201" y="131"/>
      <point x="190" y="183"/>
      <point x="185" y="211" type="curve" smooth="yes"/>
      <point x="162" y="332" type="line"/>
      <point x="147" y="332" type="line"/>
      <point x="113" y="166" type="line" smooth="yes"/>
      <point x="106" y="133"/>
      <point x="100" y="99"/>
      <point x="100" y="74" type="curve"/>
      <point x="98" y="74" type="line"/>
      <point x="96" y="103"/>
      <point x="89" y="155"/>
      <point x="84" y="185" type="curve" smooth="yes"/>
      <point x="85" y="203" type="line" smooth="yes"/>
      <point x="80" y="229"/>
      <point x="73" y="259"/>
      <point x="73" y="287" type="curve" smooth="yes"/>
      <point x="73" y="303"/>
      <point x="81" y="315"/>
      <point x="94" y="315" type="curve" smooth="yes"/>
      <point x="109" y="315" type="line"/>
      <point x="109" y="337" type="line"/>
      <point x="5" y="337" type="line"/>
      <point x="5" y="315" type="line"/>
      <point x="38" y="315"/>
      <point x="31" y="306"/>
      <point x="40" y="261" type="curve" smooth="yes"/>
    </contour>
  </outline>
</glyph>
<glyph name="uni02BA" format="2">
  <advance width="204"/>
  <unicode hex="02BA"/>
  <outline>
    <contour>
      <point x="129" y="498" type="curve"/>
      <point x="151" y="498" type="line"/>
      <point x="172" y="581"/>
      <point x="180" y="631"/>
      <point x="188" y="703" type="curve"/>
      <point x="182" y="714" type="line"/>
      <point x="145" y="714" type="line"/>
      <point x="145" y="644"/>
      <point x="138" y="585"/>
    </contour>
    <contour>
      <point x="18" y="498" type="curve"/>
      <point x="41" y="498" type="line"/>
      <point x="61" y="581"/>
      <point x="69" y="631"/>
      <point x="77" y="703" type="curve"/>
      <point x="71" y="714" type="line"/>
      <point x="33" y="714" type="line"/>
      <point x="34" y="644"/>
      <point x="26" y="585"/>
    </contour>
  </outline>
</glyph>
<glyph name="uni02C5" format="2">
  <advance width="162"/>
  <unicode hex="02C5"/>
  <outline>
    <contour>
      <point x="57" y="574" type="curve"/>
      <point x="103" y="574" type="line"/>
      <point x="129" y="681"/>
      <point x="143" y="736"/>
      <point x="165" y="776" type="curve"/>
      <point x="165" y="786" type="line"/>
      <point x="143" y="786" type="line"/>
      <point x="109" y="719"/>
      <point x="103" y="711"/>
      <point x="81" y="637" type="curve"/>
      <point x="62" y="711"/>
      <point x="58" y="719"/>
      <point x="19" y="786" type="curve"/>
      <point x="-1" y="786" type="line"/>
      <point x="-1" y="776" type="line"/>
      <point x="36" y="700"/>
      <point x="51" y="627"/>
    </contour>
  </outline>
</glyph>
<glyph name="uni02FC" format="2">
  <advance width="179"/>
  <unicode hex="02FC"/>
  <outline>
    <contour>
      <point x="40" y="0" type="line"/>
      <point x="139" y="0" type="line"/>
      <point x="139" y="266" type="line"/>
      <point x="108" y="266" type="line"/>
      <point x="108" y="53" type="line"/>
      <point x="40" y="53" type="line"/>
    </contour>
  </outline>
</glyph>
<glyph name="uni02FF" format="2">
  <advance width="335"/>
  <unicode hex="02FF"/>
  <outline>
    <contour>
      <point x="159" y="-240" type="curve"/>
      <point x="165" y="-240" type="line"/>
      <point x="165" y="-194" type="line"/>
      <point x="152" y="-173"/>
      <point x="133" y="-152"/>
      <point x="112" y="-135" type="curve"/>
      <point x="295" y="-135" type="line"/>
      <point x="295" y="-87" type="line"/>
      <point x="113" y="-87" type="line"/>
      <point x="134" y="-69"/>
      <point x="152" y="-49"/>
      <point x="165" y="-29" type="curve"/>
      <point x="165" y="18" type="line"/>
      <point x="159" y="18" type="line"/>
      <point x="121" y="-30"/>
      <point x="83" y="-58"/>
      <point x="40" y="-87" type="curve"/>
      <point x="40" y="-136" type="line"/>
      <point x="82" y="-164"/>
      <point x="122" y="-193"/>
    </contour>
  </outline>
</glyph>
<glyph name="righttackbelowcomb" format="2">
  <unicode hex="0319"/>
  <anchor x="0" y="0" name="_bottom"/>
  <anchor x="0" y="-212" name="bottom"/>
  <outline>
    <contour>
      <point x="-46" y="-212" type="line"/>
      <point x="-15" y="-212" type="line"/>
      <point x="-15" y="-152" type="line"/>
      <point x="46" y="-152" type="line"/>
      <point x="46" y="-99" type="line"/>
      <point x="-15" y="-99" type="line"/>
      <point x="-15" y="-39" type="line"/>
      <point x="-46" y="-39" type="line"/>
    </contour>
  </outline>
</glyph>
<glyph name="leftangleabovecomb" format="2">
  <unicode hex="031A"/>
  <anchor x="45" y="622" name="_topright"/>
  <outline>
    <contour>
      <point x="45" y="622" type="line"/>
      <point x="77" y="622" type="line"/>
      <point x="77" y="739" type="line"/>
      <point x="-77" y="739" type="line"/>
      <point x="-77" y="709" type="line"/>
      <point x="45" y="709" type="line"/>
    </contour>
  </outline>
</glyph>
<glyph name="horncomb" format="2">
  <unicode hex="031B"/>
  <anchor x="-17" y="536" name="_topright"/>
  <outline>
    <contour>
      <point x="-69" y="572" type="line"/>
      <point x="-6" y="597"/>
      <point x="34" y="637"/>
      <point x="34" y="726" type="curve" smooth="yes"/>
      <point x="34" y="752"/>
      <point x="21" y="770"/>
      <point x="4" y="770" type="curve" smooth="yes"/>
      <point x="-15" y="770"/>
      <point x="-26" y="755"/>
      <point x="-26" y="730" type="curve" smooth="yes"/>
      <point x="-26" y="707"/>
      <point x="-10" y="691"/>
      <point x="-10" y="672" type="curve" smooth="yes"/>
      <point x="-10" y="641"/>
      <point x="-14" y="626"/>
      <point x="-69" y="602" type="curve"/>
    </contour>
  </outline>
</glyph>
<glyph name="slashlongoverlaycomb" format="2">
  <unicode hex="0338"/>
  <anchor x="-16" y="343" name="_center"/>
  <outline>
    <contour>
      <point x="-107" y="-71" type="line"/>
      <point x="104" y="745" type="line"/>
      <point x="78" y="756" type="line"/>
      <point x="-135" y="-60" type="line"/>
    </contour>
  </outline>
</glyph>
<glyph name="squarebelowcomb" format="2">
  <unicode hex="033B"/>
  <anchor x="2" y="0" name="_bottom"/>
  <anchor x="2" y="-230" name="bottom"/>
  <outline>
    <contour>
      <point x="-110" y="-230" type="line"/>
      <point x="114" y="-230" type="line"/>
      <point x="114" y="-46" type="line"/>
      <point x="-110" y="-46" type="line"/>
    </contour>
    <contour>
      <point x="-80" y="-200" type="line"/>
      <point x="-80" y="-76" type="line"/>
      <point x="84" y="-76" type="line"/>
      <point x="84" y="-200" type="line"/>
    </contour>
  </outline>
</glyph>
<glyph name="seagullbelowcomb" format="2">
  <unicode hex="033C"/>
  <anchor x="2" y="0" name="_bottom"/>
  <anchor x="2" y="-183" name="bottom"/>
  <outline>
    <contour>
      <point x="-97" y="-183" type="curve"/>
      <point x="-80" y="-183" type="line"/>
      <point x="-72" y="-123"/>
      <point x="-66" y="-103"/>
      <point x="-44" y="-103" type="curve" smooth="yes"/>
      <point x="-23" y="-103"/>
      <point x="-19" y="-118"/>
      <point x="-9" y="-183" type="curve"/>
      <point x="9" y="-183" type="line"/>
      <point x="19" y="-122"/>
      <point x="27" y="-103"/>
      <point x="49" y="-103" type="curve" smooth="yes"/>
      <point x="69" y="-103"/>
      <point x="75" y="-120"/>
      <point x="83" y="-183" type="curve"/>
      <point x="98" y="-183" type="line"/>
      <point x="99" y="-119"/>
      <point x="85" y="-73"/>
      <point x="49" y="-73" type="curve" smooth="yes"/>
      <point x="26" y="-73"/>
      <point x="9" y="-83"/>
      <point x="0" y="-115" type="curve"/>
      <point x="-8" y="-83"/>
      <point x="-23" y="-73"/>
      <point x="-44" y="-73" type="curve" smooth="yes"/>
      <point x="-83" y="-73"/>
      <point x="-97" y="-118"/>
    </contour>
  </outline>
</glyph>
<glyph name="dbloverlinecomb" format="2">
  <unicode hex="033F"/>
  <anchor x="-2" y="536" name="_top"/>
  <anchor x="-2" y="924" name="top"/>
  <outline>
    <contour>
      <point x="-127" y="917" type="line"/>
      <point x="125" y="917" type="line"/>
      <point x="125" y="924" type="line"/>
      <point x="-127" y="924" type="line"/>
    </contour>
    <contour>
      <point x="-127" y="777" type="line"/>
      <point x="125" y="777" type="line"/>
      <point x="125" y="784" type="line"/>
      <point x="-127" y="784" type="line"/>
    </contour>
  </outline>
</glyph>
<glyph name="asteriskbelowcomb" format="2">
  <unicode hex="0359"/>
  <anchor x="2" y="0" name="_bottom"/>
  <anchor x="2" y="-240" name="bottom"/>
  <outline>
    <contour>
      <point x="-18" y="-240" type="line"/>
      <point x="20" y="-240" type="line"/>
      <point x="7" y="-151" type="line"/>
      <point x="57" y="-216" type="line"/>
      <point x="74" y="-159" type="line"/>
      <point x="10" y="-135" type="line"/>
      <point x="74" y="-111" type="line"/>
      <point x="57" y="-54" type="line"/>
      <point x="7" y="-118" type="line"/>
      <point x="20" y="-30" type="line"/>
      <point x="-18" y="-30" type="line"/>
      <point x="-6" y="-118" type="line"/>
      <point x="-54" y="-54" type="line"/>
      <point x="-72" y="-111" type="line"/>
      <point x="-9" y="-135" type="line"/>
      <point x="-72" y="-159" type="line"/>
      <point x="-54" y="-216" type="line"/>
      <point x="-6" y="-151" type="line"/>
    </contour>
  </outline>
</glyph>
<glyph name="uni0374" format="2">
  <advance width="105"/>
  <unicode hex="0374"/>
  <outline>
    <contour>
      <point x="32" y="559" type="line"/>
      <point x="45" y="559" type="line"/>
      <point x="61" y="615"/>
      <point x="90" y="678"/>
      <point x="91" y="706" type="curve"/>
      <point x="91" y="714" type="line"/>
      <point x="53" y="714" type="line"/>
      <point x="50" y="679"/>
      <point x="48" y="625"/>
      <point x="32" y="572" type="curve"/>
    </contour>
  </outline>
</glyph>
<glyph name="alpha" format="2">
  <advance width="348"/>
  <unicode hex="03B1"/>
  <anchor x="174" y="0" name="bottom"/>
  <anchor x="174" y="536" name="top"/>
  <outline>
    <contour>
      <point x="142" y="-10" type="curve" smooth="yes"/>
      <point x="213" y="-10"/>
      <point x="231" y="47"/>
      <point x="250" y="103" type="curve"/>
      <point x="255" y="103" type="line"/>
      <point x="254" y="42"/>
      <point x="298" y="0"/>
      <point x="326" y="0" type="curve" smooth="yes"/>
      <point x="339" y="0" type="line"/>
      <point x="339" y="17" type="line"/>
      <point x="340" y="17" type="line" smooth="yes"/>
      <point x="303" y="17"/>
      <point x="285" y="57"/>
      <point x="285" y="123" type="curve" smooth="yes"/>
      <point x="285" y="345" type="line"/>
      <point x="285" y="385"/>
      <point x="290" y="498"/>
      <point x="298" y="536" type="curve"/>
      <point x="277" y="536" type="line"/>
      <point x="272" y="522"/>
      <point x="264" y="477"/>
      <point x="262" y="437" type="curve"/>
      <point x="259" y="437" type="line"/>
      <point x="243" y="505"/>
      <point x="211" y="549"/>
      <point x="166" y="549" type="curve" smooth="yes"/>
      <point x="88" y="549"/>
      <point x="37" y="451"/>
      <point x="37" y="267" type="curve" smooth="yes"/>
      <point x="37" y="58"/>
      <point x="64" y="-10"/>
    </contour>
    <contour>
      <point x="145" y="15" type="curve" smooth="yes"/>
      <point x="87" y="15"/>
      <point x="65" y="74"/>
      <point x="65" y="264" type="curve" smooth="yes"/>
      <point x="65" y="418"/>
      <point x="95" y="524"/>
      <point x="170" y="524" type="curve" smooth="yes"/>
      <point x="204" y="524"/>
      <point x="250" y="475"/>
      <point x="257" y="339" type="curve"/>
      <point x="257" y="325" type="line" smooth="yes"/>
      <point x="257" y="152"/>
      <point x="223" y="15"/>
    </contour>
  </outline>
</glyph>
<glyph name="iota" format="2">
  <advance width="170"/>
  <unicode hex="03B9"/>
  <anchor x="85" y="0" name="bottom"/>
  <anchor x="85" y="536" name="top"/>
  <outline>
    <contour>
      <point x="148" y="-10" type="curve" smooth="yes"/>
      <point x="164" y="-10"/>
      <point x="175" y="-5"/>
      <point x="176" y="-5" type="curve"/>
      <point x="176" y="21" type="line"/>
      <point x="164" y="16"/>
      <point x="157" y="14"/>
      <point x="144" y="14" type="curve" smooth="yes"/>
      <point x="123" y="14"/>
      <point x="94" y="43"/>
      <point x="94" y="109" type="curve" smooth="yes"/>
      <point x="94" y="536" type="line"/>
      <point x="66" y="536" type="line"/>
      <point x="66" y="122" type="line" smooth="yes"/>
      <point x="66" y="30"/>
      <point x="103" y="-10"/>
    </contour>
  </outline>
</glyph>
<glyph name="lambda" format="2">
  <advance width="304"/>
  <unicode hex="03BB"/>
  <anchor x="153" y="0" name="bottom"/>
  <anchor x="153" y="770" name="top"/>
  <outline>
    <contour>
      <point x="9" y="0" type="line"/>
      <point x="37" y="0" type="line"/>
      <point x="138" y="297" type="line" smooth="yes"/>
      <point x="150" y="336"/>
      <point x="161" y="380"/>
      <point x="171" y="428" type="curve"/>
      <point x="174" y="428" type="line"/>
      <point x="176" y="376"/>
      <point x="215" y="108"/>
      <point x="229" y="64" type="curve" smooth="yes"/>
      <point x="245" y="33"/>
      <point x="255" y="0"/>
      <point x="310" y="0" type="curve" smooth="yes"/>
      <point x="305" y="0" type="line"/>
      <point x="305" y="17" type="line"/>
      <point x="301" y="17" type="line" smooth="yes"/>
      <point x="263" y="17"/>
      <point x="244" y="50"/>
      <point x="224" y="195" type="curve" smooth="yes"/>
      <point x="175" y="566" type="line" smooth="yes"/>
      <point x="155" y="724"/>
      <point x="116" y="770"/>
      <point x="70" y="770" type="curve" smooth="yes"/>
      <point x="28" y="770"/>
      <point x="22" y="734"/>
      <point x="22" y="705" type="curve" smooth="yes"/>
      <point x="22" y="698"/>
      <point x="21" y="680"/>
      <point x="28" y="674" type="curve"/>
      <point x="25" y="703"/>
      <point x="31" y="744"/>
      <point x="67" y="745" type="curve" smooth="yes"/>
      <point x="92" y="747"/>
      <point x="142" y="733"/>
      <point x="165" y="478" type="curve"/>
    </contour>
  </outline>
</glyph>
<glyph name="chi" format="2">
  <advance width="290"/>
  <unicode hex="03C7"/>
  <anchor x="146" y="-240" name="bottom"/>
  <anchor x="146" y="536" name="top"/>
  <anchor x="270" y="536" name="topright"/>
  <outline>
    <contour>
      <point x="-6" y="-240" type="line"/>
      <point x="22" y="-240" type="line"/>
      <point x="141" y="119" type="line"/>
      <point x="192" y="-145" type="line" smooth="yes"/>
      <point x="211" y="-234"/>
      <point x="232" y="-241"/>
      <point x="248" y="-241" type="curve" smooth="yes"/>
      <point x="273" y="-241"/>
      <point x="288" y="-228"/>
      <point x="302" y="-220" type="curve"/>
      <point x="297" y="-193" type="line"/>
      <point x="281" y="-207"/>
      <point x="266" y="-216"/>
      <point x="251" y="-216" type="curve" smooth="yes"/>
      <point x="245" y="-216"/>
      <point x="235" y="-231"/>
      <point x="215" y="-136" type="curve" smooth="yes"/>
      <point x="152" y="161" type="line"/>
      <point x="272" y="536" type="line"/>
      <point x="243" y="536" type="line"/>
      <point x="141" y="207" type="line"/>
      <point x="106" y="394" type="line" smooth="yes"/>
      <point x="85" y="492"/>
      <point x="76" y="537"/>
      <point x="38" y="537" type="curve" smooth="yes"/>
      <point x="17" y="537"/>
      <point x="0" y="521"/>
      <point x="-6" y="508" type="curve"/>
      <point x="5" y="487" type="line"/>
      <point x="17" y="501"/>
      <point x="29" y="512"/>
      <point x="42" y="512" type="curve" smooth="yes"/>
      <point x="58" y="512"/>
      <point x="63" y="483"/>
      <point x="80" y="405" type="curve" smooth="yes"/>
      <point x="128" y="166" type="line"/>
    </contour>
  </outline>
</glyph>
<glyph name="uni03D2" format="2">
  <advance width="352"/>
  <unicode hex="03D2"/>
  <anchor x="176" y="714" name="top"/>
  <outline>
    <contour>
      <point x="112" y="0" type="line"/>
      <point x="254" y="0" type="line"/>
      <point x="254" y="20" type="line"/>
      <point x="279" y="20" type="line" smooth="yes"/>
      <point x="199" y="20"/>
      <point x="198" y="24"/>
      <point x="198" y="88" type="curve" smooth="yes"/>
      <point x="198" y="210" type="line" smooth="yes"/>
      <point x="198" y="294"/>
      <point x="221" y="448"/>
      <point x="239" y="514" type="curve" smooth="yes"/>
      <point x="270" y="661"/>
      <point x="307" y="696"/>
      <point x="319" y="696" type="curve" smooth="yes"/>
      <point x="345" y="696"/>
      <point x="340" y="657"/>
      <point x="340" y="598" type="curve"/>
      <point x="350" y="596"/>
      <point x="361" y="616"/>
      <point x="361" y="652" type="curve" smooth="yes"/>
      <point x="361" y="691"/>
      <point x="350" y="721"/>
      <point x="318" y="721" type="curve" smooth="yes"/>
      <point x="289" y="721"/>
      <point x="256" y="662"/>
      <point x="238" y="587" type="curve" smooth="yes"/>
      <point x="220" y="521"/>
      <point x="193" y="408"/>
      <point x="185" y="298" type="curve"/>
      <point x="161" y="403"/>
      <point x="114" y="504"/>
      <point x="95" y="578" type="curve" smooth="yes"/>
      <point x="48" y="715"/>
      <point x="33" y="714"/>
      <point x="-19" y="714" type="curve" smooth="yes"/>
      <point x="-5" y="714" type="line"/>
      <point x="-5" y="690" type="line"/>
      <point x="-6" y="690" type="line" smooth="yes"/>
      <point x="13" y="690"/>
      <point x="30" y="687"/>
      <point x="63" y="588" type="curve" smooth="yes"/>
      <point x="103" y="448"/>
      <point x="170" y="329"/>
      <point x="170" y="197" type="curve" smooth="yes"/>
      <point x="170" y="88" type="line" smooth="yes"/>
      <point x="170" y="24"/>
      <point x="164" y="20"/>
      <point x="87" y="20" type="curve" smooth="yes"/>
      <point x="112" y="20" type="line"/>
    </contour>
  </outline>
</glyph>
<glyph name="uni03D9" format="2">
  <advance width="329"/>
  <unicode hex="03D9"/>
  <anchor x="164" y="-240" name="bottom"/>
  <anchor x="164" y="536" name="top"/>
  <outline>
    <contour>
      <point x="151" y="-240" type="line"/>
      <point x="179" y="-240" type="line"/>
      <point x="179" y="-8" type="line"/>
      <point x="254" y="-1"/>
      <point x="293" y="80"/>
      <point x="293" y="267" type="curve" smooth="yes"/>
      <point x="293" y="442"/>
      <point x="259" y="542"/>
      <point x="165" y="542" type="curve" smooth="yes"/>
      <point x="72" y="542"/>
      <point x="37" y="449"/>
      <point x="37" y="267" type="curve" smooth="yes"/>
      <point x="37" y="84"/>
      <point x="77" y="-1"/>
      <point x="151" y="-9" type="curve"/>
    </contour>
    <contour>
      <point x="167" y="15" type="curve" smooth="yes"/>
      <point x="98" y="15"/>
      <point x="64" y="98"/>
      <point x="65" y="267" type="curve" smooth="yes"/>
      <point x="65" y="434"/>
      <point x="87" y="517"/>
      <point x="162" y="517" type="curve" smooth="yes"/>
      <point x="244" y="517"/>
      <point x="265" y="431"/>
      <point x="265" y="267" type="curve" smooth="yes"/>
      <point x="265" y="95"/>
      <point x="240" y="15"/>
    </contour>
  </outline>
</glyph>
<glyph name="uni03FA" format="2">
  <advance width="555"/>
  <unicode hex="03FA"/>
  <anchor x="278" y="0" name="bottom"/>
  <anchor x="278" y="714" name="top"/>
  <outline>
    <contour>
      <point x="27" y="0" type="line"/>
      <point x="169" y="0" type="line"/>
      <point x="169" y="20" type="line"/>
      <point x="165" y="20" type="line" smooth="yes"/>
      <point x="112" y="20"/>
      <point x="107" y="31"/>
      <point x="107" y="108" type="curve" smooth="yes"/>
      <point x="107" y="677" type="line"/>
      <point x="272" y="299" type="line"/>
      <point x="292" y="299" type="line"/>
      <point x="442" y="690" type="line"/>
      <point x="442" y="108" type="line" smooth="yes"/>
      <point x="442" y="31"/>
      <point x="436" y="20"/>
      <point x="386" y="20" type="curve" smooth="yes"/>
      <point x="389" y="20" type="line"/>
      <point x="389" y="0" type="line"/>
      <point x="528" y="0" type="line"/>
      <point x="528" y="20" type="line"/>
      <point x="525" y="20" type="line" smooth="yes"/>
      <point x="476" y="20"/>
      <point x="470" y="31"/>
      <point x="470" y="108" type="curve" smooth="yes"/>
      <point x="470" y="607" type="line" smooth="yes"/>
      <point x="470" y="683"/>
      <point x="476" y="694"/>
      <point x="526" y="694" type="curve" smooth="yes"/>
      <point x="528" y="694" type="line"/>
      <point x="528" y="714" type="line"/>
      <point x="425" y="714" type="line"/>
      <point x="284" y="338" type="line"/>
      <point x="118" y="714" type="line"/>
      <point x="27" y="714" type="line"/>
      <point x="27" y="694" type="line"/>
      <point x="29" y="694" type="line" smooth="yes"/>
      <point x="77" y="694"/>
      <point x="84" y="683"/>
      <point x="84" y="607" type="curve" smooth="yes"/>
      <point x="84" y="108" type="line" smooth="yes"/>
      <point x="84" y="31"/>
      <point x="78" y="20"/>
      <point x="29" y="20" type="curve" smooth="yes"/>
      <point x="27" y="20" type="line"/>
    </contour>
  </outline>
</glyph>
<glyph name="afii10044" format="2">
  <advance width="406"/>
  <unicode hex="042A"/>
  <anchor x="204" y="0" name="bottom"/>
  <anchor x="204" y="714" name="top"/>
  <outline>
    <contour>
      <point x="84" y="0" type="line"/>
      <point x="234" y="0" type="line" smooth="yes"/>
      <point x="349" y="0"/>
      <point x="375" y="80"/>
      <point x="375" y="194" type="curve" smooth="yes"/>
      <point x="375" y="328"/>
      <point x="328" y="385"/>
      <point x="196" y="385" type="curve" smooth="yes"/>
      <point x="181" y="385" type="line"/>
      <point x="181" y="607" type="line" smooth="yes"/>
      <point x="181" y="685"/>
      <point x="184" y="694"/>
      <point x="238" y="694" type="curve" smooth="yes"/>
      <point x="227" y="694" type="line"/>
      <point x="227" y="714" type="line"/>
      <point x="20" y="714" type="line"/>
      <point x="17" y="567" type="line"/>
      <point x="37" y="567" type="line"/>
      <point x="39" y="629" type="line" smooth="yes"/>
      <point x="40" y="676"/>
      <point x="45" y="689"/>
      <point x="102" y="689" type="curve" smooth="yes"/>
      <point x="153" y="689" type="line"/>
      <point x="153" y="108" type="line" smooth="yes"/>
      <point x="153" y="31"/>
      <point x="149" y="20"/>
      <point x="97" y="20" type="curve" smooth="yes"/>
      <point x="84" y="20" type="line"/>
    </contour>
    <contour>
      <point x="181" y="25" type="line"/>
      <point x="181" y="360" type="line"/>
      <point x="200" y="360" type="line" smooth="yes"/>
      <point x="311" y="360"/>
      <point x="347" y="311"/>
      <point x="347" y="194" type="curve" smooth="yes"/>
      <point x="347" y="100"/>
      <point x="330" y="25"/>
      <point x="231" y="25" type="curve" smooth="yes"/>
    </contour>
  </outline>
</glyph>
<glyph name="afii10066" format="2">
  <advance width="329"/>
  <unicode hex="0431"/>
  <anchor x="164" y="0" name="bottom"/>
  <anchor x="164" y="759" name="top"/>
  <outline>
    <contour>
      <point x="168" y="-10" type="curve" smooth="yes"/>
      <point x="249" y="-10"/>
      <point x="292" y="72"/>
      <point x="292" y="257" type="curve" smooth="yes"/>
      <point x="292" y="443"/>
      <point x="254" y="521"/>
      <point x="166" y="521" type="curve" smooth="yes"/>
      <point x="112" y="521"/>
      <point x="79" y="490"/>
      <point x="64" y="436" type="curve"/>
      <point x="63" y="436" type="line"/>
      <point x="70" y="606"/>
      <point x="105" y="645"/>
      <point x="169" y="666" type="curve" smooth="yes"/>
      <point x="229" y="687"/>
      <point x="284" y="696"/>
      <point x="284" y="759" type="curve"/>
      <point x="263" y="759" type="line"/>
      <point x="263" y="708"/>
      <point x="195" y="711"/>
      <point x="162" y="694" type="curve" smooth="yes"/>
      <point x="62" y="651"/>
      <point x="37" y="606"/>
      <point x="37" y="296" type="curve" smooth="yes"/>
      <point x="37" y="58"/>
      <point x="83" y="-10"/>
    </contour>
    <contour>
      <point x="168" y="15" type="curve" smooth="yes"/>
      <point x="106" y="15"/>
      <point x="65" y="87"/>
      <point x="65" y="263" type="curve" smooth="yes"/>
      <point x="65" y="412"/>
      <point x="95" y="496"/>
      <point x="161" y="496" type="curve" smooth="yes"/>
      <point x="239" y="496"/>
      <point x="264" y="417"/>
      <point x="264" y="255" type="curve" smooth="yes"/>
      <point x="264" y="90"/>
      <point x="231" y="15"/>
    </contour>
  </outline>
</glyph>
<glyph name="afii10077" format="2">
  <advance width="361"/>
  <unicode hex="043B"/>
  <anchor x="181" y="0" name="bottom"/>
  <anchor x="181" y="536" name="top"/>
  <outline>
    <contour>
      <point x="46" y="-7" type="curve" smooth="yes"/>
      <point x="91" y="-7"/>
      <point x="114" y="28"/>
      <point x="132" y="163" type="curve" smooth="yes"/>
      <point x="147" y="272"/>
      <point x="170" y="437"/>
      <point x="164" y="511" type="curve"/>
      <point x="254" y="511" type="line"/>
      <point x="254" y="97" type="line" smooth="yes"/>
      <point x="254" y="27"/>
      <point x="247" y="20"/>
      <point x="193" y="20" type="curve" smooth="yes"/>
      <point x="197" y="20" type="line"/>
      <point x="197" y="0" type="line"/>
      <point x="344" y="0" type="line"/>
      <point x="344" y="20" type="line"/>
      <point x="342" y="20" type="line" smooth="yes"/>
      <point x="288" y="20"/>
      <point x="282" y="27"/>
      <point x="282" y="97" type="curve" smooth="yes"/>
      <point x="282" y="450" type="line" smooth="yes"/>
      <point x="282" y="511"/>
      <point x="296" y="516"/>
      <point x="348" y="516" type="curve" smooth="yes"/>
      <point x="344" y="516" type="line"/>
      <point x="344" y="536" type="line"/>
      <point x="79" y="536" type="line"/>
      <point x="79" y="516" type="line"/>
      <point x="75" y="516" type="line" smooth="yes"/>
      <point x="120" y="516"/>
      <point x="142" y="511"/>
      <point x="142" y="467" type="curve" smooth="yes"/>
      <point x="142" y="432"/>
      <point x="123" y="275"/>
      <point x="114" y="218" type="curve" smooth="yes"/>
      <point x="82" y="19"/>
      <point x="64" y="17"/>
      <point x="45" y="17" type="curve" smooth="yes"/>
      <point x="25" y="17"/>
      <point x="22" y="25"/>
      <point x="22" y="55" type="curve"/>
      <point x="7" y="55"/>
      <point x="2" y="42"/>
      <point x="2" y="32" type="curve" smooth="yes"/>
      <point x="2" y="4"/>
      <point x="23" y="-7"/>
    </contour>
  </outline>
</glyph>
<glyph name="afii10093" format="2">
  <advance width="461"/>
  <unicode hex="044B"/>
  <anchor x="231" y="0" name="bottom"/>
  <anchor x="231" y="536" name="top"/>
  <outline>
    <contour>
      <point x="14" y="0" type="line"/>
      <point x="149" y="0" type="line" smooth="yes"/>
      <point x="223" y="0"/>
      <point x="279" y="40"/>
      <point x="279" y="150" type="curve" smooth="yes"/>
      <point x="279" y="264"/>
      <point x="217" y="285"/>
      <point x="129" y="285" type="curve" smooth="yes"/>
      <point x="108" y="285" type="line"/>
      <point x="108" y="439" type="line" smooth="yes"/>
      <point x="108" y="511"/>
      <point x="112" y="516"/>
      <point x="173" y="516" type="curve" smooth="yes"/>
      <point x="169" y="516" type="line"/>
      <point x="169" y="536" type="line"/>
      <point x="14" y="536" type="line"/>
      <point x="14" y="516" type="line"/>
      <point x="13" y="516" type="line" smooth="yes"/>
      <point x="74" y="516"/>
      <point x="80" y="511"/>
      <point x="80" y="439" type="curve" smooth="yes"/>
      <point x="80" y="97" type="line" smooth="yes"/>
      <point x="80" y="27"/>
      <point x="72" y="20"/>
      <point x="18" y="20" type="curve" smooth="yes"/>
      <point x="14" y="20" type="line"/>
    </contour>
    <contour>
      <point x="108" y="25" type="line"/>
      <point x="108" y="260" type="line"/>
      <point x="148" y="260" type="line" smooth="yes"/>
      <point x="223" y="260"/>
      <point x="251" y="234"/>
      <point x="251" y="150" type="curve" smooth="yes"/>
      <point x="251" y="62"/>
      <point x="218" y="25"/>
      <point x="169" y="25" type="curve" smooth="yes"/>
    </contour>
    <contour>
      <point x="297" y="0" type="line"/>
      <point x="437" y="0" type="line"/>
      <point x="437" y="20" type="line"/>
      <point x="440" y="20" type="line" smooth="yes"/>
      <point x="389" y="20"/>
      <point x="381" y="27"/>
      <point x="381" y="97" type="curve" smooth="yes"/>
      <point x="381" y="439" type="line" smooth="yes"/>
      <point x="381" y="508"/>
      <point x="388" y="516"/>
      <point x="444" y="516" type="curve" smooth="yes"/>
      <point x="437" y="516" type="line"/>
      <point x="437" y="536" type="line"/>
      <point x="297" y="536" type="line"/>
      <point x="297" y="516" type="line"/>
      <point x="298" y="516" type="line" smooth="yes"/>
      <point x="347" y="516"/>
      <point x="353" y="508"/>
      <point x="353" y="439" type="curve" smooth="yes"/>
      <point x="353" y="97" type="line" smooth="yes"/>
      <point x="353" y="27"/>
      <point x="346" y="20"/>
      <point x="292" y="20" type="curve" smooth="yes"/>
      <point x="297" y="20" type="line"/>
    </contour>
  </outline>
</glyph>
<glyph name="afii10096" format="2">
  <advance width="489"/>
  <unicode hex="044E"/>
  <anchor x="245" y="0" name="bottom"/>
  <anchor x="245" y="536" name="top"/>
  <outline>
    <contour>
      <point x="336" y="-10" type="curve" smooth="yes"/>
      <point x="413" y="-10"/>
      <point x="454" y="69"/>
      <point x="454" y="267" type="curve" smooth="yes"/>
      <point x="454" y="442"/>
      <point x="424" y="542"/>
      <point x="335" y="542" type="curve" smooth="yes"/>
      <point x="252" y="542"/>
      <point x="218" y="456"/>
      <point x="216" y="286" type="curve"/>
      <point x="108" y="286" type="line"/>
      <point x="108" y="439" type="line" smooth="yes"/>
      <point x="108" y="509"/>
      <point x="113" y="516"/>
      <point x="171" y="516" type="curve" smooth="yes"/>
      <point x="168" y="516" type="line"/>
      <point x="168" y="536" type="line"/>
      <point x="14" y="536" type="line"/>
      <point x="14" y="516" type="line"/>
      <point x="15" y="516" type="line" smooth="yes"/>
      <point x="73" y="516"/>
      <point x="80" y="509"/>
      <point x="80" y="439" type="curve" smooth="yes"/>
      <point x="80" y="97" type="line" smooth="yes"/>
      <point x="80" y="26"/>
      <point x="73" y="20"/>
      <point x="17" y="20" type="curve" smooth="yes"/>
      <point x="14" y="20" type="line"/>
      <point x="14" y="0" type="line"/>
      <point x="168" y="0" type="line"/>
      <point x="168" y="20" type="line"/>
      <point x="175" y="20" type="line" smooth="yes"/>
      <point x="113" y="20"/>
      <point x="108" y="26"/>
      <point x="108" y="97" type="curve" smooth="yes"/>
      <point x="108" y="261" type="line"/>
      <point x="216" y="261" type="line"/>
      <point x="217" y="71"/>
      <point x="259" y="-10"/>
    </contour>
    <contour>
      <point x="336" y="15" type="curve" smooth="yes"/>
      <point x="274" y="15"/>
      <point x="244" y="98"/>
      <point x="244" y="267" type="curve" smooth="yes"/>
      <point x="245" y="434"/>
      <point x="265" y="517"/>
      <point x="333" y="517" type="curve" smooth="yes"/>
      <point x="408" y="517"/>
      <point x="426" y="431"/>
      <point x="426" y="267" type="curve" smooth="yes"/>
      <point x="426" y="95"/>
      <point x="403" y="15"/>
    </contour>
  </outline>
</glyph>
<glyph name="afii10099" format="2">
  <advance width="349"/>
  <unicode hex="0452"/>
  <anchor x="174" y="-240" name="bottom"/>
  <anchor x="174" y="760" name="top"/>
  <outline>
    <contour>
      <point x="210" y="-240" type="line"/>
      <point x="213" y="-240" type="line" smooth="yes"/>
      <point x="258" y="-240"/>
      <point x="293" y="-217"/>
      <point x="293" y="-28" type="curve" smooth="yes"/>
      <point x="293" y="361" type="line" smooth="yes"/>
      <point x="293" y="473"/>
      <point x="251" y="537"/>
      <point x="189" y="537" type="curve" smooth="yes"/>
      <point x="146" y="537"/>
      <point x="113" y="501"/>
      <point x="95" y="457" type="curve"/>
      <point x="93" y="457" type="line"/>
      <point x="95" y="479"/>
      <point x="96" y="490"/>
      <point x="96" y="499" type="curve" smooth="yes"/>
      <point x="96" y="620" type="line"/>
      <point x="208" y="620" type="line"/>
      <point x="208" y="645" type="line"/>
      <point x="96" y="645" type="line"/>
      <point x="96" y="760" type="line"/>
      <point x="12" y="760" type="line"/>
      <point x="12" y="740" type="line"/>
      <point x="17" y="740" type="line" smooth="yes"/>
      <point x="61" y="740"/>
      <point x="68" y="728"/>
      <point x="68" y="665" type="curve" smooth="yes"/>
      <point x="68" y="645" type="line"/>
      <point x="11" y="645" type="line"/>
      <point x="11" y="620" type="line"/>
      <point x="68" y="620" type="line"/>
      <point x="68" y="97" type="line" smooth="yes"/>
      <point x="68" y="27"/>
      <point x="61" y="20"/>
      <point x="6" y="20" type="curve" smooth="yes"/>
      <point x="9" y="20" type="line"/>
      <point x="9" y="0" type="line"/>
      <point x="150" y="0" type="line"/>
      <point x="150" y="20" type="line"/>
      <point x="156" y="20" type="line" smooth="yes"/>
      <point x="103" y="20"/>
      <point x="96" y="27"/>
      <point x="96" y="97" type="curve" smooth="yes"/>
      <point x="96" y="328" type="line" smooth="yes"/>
      <point x="96" y="453"/>
      <point x="120" y="512"/>
      <point x="179" y="512" type="curve" smooth="yes"/>
      <point x="247" y="512"/>
      <point x="265" y="453"/>
      <point x="265" y="362" type="curve" smooth="yes"/>
      <point x="265" y="-28" type="line" smooth="yes"/>
      <point x="265" y="-175"/>
      <point x="248" y="-215"/>
      <point x="211" y="-215" type="curve" smooth="yes"/>
      <point x="210" y="-215" type="line"/>
    </contour>
  </outline>
</glyph>
<glyph name="afii10193" format="2">
  <advance width="378"/>
  <unicode hex="045F"/>
  <anchor x="189" y="-210" name="bottom"/>
  <anchor x="189" y="536" name="top"/>
  <outline>
    <contour>
      <point x="179" y="-210" type="curve"/>
      <point x="201" y="-210" type="line"/>
      <point x="201" y="3"/>
      <point x="195" y="0"/>
      <point x="331" y="0" type="curve" smooth="yes"/>
      <point x="362" y="0" type="line"/>
      <point x="362" y="17" type="line"/>
      <point x="347" y="17" type="line" smooth="yes"/>
      <point x="299" y="17"/>
      <point x="298" y="24"/>
      <point x="298" y="93" type="curve" smooth="yes"/>
      <point x="298" y="439" type="line" smooth="yes"/>
      <point x="298" y="509"/>
      <point x="303" y="516"/>
      <point x="367" y="516" type="curve" smooth="yes"/>
      <point x="362" y="516" type="line"/>
      <point x="362" y="536" type="line"/>
      <point x="208" y="536" type="line"/>
      <point x="208" y="516" type="line"/>
      <point x="208" y="516" type="line" smooth="yes"/>
      <point x="264" y="516"/>
      <point x="270" y="509"/>
      <point x="270" y="439" type="curve" smooth="yes"/>
      <point x="270" y="25" type="line"/>
      <point x="108" y="25" type="line"/>
      <point x="108" y="439" type="line" smooth="yes"/>
      <point x="108" y="511"/>
      <point x="111" y="516"/>
      <point x="179" y="516" type="curve" smooth="yes"/>
      <point x="168" y="516" type="line"/>
      <point x="168" y="536" type="line"/>
      <point x="14" y="536" type="line"/>
      <point x="14" y="516" type="line"/>
      <point x="17" y="516" type="line" smooth="yes"/>
      <point x="72" y="516"/>
      <point x="80" y="511"/>
      <point x="80" y="439" type="curve" smooth="yes"/>
      <point x="80" y="97" type="line" smooth="yes"/>
      <point x="80" y="27"/>
      <point x="73" y="20"/>
      <point x="17" y="20" type="curve" smooth="yes"/>
      <point x="14" y="20" type="line"/>
      <point x="14" y="0" type="line"/>
      <point x="54" y="0" type="line" smooth="yes"/>
      <point x="184" y="0"/>
      <point x="179" y="3"/>
    </contour>
  </outline>
</glyph>
<glyph name="uni0467" format="2">
  <advance width="321"/>
  <unicode hex="0467"/>
  <anchor x="160" y="0" name="bottom"/>
  <anchor x="160" y="536" name="top"/>
  <outline>
    <contour>
      <point x="1" y="0" type="line"/>
      <point x="82" y="0" type="line"/>
      <point x="82" y="20" type="line"/>
      <point x="58" y="22"/>
      <point x="50" y="28"/>
      <point x="50" y="43" type="curve" smooth="yes"/>
      <point x="50" y="57"/>
      <point x="66" y="106"/>
      <point x="101" y="224" type="curve" smooth="yes"/>
      <point x="104" y="264" type="line"/>
      <point x="140" y="264" type="line"/>
      <point x="140" y="0" type="line"/>
      <point x="170" y="0" type="line"/>
      <point x="170" y="264" type="line"/>
      <point x="207" y="264" type="line"/>
      <point x="226" y="150" type="line" smooth="yes"/>
      <point x="236" y="110"/>
      <point x="250" y="57"/>
      <point x="250" y="39" type="curve" smooth="yes"/>
      <point x="250" y="27"/>
      <point x="240" y="22"/>
      <point x="229" y="20" type="curve"/>
      <point x="229" y="0" type="line"/>
      <point x="319" y="0" type="line"/>
      <point x="319" y="20" type="line"/>
      <point x="286" y="22"/>
      <point x="282" y="34"/>
      <point x="266" y="92" type="curve" smooth="yes"/>
      <point x="181" y="536" type="line"/>
      <point x="141" y="536" type="line"/>
      <point x="29" y="65" type="line" smooth="yes"/>
      <point x="17" y="20"/>
      <point x="0" y="20"/>
      <point x="-7" y="20" type="curve" smooth="yes"/>
      <point x="1" y="20" type="line"/>
    </contour>
    <contour>
      <point x="109" y="289" type="line"/>
      <point x="102" y="283" type="line" smooth="yes"/>
      <point x="137" y="412"/>
      <point x="159" y="498"/>
      <point x="160" y="523" type="curve"/>
      <point x="167" y="477"/>
      <point x="196" y="354"/>
      <point x="207" y="294" type="curve" smooth="yes"/>
      <point x="202" y="289" type="line"/>
    </contour>
  </outline>
</glyph>
<glyph name="uni046D" format="2">
  <advance width="498"/>
  <unicode hex="046D"/>
  <anchor x="249" y="0" name="bottom"/>
  <anchor x="249" y="536" name="top"/>
  <outline>
    <contour>
      <point x="12" y="0" type="line"/>
      <point x="106" y="0" type="line"/>
      <point x="106" y="253" type="line"/>
      <point x="220" y="253" type="line"/>
      <point x="211" y="243"/>
      <point x="205" y="229"/>
      <point x="202" y="213" type="curve" smooth="yes"/>
      <point x="182" y="123" type="line" smooth="yes"/>
      <point x="166" y="44"/>
      <point x="152" y="17"/>
      <point x="125" y="17" type="curve" smooth="yes"/>
      <point x="124" y="17" type="line"/>
      <point x="124" y="0" type="line"/>
      <point x="125" y="0" type="line" smooth="yes"/>
      <point x="181" y="0"/>
      <point x="191" y="27"/>
      <point x="205" y="101" type="curve" smooth="yes"/>
      <point x="228" y="201" type="line" smooth="yes"/>
      <point x="232" y="238"/>
      <point x="250" y="252"/>
      <point x="300" y="252" type="curve"/>
      <point x="300" y="97" type="line" smooth="yes"/>
      <point x="300" y="27"/>
      <point x="287" y="20"/>
      <point x="243" y="20" type="curve" smooth="yes"/>
      <point x="259" y="20" type="line"/>
      <point x="259" y="0" type="line"/>
      <point x="369" y="0" type="line"/>
      <point x="369" y="20" type="line"/>
      <point x="391" y="20" type="line" smooth="yes"/>
      <point x="340" y="20"/>
      <point x="328" y="27"/>
      <point x="328" y="97" type="curve" smooth="yes"/>
      <point x="328" y="252" type="line"/>
      <point x="379" y="252"/>
      <point x="394" y="245"/>
      <point x="403" y="192" type="curve" smooth="yes"/>
      <point x="423" y="102" type="line" smooth="yes"/>
      <point x="437" y="21"/>
      <point x="451" y="0"/>
      <point x="501" y="0" type="curve" smooth="yes"/>
      <point x="500" y="0" type="line"/>
      <point x="500" y="17" type="line"/>
      <point x="502" y="17" type="line" smooth="yes"/>
      <point x="473" y="17"/>
      <point x="459" y="54"/>
      <point x="445" y="123" type="curve" smooth="yes"/>
      <point x="425" y="213" type="line" smooth="yes"/>
      <point x="417" y="259"/>
      <point x="396" y="276"/>
      <point x="333" y="278" type="curve"/>
      <point x="449" y="512" type="line"/>
      <point x="449" y="536" type="line"/>
      <point x="180" y="536" type="line"/>
      <point x="180" y="512" type="line"/>
      <point x="284" y="278" type="line"/>
      <point x="106" y="278" type="line"/>
      <point x="106" y="439" type="line" smooth="yes"/>
      <point x="106" y="509"/>
      <point x="112" y="516"/>
      <point x="169" y="516" type="curve" smooth="yes"/>
      <point x="163" y="516" type="line"/>
      <point x="163" y="536" type="line"/>
      <point x="12" y="536" type="line"/>
      <point x="12" y="516" type="line"/>
      <point x="15" y="516" type="line" smooth="yes"/>
      <point x="71" y="516"/>
      <point x="78" y="509"/>
      <point x="78" y="439" type="curve" smooth="yes"/>
      <point x="78" y="97" type="line" smooth="yes"/>
      <point x="78" y="26"/>
      <point x="70" y="20"/>
      <point x="19" y="20" type="curve" smooth="yes"/>
      <point x="12" y="20" type="line"/>
    </contour>
    <contour>
      <point x="313" y="281" type="line"/>
      <point x="215" y="506" type="line"/>
      <point x="420" y="506" type="line"/>
      <point x="314" y="281" type="line"/>
    </contour>
  </outline>
</glyph>
<glyph name="uni0481" format="2">
  <advance width="281"/>
  <unicode hex="0481"/>
  <anchor x="141" y="-239" name="bottom"/>
  <anchor x="141" y="536" name="top"/>
  <outline>
    <contour>
      <point x="187" y="-239" type="line"/>
      <point x="215" y="-239" type="line"/>
      <point x="215" y="36" type="line"/>
      <point x="215" y="36" type="line"/>
      <point x="210" y="25"/>
      <point x="190" y="15"/>
      <point x="166" y="15" type="curve" smooth="yes"/>
      <point x="91" y="16"/>
      <point x="65" y="75"/>
      <point x="65" y="264" type="curve" smooth="yes"/>
      <point x="65" y="469"/>
      <point x="102" y="517"/>
      <point x="161" y="517" type="curve" smooth="yes"/>
      <point x="215" y="517"/>
      <point x="227" y="492"/>
      <point x="227" y="406" type="curve"/>
      <point x="237" y="405"/>
      <point x="252" y="412"/>
      <point x="252" y="440" type="curve" smooth="yes"/>
      <point x="252" y="498"/>
      <point x="224" y="542"/>
      <point x="159" y="542" type="curve" smooth="yes"/>
      <point x="81" y="542"/>
      <point x="37" y="482"/>
      <point x="37" y="263" type="curve" smooth="yes"/>
      <point x="37" y="40"/>
      <point x="89" y="-10"/>
      <point x="166" y="-10" type="curve" smooth="yes"/>
      <point x="187" y="-10" type="line"/>
    </contour>
  </outline>
</glyph>
<glyph name="uni048D" format="2">
  <advance width="348"/>
  <unicode hex="048D"/>
  <anchor x="174" y="0" name="bottom"/>
  <anchor x="174" y="644" name="top"/>
  <outline>
    <contour>
      <point x="16" y="0" type="line"/>
      <point x="175" y="0" type="line" smooth="yes"/>
      <point x="246" y="0"/>
      <point x="308" y="48"/>
      <point x="308" y="141" type="curve" smooth="yes"/>
      <point x="308" y="271"/>
      <point x="223" y="290"/>
      <point x="169" y="290" type="curve" smooth="yes"/>
      <point x="105" y="290" type="line"/>
      <point x="105" y="468" type="line"/>
      <point x="193" y="468" type="line"/>
      <point x="193" y="493" type="line"/>
      <point x="105" y="493" type="line"/>
      <point x="105" y="644" type="line"/>
      <point x="77" y="644" type="line"/>
      <point x="77" y="493" type="line"/>
      <point x="19" y="493" type="line"/>
      <point x="19" y="468" type="line"/>
      <point x="77" y="468" type="line"/>
      <point x="77" y="97" type="line" smooth="yes"/>
      <point x="77" y="27"/>
      <point x="69" y="20"/>
      <point x="17" y="20" type="curve" smooth="yes"/>
      <point x="16" y="20" type="line"/>
    </contour>
    <contour>
      <point x="105" y="25" type="line"/>
      <point x="105" y="265" type="line"/>
      <point x="171" y="265" type="line" smooth="yes"/>
      <point x="235" y="265"/>
      <point x="280" y="237"/>
      <point x="280" y="141" type="curve" smooth="yes"/>
      <point x="280" y="69"/>
      <point x="238" y="25"/>
      <point x="193" y="25" type="curve" smooth="yes"/>
    </contour>
  </outline>
</glyph>
<glyph name="uni0492" format="2">
  <advance width="321"/>
  <unicode hex="0492"/>
  <anchor x="160" y="0" name="bottom"/>
  <anchor x="160" y="714" name="top"/>
  <outline>
    <contour>
      <point x="27" y="0" type="line"/>
      <point x="181" y="0" type="line"/>
      <point x="181" y="20" type="line"/>
      <point x="166" y="20" type="line" smooth="yes"/>
      <point x="116" y="20"/>
      <point x="110" y="31"/>
      <point x="110" y="108" type="curve" smooth="yes"/>
      <point x="110" y="361" type="line"/>
      <point x="218" y="361" type="line"/>
      <point x="218" y="386" type="line"/>
      <point x="110" y="386" type="line"/>
      <point x="110" y="689" type="line"/>
      <point x="227" y="689" type="line" smooth="yes"/>
      <point x="275" y="689"/>
      <point x="279" y="671"/>
      <point x="281" y="621" type="curve" smooth="yes"/>
      <point x="282" y="573" type="line"/>
      <point x="302" y="573" type="line"/>
      <point x="299" y="714" type="line"/>
      <point x="27" y="714" type="line"/>
      <point x="27" y="694" type="line"/>
      <point x="26" y="694" type="line" smooth="yes"/>
      <point x="76" y="694"/>
      <point x="82" y="683"/>
      <point x="82" y="605" type="curve" smooth="yes"/>
      <point x="82" y="386" type="line"/>
      <point x="15" y="386" type="line"/>
      <point x="15" y="361" type="line"/>
      <point x="82" y="361" type="line"/>
      <point x="82" y="108" type="line" smooth="yes"/>
      <point x="82" y="31"/>
      <point x="77" y="20"/>
      <point x="26" y="20" type="curve" smooth="yes"/>
      <point x="27" y="20" type="line"/>
    </contour>
  </outline>
</glyph>
<glyph name="uni049C" format="2">
  <advance width="425"/>
  <unicode hex="049C"/>
  <anchor x="212" y="0" name="bottom"/>
  <anchor x="212" y="714" name="top"/>
  <outline>
    <contour>
      <point x="27" y="0" type="line"/>
      <point x="183" y="0" type="line"/>
      <point x="183" y="20" type="line"/>
      <point x="169" y="20" type="line" smooth="yes"/>
      <point x="116" y="20"/>
      <point x="112" y="31"/>
      <point x="112" y="115" type="curve" smooth="yes"/>
      <point x="112" y="349" type="line"/>
      <point x="174" y="349" type="line"/>
      <point x="174" y="174" type="line"/>
      <point x="204" y="174" type="line"/>
      <point x="204" y="347" type="line"/>
      <point x="245" y="343"/>
      <point x="229" y="322"/>
      <point x="248" y="268" type="curve" smooth="yes"/>
      <point x="306" y="102" type="line" smooth="yes"/>
      <point x="336" y="13"/>
      <point x="347" y="0"/>
      <point x="414" y="0" type="curve" smooth="yes"/>
      <point x="414" y="0" type="line"/>
      <point x="414" y="17" type="line"/>
      <point x="404" y="17" type="line" smooth="yes"/>
      <point x="377" y="17"/>
      <point x="352" y="44"/>
      <point x="326" y="120" type="curve" smooth="yes"/>
      <point x="269" y="290" type="line" smooth="yes"/>
      <point x="240" y="372"/>
      <point x="223" y="362"/>
      <point x="208" y="374" type="curve"/>
      <point x="234" y="416"/>
      <point x="240" y="473"/>
      <point x="265" y="542" type="curve" smooth="yes"/>
      <point x="294" y="628"/>
      <point x="325" y="695"/>
      <point x="363" y="695" type="curve" smooth="yes"/>
      <point x="381" y="695"/>
      <point x="380" y="677"/>
      <point x="380" y="641" type="curve"/>
      <point x="385" y="644"/>
      <point x="399" y="647"/>
      <point x="399" y="671" type="curve" smooth="yes"/>
      <point x="399" y="700"/>
      <point x="385" y="720"/>
      <point x="361" y="720" type="curve" smooth="yes"/>
      <point x="298" y="720"/>
      <point x="260" y="605"/>
      <point x="239" y="547" type="curve" smooth="yes"/>
      <point x="203" y="448"/>
      <point x="207" y="443"/>
      <point x="204" y="405" type="curve"/>
      <point x="204" y="544" type="line"/>
      <point x="174" y="544" type="line"/>
      <point x="174" y="374" type="line"/>
      <point x="112" y="374" type="line"/>
      <point x="112" y="608" type="line" smooth="yes"/>
      <point x="112" y="684"/>
      <point x="119" y="694"/>
      <point x="167" y="694" type="curve" smooth="yes"/>
      <point x="183" y="694" type="line"/>
      <point x="183" y="714" type="line"/>
      <point x="27" y="714" type="line"/>
      <point x="27" y="694" type="line"/>
      <point x="29" y="694" type="line" smooth="yes"/>
      <point x="77" y="694"/>
      <point x="84" y="683"/>
      <point x="84" y="608" type="curve" smooth="yes"/>
      <point x="84" y="108" type="line" smooth="yes"/>
      <point x="84" y="31"/>
      <point x="78" y="20"/>
      <point x="29" y="20" type="curve" smooth="yes"/>
      <point x="27" y="20" type="line"/>
    </contour>
  </outline>
</glyph>
<glyph name="uni04A0" format="2">
  <advance width="443"/>
  <unicode hex="04A0"/>
  <anchor x="221" y="0" name="bottom"/>
  <anchor x="221" y="714" name="top"/>
  <outline>
    <contour>
      <point x="69" y="0" type="line"/>
      <point x="225" y="0" type="line"/>
      <point x="225" y="20" type="line"/>
      <point x="211" y="20" type="line" smooth="yes"/>
      <point x="158" y="20"/>
      <point x="154" y="31"/>
      <point x="154" y="115" type="curve" smooth="yes"/>
      <point x="154" y="349" type="line"/>
      <point x="251" y="349"/>
      <point x="242" y="338"/>
      <point x="264" y="268" type="curve" smooth="yes"/>
      <point x="322" y="102" type="line" smooth="yes"/>
      <point x="352" y="13"/>
      <point x="364" y="0"/>
      <point x="430" y="0" type="curve" smooth="yes"/>
      <point x="430" y="0" type="line"/>
      <point x="430" y="17" type="line"/>
      <point x="421" y="17" type="line" smooth="yes"/>
      <point x="393" y="17"/>
      <point x="369" y="44"/>
      <point x="342" y="120" type="curve" smooth="yes"/>
      <point x="286" y="290" type="line" smooth="yes"/>
      <point x="256" y="372"/>
      <point x="239" y="362"/>
      <point x="225" y="374" type="curve"/>
      <point x="250" y="416"/>
      <point x="256" y="473"/>
      <point x="281" y="542" type="curve" smooth="yes"/>
      <point x="311" y="628"/>
      <point x="342" y="695"/>
      <point x="379" y="695" type="curve" smooth="yes"/>
      <point x="395" y="695"/>
      <point x="397" y="678"/>
      <point x="397" y="641" type="curve"/>
      <point x="401" y="642"/>
      <point x="415" y="647"/>
      <point x="415" y="671" type="curve" smooth="yes"/>
      <point x="415" y="700"/>
      <point x="401" y="720"/>
      <point x="377" y="720" type="curve" smooth="yes"/>
      <point x="314" y="720"/>
      <point x="276" y="605"/>
      <point x="256" y="547" type="curve" smooth="yes"/>
      <point x="230" y="474"/>
      <point x="219" y="425"/>
      <point x="210" y="405" type="curve" smooth="yes"/>
      <point x="202" y="390"/>
      <point x="203" y="374"/>
      <point x="154" y="374" type="curve"/>
      <point x="154" y="607" type="line" smooth="yes"/>
      <point x="154" y="685"/>
      <point x="161" y="694"/>
      <point x="209" y="694" type="curve" smooth="yes"/>
      <point x="223" y="694" type="line"/>
      <point x="223" y="714" type="line"/>
      <point x="17" y="714" type="line"/>
      <point x="15" y="648" type="line"/>
      <point x="34" y="648" type="line"/>
      <point x="32" y="611" type="line" smooth="yes"/>
      <point x="39" y="678"/>
      <point x="41" y="689"/>
      <point x="101" y="689" type="curve" smooth="yes"/>
      <point x="126" y="689" type="line"/>
      <point x="126" y="108" type="line" smooth="yes"/>
      <point x="126" y="31"/>
      <point x="119" y="20"/>
      <point x="71" y="20" type="curve" smooth="yes"/>
      <point x="69" y="20" type="line"/>
    </contour>
  </outline>
</glyph>
<glyph name="uni04A9" format="2">
  <advance width="342"/>
  <unicode hex="04A9"/>
  <anchor x="171" y="0" name="bottom"/>
  <anchor x="171" y="536" name="top"/>
  <outline>
    <contour>
      <point x="286" y="-30" type="curve" smooth="yes"/>
      <point x="301" y="-30"/>
      <point x="322" y="-7"/>
      <point x="322" y="11" type="curve" smooth="yes"/>
      <point x="322" y="23"/>
      <point x="316" y="28"/>
      <point x="305" y="28" type="curve"/>
      <point x="303" y="2"/>
      <point x="296" y="-5"/>
      <point x="282" y="-5" type="curve" smooth="yes"/>
      <point x="267" y="-5"/>
      <point x="254" y="3"/>
      <point x="242" y="18" type="curve"/>
      <point x="274" y="50"/>
      <point x="307" y="105"/>
      <point x="307" y="230" type="curve" smooth="yes"/>
      <point x="307" y="335"/>
      <point x="268" y="407"/>
      <point x="227" y="407" type="curve" smooth="yes"/>
      <point x="181" y="407"/>
      <point x="156" y="345"/>
      <point x="156" y="237" type="curve" smooth="yes"/>
      <point x="156" y="141"/>
      <point x="174" y="68"/>
      <point x="205" y="22" type="curve"/>
      <point x="194" y="18"/>
      <point x="182" y="15"/>
      <point x="168" y="15" type="curve" smooth="yes"/>
      <point x="110" y="15"/>
      <point x="65" y="83"/>
      <point x="65" y="269" type="curve" smooth="yes"/>
      <point x="65" y="434"/>
      <point x="90" y="519"/>
      <point x="158" y="519" type="curve" smooth="yes"/>
      <point x="186" y="519"/>
      <point x="200" y="510"/>
      <point x="207" y="482" type="curve"/>
      <point x="213" y="493"/>
      <point x="212" y="498"/>
      <point x="212" y="505" type="curve" smooth="yes"/>
      <point x="212" y="523"/>
      <point x="199" y="544"/>
      <point x="159" y="544" type="curve" smooth="yes"/>
      <point x="65" y="544"/>
      <point x="37" y="453"/>
      <point x="37" y="270" type="curve" smooth="yes"/>
      <point x="37" y="71"/>
      <point x="83" y="-10"/>
      <point x="169" y="-10" type="curve" smooth="yes"/>
      <point x="187" y="-10"/>
      <point x="204" y="-6"/>
      <point x="220" y="2" type="curve"/>
      <point x="238" y="-19"/>
      <point x="262" y="-30"/>
    </contour>
    <contour>
      <point x="229" y="38" type="curve"/>
      <point x="204" y="81"/>
      <point x="184" y="149"/>
      <point x="184" y="237" type="curve" smooth="yes"/>
      <point x="184" y="321"/>
      <point x="195" y="382"/>
      <point x="227" y="382" type="curve" smooth="yes"/>
      <point x="262" y="382"/>
      <point x="278" y="317"/>
      <point x="278" y="230" type="curve" smooth="yes"/>
      <point x="278" y="118"/>
      <point x="257" y="67"/>
    </contour>
  </outline>
</glyph>
<glyph name="uni04C3" format="2">
  <advance width="392"/>
  <unicode hex="04C3"/>
  <anchor x="197" y="-247" name="bottom"/>
  <anchor x="197" y="714" name="top"/>
  <outline>
    <contour>
      <point x="225" y="-247" type="curve" smooth="yes"/>
      <point x="264" y="-247"/>
      <point x="378" y="-213"/>
      <point x="378" y="60" type="curve" smooth="yes"/>
      <point x="378" y="263"/>
      <point x="288" y="381"/>
      <point x="180" y="381" type="curve"/>
      <point x="204" y="418"/>
      <point x="215" y="477"/>
      <point x="239" y="542" type="curve" smooth="yes"/>
      <point x="269" y="628"/>
      <point x="300" y="695"/>
      <point x="337" y="695" type="curve" smooth="yes"/>
      <point x="355" y="695"/>
      <point x="355" y="677"/>
      <point x="355" y="641" type="curve"/>
      <point x="359" y="643"/>
      <point x="373" y="647"/>
      <point x="373" y="671" type="curve" smooth="yes"/>
      <point x="373" y="700"/>
      <point x="359" y="720"/>
      <point x="335" y="720" type="curve" smooth="yes"/>
      <point x="272" y="720"/>
      <point x="234" y="605"/>
      <point x="214" y="547" type="curve" smooth="yes"/>
      <point x="188" y="474"/>
      <point x="168" y="383"/>
      <point x="140" y="361" type="curve" smooth="yes"/>
      <point x="138" y="371"/>
      <point x="87" y="362"/>
      <point x="111" y="365" type="curve"/>
      <point x="112" y="608" type="line" smooth="yes"/>
      <point x="112" y="683"/>
      <point x="119" y="694"/>
      <point x="167" y="694" type="curve" smooth="yes"/>
      <point x="183" y="694" type="line"/>
      <point x="183" y="714" type="line"/>
      <point x="27" y="714" type="line"/>
      <point x="27" y="694" type="line"/>
      <point x="27" y="694" type="line" smooth="yes"/>
      <point x="78" y="694"/>
      <point x="84" y="683"/>
      <point x="84" y="608" type="curve" smooth="yes"/>
      <point x="84" y="108" type="line" smooth="yes"/>
      <point x="84" y="31"/>
      <point x="77" y="20"/>
      <point x="29" y="20" type="curve" smooth="yes"/>
      <point x="27" y="20" type="line"/>
      <point x="27" y="0" type="line"/>
      <point x="183" y="0" type="line"/>
      <point x="183" y="20" type="line"/>
      <point x="167" y="20" type="line" smooth="yes"/>
      <point x="116" y="20"/>
      <point x="112" y="31"/>
      <point x="112" y="115" type="curve" smooth="yes"/>
      <point x="112" y="344" type="line"/>
      <point x="144" y="353"/>
      <point x="130" y="357"/>
      <point x="175" y="357" type="curve" smooth="yes"/>
      <point x="261" y="357"/>
      <point x="350" y="264"/>
      <point x="350" y="56" type="curve" smooth="yes"/>
      <point x="350" y="-201"/>
      <point x="255" y="-222"/>
      <point x="221" y="-222" type="curve" smooth="yes"/>
      <point x="134" y="-222"/>
      <point x="106" y="-169"/>
      <point x="106" y="-91" type="curve"/>
      <point x="92" y="-91"/>
      <point x="87" y="-105"/>
      <point x="87" y="-140" type="curve" smooth="yes"/>
      <point x="87" y="-180"/>
      <point x="128" y="-247"/>
    </contour>
  </outline>
</glyph>
<glyph name="uni04C6" format="2">
  <advance width="356"/>
  <unicode hex="04C6"/>
  <anchor x="179" y="0" name="bottom"/>
  <anchor x="179" y="536" name="top"/>
  <outline>
    <contour>
      <point x="287" y="-210" type="line"/>
      <point x="328" y="-210" type="line"/>
      <point x="362" y="8" type="line"/>
      <point x="362" y="20" type="line"/>
      <point x="330" y="20" type="line"/>
      <point x="334" y="0" type="line"/>
    </contour>
    <component base="afii10077"/>
  </outline>
</glyph>
<glyph name="uni04C7" format="2">
  <advance width="454"/>
  <unicode hex="04C7"/>
  <anchor x="228" y="-233" name="bottom"/>
  <anchor x="228" y="714" name="top"/>
  <outline>
    <contour>
      <point x="220" y="-233" type="curve" smooth="yes"/>
      <point x="286" y="-233"/>
      <point x="379" y="-186"/>
      <point x="379" y="96" type="curve" smooth="yes"/>
      <point x="379" y="607" type="line" smooth="yes"/>
      <point x="379" y="683"/>
      <point x="385" y="694"/>
      <point x="434" y="694" type="curve" smooth="yes"/>
      <point x="438" y="694" type="line"/>
      <point x="438" y="714" type="line"/>
      <point x="283" y="714" type="line"/>
      <point x="283" y="694" type="line"/>
      <point x="295" y="694" type="line" smooth="yes"/>
      <point x="344" y="694"/>
      <point x="351" y="683"/>
      <point x="351" y="607" type="curve" smooth="yes"/>
      <point x="351" y="386" type="line"/>
      <point x="112" y="386" type="line"/>
      <point x="112" y="607" type="line" smooth="yes"/>
      <point x="112" y="683"/>
      <point x="118" y="694"/>
      <point x="167" y="694" type="curve" smooth="yes"/>
      <point x="180" y="694" type="line"/>
      <point x="180" y="714" type="line"/>
      <point x="28" y="714" type="line"/>
      <point x="28" y="694" type="line"/>
      <point x="28" y="694" type="line" smooth="yes"/>
      <point x="78" y="694"/>
      <point x="84" y="683"/>
      <point x="84" y="607" type="curve" smooth="yes"/>
      <point x="84" y="108" type="line" smooth="yes"/>
      <point x="84" y="31"/>
      <point x="78" y="20"/>
      <point x="29" y="20" type="curve" smooth="yes"/>
      <point x="28" y="20" type="line"/>
      <point x="28" y="0" type="line"/>
      <point x="180" y="0" type="line"/>
      <point x="180" y="20" type="line"/>
      <point x="167" y="20" type="line" smooth="yes"/>
      <point x="118" y="20"/>
      <point x="112" y="31"/>
      <point x="112" y="108" type="curve" smooth="yes"/>
      <point x="112" y="361" type="line"/>
      <point x="351" y="361" type="line"/>
      <point x="351" y="85" type="line" smooth="yes"/>
      <point x="351" y="-174"/>
      <point x="270" y="-208"/>
      <point x="217" y="-208" type="curve" smooth="yes"/>
      <point x="155" y="-208"/>
      <point x="123" y="-168"/>
      <point x="123" y="-112" type="curve"/>
      <point x="109" y="-112"/>
      <point x="102" y="-127"/>
      <point x="102" y="-141" type="curve" smooth="yes"/>
      <point x="102" y="-174"/>
      <point x="125" y="-207"/>
      <point x="170" y="-225" type="curve" smooth="yes"/>
      <point x="185" y="-230"/>
      <point x="198" y="-233"/>
    </contour>
  </outline>
</glyph>
<glyph name="uni04CC" format="2">
  <advance width="365"/>
  <unicode hex="04CC"/>
  <anchor x="182" y="-210" name="bottom"/>
  <anchor x="182" y="536" name="top"/>
  <outline>
    <contour>
      <point x="205" y="-210" type="line"/>
      <point x="225" y="-210" type="line"/>
      <point x="220" y="-229" type="line" smooth="yes"/>
      <point x="221" y="-41"/>
      <point x="242" y="0"/>
      <point x="381" y="0" type="curve" smooth="yes"/>
      <point x="358" y="0" type="line"/>
      <point x="358" y="20" type="line"/>
      <point x="350" y="20" type="line" smooth="yes"/>
      <point x="300" y="20"/>
      <point x="293" y="27"/>
      <point x="293" y="97" type="curve" smooth="yes"/>
      <point x="293" y="439" type="line" smooth="yes"/>
      <point x="293" y="509"/>
      <point x="301" y="516"/>
      <point x="354" y="516" type="curve" smooth="yes"/>
      <point x="356" y="516" type="line"/>
      <point x="356" y="536" type="line"/>
      <point x="202" y="536" type="line"/>
      <point x="202" y="516" type="line"/>
      <point x="204" y="516" type="line" smooth="yes"/>
      <point x="257" y="516"/>
      <point x="265" y="509"/>
      <point x="265" y="439" type="curve" smooth="yes"/>
      <point x="265" y="297" type="line"/>
      <point x="215" y="234"/>
      <point x="183" y="213"/>
      <point x="145" y="213" type="curve" smooth="yes"/>
      <point x="104" y="213"/>
      <point x="93" y="255"/>
      <point x="93" y="316" type="curve" smooth="yes"/>
      <point x="93" y="439" type="line" smooth="yes"/>
      <point x="93" y="509"/>
      <point x="100" y="516"/>
      <point x="156" y="516" type="curve" smooth="yes"/>
      <point x="157" y="516" type="line"/>
      <point x="157" y="536" type="line"/>
      <point x="10" y="536" type="line"/>
      <point x="10" y="516" type="line"/>
      <point x="2" y="516" type="line" smooth="yes"/>
      <point x="58" y="516"/>
      <point x="65" y="509"/>
      <point x="65" y="439" type="curve" smooth="yes"/>
      <point x="65" y="312" type="line" smooth="yes"/>
      <point x="65" y="234"/>
      <point x="88" y="188"/>
      <point x="145" y="188" type="curve" smooth="yes"/>
      <point x="195" y="188"/>
      <point x="219" y="209"/>
      <point x="265" y="260" type="curve"/>
      <point x="265" y="97" type="line" smooth="yes"/>
      <point x="265" y="24"/>
      <point x="257" y="17"/>
      <point x="201" y="17" type="curve" smooth="yes"/>
      <point x="205" y="17" type="line"/>
    </contour>
  </outline>
</glyph>
<glyph name="uni04E0" format="2">
  <advance width="351"/>
  <unicode hex="04E0"/>
  <anchor x="175" y="0" name="bottom"/>
  <anchor x="175" y="714" name="top"/>
  <outline>
    <contour>
      <point x="151" y="-11" type="curve" smooth="yes"/>
      <point x="240" y="-11"/>
      <point x="306" y="34"/>
      <point x="306" y="187" type="curve" smooth="yes"/>
      <point x="306" y="332"/>
      <point x="241" y="388"/>
      <point x="126" y="388" type="curve"/>
      <point x="287" y="691" type="line"/>
      <point x="287" y="714" type="line"/>
      <point x="55" y="714" type="line"/>
      <point x="54" y="615" type="line"/>
      <point x="74" y="615" type="line"/>
      <point x="73" y="621" type="line" smooth="yes"/>
      <point x="73" y="675"/>
      <point x="79" y="684"/>
      <point x="139" y="684" type="curve" smooth="yes"/>
      <point x="254" y="684" type="line"/>
      <point x="93" y="387" type="line"/>
      <point x="95" y="364" type="line"/>
      <point x="128" y="364" type="line" smooth="yes"/>
      <point x="236" y="364"/>
      <point x="278" y="303"/>
      <point x="278" y="185" type="curve" smooth="yes"/>
      <point x="278" y="38"/>
      <point x="223" y="14"/>
      <point x="151" y="14" type="curve" smooth="yes"/>
      <point x="61" y="14"/>
      <point x="43" y="78"/>
      <point x="46" y="138" type="curve"/>
      <point x="36" y="138"/>
      <point x="29" y="119"/>
      <point x="29" y="93" type="curve" smooth="yes"/>
      <point x="29" y="64"/>
      <point x="44" y="-11"/>
    </contour>
  </outline>
</glyph>
<glyph name="uni0518" format="2">
  <advance width="524"/>
  <unicode hex="0518"/>
  <anchor x="262" y="0" name="bottom"/>
  <anchor x="262" y="714" name="top"/>
  <outline>
    <contour>
      <point x="-8" y="0" type="line"/>
      <point x="-7" y="0" type="line" smooth="yes"/>
      <point x="50" y="0"/>
      <point x="72" y="26"/>
      <point x="114" y="114" type="curve" smooth="yes"/>
      <point x="186" y="313" type="line"/>
      <point x="258" y="313" type="line"/>
      <point x="258" y="109" type="line" smooth="yes"/>
      <point x="258" y="31"/>
      <point x="253" y="20"/>
      <point x="199" y="20" type="curve" smooth="yes"/>
      <point x="189" y="20" type="line"/>
      <point x="189" y="0" type="line"/>
      <point x="491" y="0" type="line"/>
      <point x="493" y="165" type="line"/>
      <point x="473" y="165" type="line"/>
      <point x="469" y="90" type="line" smooth="yes"/>
      <point x="465" y="26"/>
      <point x="466" y="25"/>
      <point x="398" y="25" type="curve" smooth="yes"/>
      <point x="287" y="25" type="line"/>
      <point x="287" y="362" type="line"/>
      <point x="428" y="362" type="line"/>
      <point x="428" y="387" type="line"/>
      <point x="287" y="387" type="line"/>
      <point x="287" y="689" type="line"/>
      <point x="369" y="689" type="line" smooth="yes"/>
      <point x="446" y="689"/>
      <point x="450" y="689"/>
      <point x="453" y="601" type="curve" smooth="yes"/>
      <point x="454" y="549" type="line"/>
      <point x="474" y="549" type="line"/>
      <point x="471" y="714" type="line"/>
      <point x="218" y="714" type="line" smooth="yes"/>
      <point x="95" y="714"/>
      <point x="63" y="616"/>
      <point x="63" y="507" type="curve" smooth="yes"/>
      <point x="63" y="374"/>
      <point x="132" y="342"/>
      <point x="163" y="324" type="curve"/>
      <point x="75" y="106" type="line" smooth="yes"/>
      <point x="63" y="64"/>
      <point x="38" y="17"/>
      <point x="-11" y="17" type="curve" smooth="yes"/>
      <point x="-8" y="17" type="line"/>
    </contour>
    <contour>
      <point x="206" y="338" type="line" smooth="yes"/>
      <point x="131" y="338"/>
      <point x="91" y="412"/>
      <point x="91" y="507" type="curve" smooth="yes"/>
      <point x="91" y="599"/>
      <point x="122" y="689"/>
      <point x="222" y="689" type="curve" smooth="yes"/>
      <point x="258" y="689" type="line"/>
      <point x="258" y="338" type="line"/>
    </contour>
  </outline>
</glyph>
<glyph name="uni0519" format="2">
  <advance width="486"/>
  <unicode hex="0519"/>
  <anchor x="244" y="0" name="bottom"/>
  <anchor x="244" y="536" name="top"/>
  <outline>
    <contour>
      <point x="343" y="-10" type="curve" smooth="yes"/>
      <point x="400" y="-10"/>
      <point x="433" y="43"/>
      <point x="433" y="72" type="curve" smooth="yes"/>
      <point x="433" y="87"/>
      <point x="429" y="94"/>
      <point x="424" y="96" type="curve"/>
      <point x="413" y="59"/>
      <point x="388" y="15"/>
      <point x="342" y="15" type="curve" smooth="yes"/>
      <point x="278" y="15"/>
      <point x="244" y="93"/>
      <point x="243" y="266" type="curve"/>
      <point x="448" y="266" type="line"/>
      <point x="448" y="292" type="line" smooth="yes"/>
      <point x="448" y="443"/>
      <point x="415" y="542"/>
      <point x="335" y="542" type="curve" smooth="yes"/>
      <point x="296" y="542"/>
      <point x="261" y="514"/>
      <point x="243" y="450" type="curve"/>
      <point x="243" y="536" type="line"/>
      <point x="147" y="536" type="line" smooth="yes"/>
      <point x="62" y="536"/>
      <point x="32" y="472"/>
      <point x="32" y="395" type="curve" smooth="yes"/>
      <point x="32" y="323"/>
      <point x="60" y="265"/>
      <point x="116" y="249" type="curve"/>
      <point x="63" y="83" type="line" smooth="yes"/>
      <point x="55" y="50"/>
      <point x="36" y="17"/>
      <point x="3" y="17" type="curve" smooth="yes"/>
      <point x="7" y="17" type="line"/>
      <point x="7" y="0" type="line"/>
      <point x="73" y="0"/>
      <point x="81" y="40"/>
      <point x="88" y="72" type="curve" smooth="yes"/>
      <point x="141" y="245" type="line"/>
      <point x="214" y="245" type="line"/>
      <point x="215" y="101"/>
      <point x="260" y="-10"/>
    </contour>
    <contour>
      <point x="144" y="270" type="line" smooth="yes"/>
      <point x="80" y="270"/>
      <point x="60" y="346"/>
      <point x="60" y="398" type="curve" smooth="yes"/>
      <point x="60" y="441"/>
      <point x="80" y="511"/>
      <point x="122" y="511" type="curve" smooth="yes"/>
      <point x="215" y="511" type="line"/>
      <point x="215" y="270" type="line"/>
    </contour>
    <contour>
      <point x="242" y="292" type="line"/>
      <point x="244" y="430"/>
      <point x="281" y="517"/>
      <point x="336" y="517" type="curve" smooth="yes"/>
      <point x="402" y="517"/>
      <point x="418" y="426"/>
      <point x="420" y="292" type="curve"/>
    </contour>
  </outline>
</glyph>
<glyph name="uni0522" format="2">
  <advance width="664"/>
  <unicode hex="0522"/>
  <anchor x="332" y="-247" name="bottom"/>
  <anchor x="332" y="714" name="top"/>
  <outline>
    <contour>
      <point x="492" y="-247" type="curve" smooth="yes"/>
      <point x="531" y="-247"/>
      <point x="645" y="-216"/>
      <point x="645" y="56" type="curve" smooth="yes"/>
      <point x="645" y="351"/>
      <point x="517" y="391"/>
      <point x="486" y="391" type="curve" smooth="yes"/>
      <point x="453" y="391"/>
      <point x="432" y="388"/>
      <point x="413" y="380" type="curve"/>
      <point x="413" y="607" type="line" smooth="yes"/>
      <point x="413" y="683"/>
      <point x="419" y="694"/>
      <point x="469" y="694" type="curve" smooth="yes"/>
      <point x="474" y="694" type="line"/>
      <point x="474" y="714" type="line"/>
      <point x="319" y="714" type="line"/>
      <point x="319" y="694" type="line"/>
      <point x="329" y="694" type="line" smooth="yes"/>
      <point x="379" y="694"/>
      <point x="385" y="683"/>
      <point x="385" y="607" type="curve" smooth="yes"/>
      <point x="385" y="386" type="line"/>
      <point x="112" y="386" type="line"/>
      <point x="112" y="607" type="line" smooth="yes"/>
      <point x="112" y="683"/>
      <point x="119" y="694"/>
      <point x="167" y="694" type="curve" smooth="yes"/>
      <point x="180" y="694" type="line"/>
      <point x="180" y="714" type="line"/>
      <point x="28" y="714" type="line"/>
      <point x="28" y="694" type="line"/>
      <point x="29" y="694" type="line" smooth="yes"/>
      <point x="78" y="694"/>
      <point x="84" y="683"/>
      <point x="84" y="607" type="curve" smooth="yes"/>
      <point x="84" y="108" type="line" smooth="yes"/>
      <point x="84" y="31"/>
      <point x="77" y="20"/>
      <point x="29" y="20" type="curve" smooth="yes"/>
      <point x="28" y="20" type="line"/>
      <point x="28" y="0" type="line"/>
      <point x="180" y="0" type="line"/>
      <point x="180" y="20" type="line"/>
      <point x="168" y="20" type="line" smooth="yes"/>
      <point x="118" y="20"/>
      <point x="112" y="31"/>
      <point x="112" y="108" type="curve" smooth="yes"/>
      <point x="112" y="361" type="line"/>
      <point x="385" y="361" type="line"/>
      <point x="385" y="108" type="line" smooth="yes"/>
      <point x="385" y="31"/>
      <point x="379" y="20"/>
      <point x="329" y="20" type="curve" smooth="yes"/>
      <point x="316" y="20" type="line"/>
      <point x="316" y="0" type="line"/>
      <point x="474" y="0" type="line"/>
      <point x="474" y="20" type="line"/>
      <point x="469" y="20" type="line" smooth="yes"/>
      <point x="419" y="20"/>
      <point x="413" y="31"/>
      <point x="413" y="108" type="curve" smooth="yes"/>
      <point x="413" y="354" type="line"/>
      <point x="433" y="362"/>
      <point x="450" y="366"/>
      <point x="485" y="366" type="curve" smooth="yes"/>
      <point x="509" y="366"/>
      <point x="617" y="334"/>
      <point x="617" y="53" type="curve" smooth="yes"/>
      <point x="617" y="-204"/>
      <point x="522" y="-222"/>
      <point x="488" y="-222" type="curve" smooth="yes"/>
      <point x="401" y="-222"/>
      <point x="379" y="-171"/>
      <point x="379" y="-93" type="curve"/>
      <point x="365" y="-93"/>
      <point x="360" y="-106"/>
      <point x="360" y="-141" type="curve" smooth="yes"/>
      <point x="360" y="-181"/>
      <point x="395" y="-247"/>
    </contour>
  </outline>
</glyph>
<glyph name="uni1ABB" format="2">
  <unicode hex="1ABB"/>
  <anchor x="-163" y="536" name="_top"/>
  <anchor x="-163" y="805" name="top"/>
  <outline>
    <contour>
      <point x="-51" y="569" type="line"/>
      <point x="-20" y="582"/>
      <point x="3" y="615"/>
      <point x="3" y="691" type="curve" smooth="yes"/>
      <point x="3" y="776"/>
      <point x="-22" y="787"/>
      <point x="-51" y="805" type="curve"/>
      <point x="-51" y="775" type="line"/>
      <point x="-33" y="770"/>
      <point x="-26" y="727"/>
      <point x="-26" y="691" type="curve" smooth="yes"/>
      <point x="-26" y="654"/>
      <point x="-33" y="608"/>
      <point x="-51" y="599" type="curve"/>
    </contour>
    <contour>
      <point x="-277" y="569" type="curve"/>
      <point x="-277" y="599" type="line"/>
      <point x="-295" y="603"/>
      <point x="-300" y="647"/>
      <point x="-300" y="684" type="curve" smooth="yes"/>
      <point x="-300" y="721"/>
      <point x="-295" y="768"/>
      <point x="-277" y="775" type="curve"/>
      <point x="-277" y="805" type="line"/>
      <point x="-306" y="792"/>
      <point x="-329" y="761"/>
      <point x="-329" y="684" type="curve" smooth="yes"/>
      <point x="-329" y="600"/>
      <point x="-306" y="585"/>
    </contour>
  </outline>
</glyph>
<glyph name="uni1C81" format="2">
  <advance width="305"/>
  <unicode hex="1C81"/>
  <anchor x="152" y="-210" name="bottom"/>
  <anchor x="152" y="536" name="top"/>
  <outline>
    <contour>
      <point x="10" y="-210" type="line"/>
      <point x="30" y="-210" type="line"/>
      <point x="29" y="-214" type="line" smooth="yes"/>
      <point x="33" y="1"/>
      <point x="54" y="70"/>
      <point x="153" y="70" type="curve" smooth="yes"/>
      <point x="176" y="70" type="line" smooth="yes"/>
      <point x="270" y="70"/>
      <point x="291" y="-6"/>
      <point x="295" y="-231" type="curve" smooth="yes"/>
      <point x="295" y="-210" type="line"/>
      <point x="315" y="-210" type="line"/>
      <point x="315" y="87" type="line"/>
      <point x="319" y="87" type="line" smooth="yes"/>
      <point x="273" y="87"/>
      <point x="261" y="88"/>
      <point x="261" y="165" type="curve" smooth="yes"/>
      <point x="261" y="459" type="line" smooth="yes"/>
      <point x="261" y="509"/>
      <point x="276" y="516"/>
      <point x="318" y="516" type="curve" smooth="yes"/>
      <point x="315" y="516" type="line"/>
      <point x="315" y="536" type="line"/>
      <point x="54" y="536" type="line"/>
      <point x="54" y="516" type="line"/>
      <point x="52" y="516" type="line" smooth="yes"/>
      <point x="88" y="516"/>
      <point x="105" y="510"/>
      <point x="105" y="451" type="curve" smooth="yes"/>
      <point x="105" y="440"/>
      <point x="97" y="343"/>
      <point x="84" y="266" type="curve" smooth="yes"/>
      <point x="70" y="186"/>
      <point x="52" y="123"/>
      <point x="37" y="95" type="curve"/>
      <point x="10" y="95" type="line"/>
    </contour>
    <contour>
      <point x="60" y="95" type="line"/>
      <point x="102" y="185"/>
      <point x="132" y="418"/>
      <point x="130" y="511" type="curve"/>
      <point x="233" y="511" type="line"/>
      <point x="233" y="95" type="line"/>
    </contour>
  </outline>
</glyph>
<glyph name="uni1C84" format="2">
  <advance width="333"/>
  <unicode hex="1C84"/>
  <anchor x="167" y="0" name="bottom"/>
  <anchor x="167" y="714" name="top"/>
  <outline>
    <contour>
      <point x="79" y="0" type="line"/>
      <point x="241" y="0" type="line"/>
      <point x="241" y="20" type="line"/>
      <point x="224" y="20" type="line" smooth="yes"/>
      <point x="194" y="20"/>
      <point x="176" y="28"/>
      <point x="176" y="58" type="curve" smooth="yes"/>
      <point x="176" y="72"/>
      <point x="176" y="79"/>
      <point x="180" y="100" type="curve" smooth="yes"/>
      <point x="303" y="680" type="line"/>
      <point x="303" y="714" type="line"/>
      <point x="45" y="714" type="line"/>
      <point x="42" y="593" type="line"/>
      <point x="62" y="593" type="line"/>
      <point x="58" y="608" type="line" smooth="yes"/>
      <point x="58" y="675"/>
      <point x="70" y="689"/>
      <point x="130" y="689" type="curve" smooth="yes"/>
      <point x="280" y="689" type="line"/>
      <point x="137" y="47" type="line" smooth="yes"/>
      <point x="135" y="29"/>
      <point x="118" y="20"/>
      <point x="74" y="20" type="curve" smooth="yes"/>
      <point x="79" y="20" type="line"/>
    </contour>
  </outline>
</glyph>
<glyph name="uni1C88" format="2">
  <advance width="327"/>
  <unicode hex="1C88"/>
  <anchor x="164" y="0" name="bottom"/>
  <anchor x="164" y="760" name="top"/>
  <outline>
    <contour>
      <point x="164" y="-10" type="curve" smooth="yes"/>
      <point x="251" y="-10"/>
      <point x="292" y="42"/>
      <point x="292" y="215" type="curve" smooth="yes"/>
      <point x="292" y="353"/>
      <point x="265" y="432"/>
      <point x="185" y="439" type="curve"/>
      <point x="296" y="712" type="line" smooth="yes"/>
      <point x="306" y="743"/>
      <point x="303" y="741"/>
      <point x="329" y="741" type="curve" smooth="yes"/>
      <point x="324" y="741" type="line"/>
      <point x="324" y="760" type="line"/>
      <point x="197" y="760" type="line"/>
      <point x="197" y="741" type="line"/>
      <point x="201" y="741" type="line" smooth="yes"/>
      <point x="252" y="741"/>
      <point x="261" y="734"/>
      <point x="261" y="713" type="curve" smooth="yes"/>
      <point x="261" y="699"/>
      <point x="242" y="668"/>
      <point x="224" y="622" type="curve" smooth="yes"/>
      <point x="160" y="441" type="line"/>
      <point x="110" y="615" type="line" smooth="yes"/>
      <point x="86" y="678"/>
      <point x="82" y="702"/>
      <point x="82" y="714" type="curve" smooth="yes"/>
      <point x="82" y="736"/>
      <point x="93" y="741"/>
      <point x="136" y="741" type="curve" smooth="yes"/>
      <point x="134" y="741" type="line"/>
      <point x="134" y="760" type="line"/>
      <point x="13" y="760" type="line"/>
      <point x="13" y="741" type="line"/>
      <point x="29" y="741"/>
      <point x="36" y="731"/>
      <point x="42" y="703" type="curve" smooth="yes"/>
      <point x="134" y="437" type="line"/>
      <point x="61" y="426"/>
      <point x="35" y="348"/>
      <point x="35" y="215" type="curve" smooth="yes"/>
      <point x="35" y="47"/>
      <point x="81" y="-10"/>
    </contour>
    <contour>
      <point x="165" y="15" type="curve" smooth="yes"/>
      <point x="97" y="15"/>
      <point x="63" y="73"/>
      <point x="63" y="215" type="curve" smooth="yes"/>
      <point x="63" y="358"/>
      <point x="88" y="415"/>
      <point x="164" y="415" type="curve" smooth="yes"/>
      <point x="241" y="415"/>
      <point x="264" y="358"/>
      <point x="264" y="215" type="curve" smooth="yes"/>
      <point x="264" y="75"/>
      <point x="244" y="15"/>
    </contour>
  </outline>
</glyph>
<glyph name="uni1D10" format="2">
  <advance width="254"/>
  <unicode hex="1D10"/>
  <anchor x="127" y="0" name="bottom"/>
  <anchor x="127" y="536" name="top"/>
  <outline>
    <contour>
      <point x="106" y="-10" type="curve" smooth="yes"/>
      <point x="166" y="-10"/>
      <point x="217" y="26"/>
      <point x="217" y="272" type="curve" smooth="yes"/>
      <point x="217" y="502"/>
      <point x="173" y="542"/>
      <point x="120" y="542" type="curve" smooth="yes"/>
      <point x="67" y="542"/>
      <point x="29" y="506"/>
      <point x="29" y="449" type="curve" smooth="yes"/>
      <point x="29" y="413"/>
      <point x="43" y="408"/>
      <point x="54" y="399" type="curve"/>
      <point x="41" y="469"/>
      <point x="60" y="517"/>
      <point x="119" y="517" type="curve" smooth="yes"/>
      <point x="170" y="517"/>
      <point x="189" y="462"/>
      <point x="189" y="270" type="curve" smooth="yes"/>
      <point x="189" y="43"/>
      <point x="151" y="15"/>
      <point x="104" y="15" type="curve" smooth="yes"/>
      <point x="66" y="15"/>
      <point x="44" y="50"/>
      <point x="44" y="136" type="curve"/>
      <point x="30" y="136"/>
      <point x="18" y="131"/>
      <point x="18" y="107" type="curve" smooth="yes"/>
      <point x="18" y="34"/>
      <point x="54" y="-10"/>
    </contour>
  </outline>
</glyph>
<glyph name="uni1D21" format="2">
  <advance width="392"/>
  <unicode hex="1D21"/>
  <anchor x="197" y="0" name="bottom"/>
  <anchor x="197" y="536" name="top"/>
  <outline>
    <contour>
      <point x="107" y="0" type="line"/>
      <point x="153" y="0" type="line"/>
      <point x="191" y="480" type="line"/>
      <point x="193" y="480" type="line"/>
      <point x="255" y="0" type="line"/>
      <point x="297" y="0" type="line"/>
      <point x="364" y="473" type="line" smooth="yes"/>
      <point x="370" y="518"/>
      <point x="379" y="516"/>
      <point x="410" y="516" type="curve" smooth="yes"/>
      <point x="395" y="516" type="line"/>
      <point x="395" y="536" type="line"/>
      <point x="285" y="536" type="line"/>
      <point x="285" y="516" type="line"/>
      <point x="303" y="516" type="line" smooth="yes"/>
      <point x="343" y="516"/>
      <point x="339" y="510"/>
      <point x="339" y="494" type="curve" smooth="yes"/>
      <point x="339" y="487"/>
      <point x="334" y="455"/>
      <point x="332" y="434" type="curve" smooth="yes"/>
      <point x="310" y="216" type="line" smooth="yes"/>
      <point x="300" y="162"/>
      <point x="285" y="93"/>
      <point x="279" y="46" type="curve"/>
      <point x="276" y="46" type="line"/>
      <point x="271" y="85"/>
      <point x="263" y="149"/>
      <point x="255" y="204" type="curve" smooth="yes"/>
      <point x="215" y="523" type="line"/>
      <point x="170" y="523" type="line"/>
      <point x="145" y="163" type="line" smooth="yes"/>
      <point x="141" y="128"/>
      <point x="134" y="89"/>
      <point x="131" y="44" type="curve"/>
      <point x="129" y="44" type="line"/>
      <point x="127" y="79"/>
      <point x="114" y="136"/>
      <point x="108" y="173" type="curve" smooth="yes"/>
      <point x="69" y="468" type="line" smooth="yes"/>
      <point x="68" y="479"/>
      <point x="64" y="496"/>
      <point x="64" y="503" type="curve" smooth="yes"/>
      <point x="64" y="514"/>
      <point x="76" y="516"/>
      <point x="109" y="516" type="curve" smooth="yes"/>
      <point x="95" y="516" type="line"/>
      <point x="95" y="536" type="line"/>
      <point x="3" y="536" type="line"/>
      <point x="3" y="516" type="line"/>
      <point x="-6" y="516" type="line" smooth="yes"/>
      <point x="30" y="514"/>
      <point x="32" y="508"/>
      <point x="42" y="461" type="curve" smooth="yes"/>
    </contour>
  </outline>
</glyph>
<glyph name="uni1D6F" format="2">
  <advance width="548"/>
  <unicode hex="1D6F"/>
  <anchor x="273" y="536" name="top"/>
  <anchor x="553" y="536" name="topright"/>
  <anchor x="273" y="0" name="bottom"/>
  <outline>
    <contour>
      <point x="5" y="204" type="curve"/>
      <point x="26" y="204" type="line"/>
      <point x="32" y="242"/>
      <point x="51" y="295"/>
      <point x="141" y="295" type="curve" smooth="yes"/>
      <point x="221" y="295"/>
      <point x="308" y="208"/>
      <point x="412" y="208" type="curve" smooth="yes"/>
      <point x="510" y="208"/>
      <point x="533" y="275"/>
      <point x="536" y="329" type="curve"/>
      <point x="515" y="329" type="line"/>
      <point x="514" y="289"/>
      <point x="492" y="236"/>
      <point x="402" y="236" type="curve" smooth="yes"/>
      <point x="323" y="236"/>
      <point x="243" y="324"/>
      <point x="131" y="324" type="curve" smooth="yes"/>
      <point x="31" y="324"/>
      <point x="8" y="257"/>
    </contour>
    <component base="m"/>
  </outline>
</glyph>
<glyph name="uni1D74" format="2">
  <advance width="255"/>
  <unicode hex="1D74"/>
  <outline>
    <contour>
      <point x="116" y="-10" type="curve" smooth="yes"/>
      <point x="187" y="-10"/>
      <point x="225" y="37"/>
      <point x="225" y="123" type="curve" smooth="yes"/>
      <point x="225" y="166"/>
      <point x="214" y="205"/>
      <point x="182" y="243" type="curve"/>
      <point x="236" y="237"/>
      <point x="249" y="285"/>
      <point x="252" y="320" type="curve"/>
      <point x="228" y="320" type="line"/>
      <point x="221" y="289"/>
      <point x="228" y="274"/>
      <point x="196" y="277" type="curve" smooth="yes"/>
      <point x="173" y="268"/>
      <point x="154" y="274"/>
      <point x="148" y="280" type="curve" smooth="yes"/>
      <point x="92" y="327"/>
      <point x="71" y="368"/>
      <point x="71" y="419" type="curve" smooth="yes"/>
      <point x="71" y="471"/>
      <point x="86" y="515"/>
      <point x="133" y="515" type="curve" smooth="yes"/>
      <point x="183" y="515"/>
      <point x="202" y="470"/>
      <point x="202" y="406" type="curve"/>
      <point x="221" y="406"/>
      <point x="221" y="420"/>
      <point x="221" y="451" type="curve" smooth="yes"/>
      <point x="221" y="516"/>
      <point x="174" y="540"/>
      <point x="131" y="540" type="curve" smooth="yes"/>
      <point x="76" y="540"/>
      <point x="43" y="493"/>
      <point x="43" y="420" type="curve" smooth="yes"/>
      <point x="43" y="376"/>
      <point x="54" y="345"/>
      <point x="83" y="309" type="curve"/>
      <point x="14" y="310"/>
      <point x="15" y="252"/>
      <point x="8" y="224" type="curve"/>
      <point x="33" y="224" type="line"/>
      <point x="43" y="249"/>
      <point x="40" y="279"/>
      <point x="80" y="279" type="curve" smooth="yes"/>
      <point x="99" y="279"/>
      <point x="112" y="272"/>
      <point x="121" y="264" type="curve" smooth="yes"/>
      <point x="184" y="220"/>
      <point x="197" y="170"/>
      <point x="197" y="127" type="curve" smooth="yes"/>
      <point x="197" y="41"/>
      <point x="166" y="15"/>
      <point x="117" y="15" type="curve" smooth="yes"/>
      <point x="60" y="15"/>
      <point x="41" y="63"/>
      <point x="41" y="143" type="curve"/>
      <point x="29" y="143"/>
      <point x="23" y="129"/>
      <point x="23" y="91" type="curve" smooth="yes"/>
      <point x="23" y="52"/>
      <point x="41" y="-10"/>
    </contour>
  </outline>
</glyph>
<glyph name="uni1D93" format="2">
  <advance width="274"/>
  <unicode hex="1D93"/>
  <anchor x="132" y="536" name="top"/>
  <anchor x="132" y="0" name="bottom"/>
  <outline>
    <contour>
      <point x="269" y="-194" type="curve" smooth="yes"/>
      <point x="294" y="-194"/>
      <point x="311" y="-176"/>
      <point x="311" y="-141" type="curve" smooth="yes"/>
      <point x="311" y="-124"/>
      <point x="306" y="-117"/>
      <point x="303" y="-108" type="curve"/>
      <point x="307" y="-148"/>
      <point x="291" y="-165"/>
      <point x="271" y="-165" type="curve" smooth="yes"/>
      <point x="247" y="-165"/>
      <point x="241" y="-138"/>
      <point x="241" y="-56" type="curve" smooth="yes"/>
      <point x="241" y="72" type="line"/>
      <point x="211" y="31" type="line"/>
      <point x="211" y="-52" type="line" smooth="yes"/>
      <point x="211" y="-166"/>
      <point x="229" y="-194"/>
    </contour>
    <component base="uni025B"/>
  </outline>
</glyph>
<glyph name="uni1D95" format="2">
  <advance width="317"/>
  <unicode hex="1D95"/>
  <anchor x="153" y="536" name="top"/>
  <anchor x="153" y="0" name="bottom"/>
  <outline>
    <contour>
      <point x="324" y="-194" type="curve" smooth="yes"/>
      <point x="348" y="-194"/>
      <point x="365" y="-176"/>
      <point x="365" y="-141" type="curve" smooth="yes"/>
      <point x="365" y="-124"/>
      <point x="360" y="-117"/>
      <point x="357" y="-108" type="curve"/>
      <point x="361" y="-148"/>
      <point x="345" y="-165"/>
      <point x="325" y="-165" type="curve" smooth="yes"/>
      <point x="301" y="-165"/>
      <point x="295" y="-138"/>
      <point x="295" y="-56" type="curve" smooth="yes"/>
      <point x="295" y="266" type="line"/>
      <point x="266" y="266" type="line"/>
      <point x="266" y="-52" type="line" smooth="yes"/>
      <point x="266" y="-166"/>
      <point x="284" y="-194"/>
    </contour>
    <component base="uni0259"/>
  </outline>
</glyph>
<glyph name="ogonekabove" format="2">
  <unicode hex="1DCE"/>
  <anchor x="-169" y="536" name="_top"/>
  <anchor x="-169" y="771" name="top"/>
  <outline>
    <contour>
      <point x="-208" y="539" type="curve"/>
      <point x="-176" y="539" type="line"/>
      <point x="-156" y="554"/>
      <point x="-116" y="596"/>
      <point x="-116" y="677" type="curve" smooth="yes"/>
      <point x="-116" y="751"/>
      <point x="-151" y="771"/>
      <point x="-180" y="771" type="curve" smooth="yes"/>
      <point x="-202" y="771"/>
      <point x="-208" y="769"/>
      <point x="-222" y="760" type="curve"/>
      <point x="-222" y="730" type="line"/>
      <point x="-210" y="743"/>
      <point x="-198" y="746"/>
      <point x="-182" y="746" type="curve" smooth="yes"/>
      <point x="-154" y="746"/>
      <point x="-146" y="720"/>
      <point x="-146" y="676" type="curve" smooth="yes"/>
      <point x="-146" y="615"/>
      <point x="-167" y="558"/>
    </contour>
  </outline>
</glyph>
<glyph name="Germandbls" format="2">
  <advance width="357"/>
  <unicode hex="1E9E"/>
  <anchor x="179" y="0" name="bottom"/>
  <anchor x="179" y="714" name="top"/>
  <outline>
    <contour>
      <point x="207" y="-10" type="curve" smooth="yes"/>
      <point x="291" y="-10"/>
      <point x="333" y="67"/>
      <point x="333" y="205" type="curve" smooth="yes"/>
      <point x="333" y="297"/>
      <point x="292" y="381"/>
      <point x="185" y="386" type="curve"/>
      <point x="276" y="510" type="line"/>
      <point x="283" y="679"/>
      <point x="257" y="724"/>
      <point x="161" y="724" type="curve" smooth="yes"/>
      <point x="77" y="724"/>
      <point x="39" y="664"/>
      <point x="39" y="505" type="curve" smooth="yes"/>
      <point x="39" y="108" type="line" smooth="yes"/>
      <point x="39" y="31"/>
      <point x="34" y="20"/>
      <point x="-18" y="20" type="curve" smooth="yes"/>
      <point x="-18" y="20" type="line"/>
      <point x="-18" y="0" type="line"/>
      <point x="67" y="0" type="line"/>
      <point x="67" y="511" type="line" smooth="yes"/>
      <point x="67" y="657"/>
      <point x="101" y="699"/>
      <point x="167" y="699" type="curve" smooth="yes"/>
      <point x="263" y="699"/>
      <point x="259" y="634"/>
      <point x="247" y="514" type="curve"/>
      <point x="159" y="391" type="line"/>
      <point x="159" y="361" type="line"/>
      <point x="175" y="361" type="line" smooth="yes"/>
      <point x="304" y="361"/>
      <point x="303" y="251"/>
      <point x="303" y="206" type="curve" smooth="yes"/>
      <point x="303" y="69"/>
      <point x="263" y="17"/>
      <point x="205" y="17" type="curve" smooth="yes"/>
      <point x="143" y="17"/>
      <point x="137" y="85"/>
      <point x="137" y="102" type="curve"/>
      <point x="129" y="102"/>
      <point x="125" y="93"/>
      <point x="125" y="73" type="curve" smooth="yes"/>
      <point x="125" y="51"/>
      <point x="137" y="-10"/>
    </contour>
  </outline>
</glyph>
<glyph name="uni1FC1" format="2">
  <advance width="337"/>
  <unicode hex="1FC1"/>
  <anchor x="172" y="536" name="_top"/>
  <outline>
    <contour>
      <point x="53" y="772" type="curve"/>
      <point x="81" y="772" type="line"/>
      <point x="82" y="807"/>
      <point x="91" y="831"/>
      <point x="114" y="831" type="curve" smooth="yes"/>
      <point x="147" y="831"/>
      <point x="168" y="755"/>
      <point x="225" y="755" type="curve" smooth="yes"/>
      <point x="278" y="755"/>
      <point x="282" y="806"/>
      <point x="289" y="843" type="curve"/>
      <point x="261" y="843" type="line"/>
      <point x="258" y="811"/>
      <point x="251" y="785"/>
      <point x="224" y="785" type="curve" smooth="yes"/>
      <point x="180" y="785"/>
      <point x="159" y="860"/>
      <point x="112" y="860" type="curve" smooth="yes"/>
      <point x="60" y="860"/>
      <point x="60" y="811"/>
    </contour>
    <contour>
      <point x="109" y="636" type="curve" smooth="yes"/>
      <point x="126" y="636"/>
      <point x="132" y="644"/>
      <point x="132" y="670" type="curve" smooth="yes"/>
      <point x="132" y="699"/>
      <point x="126" y="706"/>
      <point x="109" y="706" type="curve" smooth="yes"/>
      <point x="90" y="706"/>
      <point x="88" y="699"/>
      <point x="88" y="670" type="curve" smooth="yes"/>
      <point x="88" y="644"/>
      <point x="90" y="636"/>
    </contour>
    <contour>
      <point x="218" y="636" type="curve" smooth="yes"/>
      <point x="235" y="636"/>
      <point x="241" y="644"/>
      <point x="241" y="670" type="curve" smooth="yes"/>
      <point x="241" y="699"/>
      <point x="235" y="706"/>
      <point x="218" y="706" type="curve" smooth="yes"/>
      <point x="201" y="706"/>
      <point x="195" y="699"/>
      <point x="195" y="670" type="curve" smooth="yes"/>
      <point x="195" y="644"/>
      <point x="201" y="636"/>
    </contour>
  </outline>
</glyph>
<glyph name="uni1FCD" format="2">
  <advance width="238"/>
  <unicode hex="1FCD"/>
  <anchor x="130" y="536" name="_top"/>
  <anchor x="130" y="714" name="top"/>
  <outline>
    <contour>
      <point x="32" y="552" type="line"/>
      <point x="82" y="579"/>
      <point x="105" y="618"/>
      <point x="105" y="653" type="curve" smooth="yes"/>
      <point x="105" y="686"/>
      <point x="89" y="714"/>
      <point x="61" y="714" type="curve" smooth="yes"/>
      <point x="51" y="714"/>
      <point x="42" y="706"/>
      <point x="42" y="694" type="curve" smooth="yes"/>
      <point x="42" y="669"/>
      <point x="80" y="672"/>
      <point x="80" y="640" type="curve" smooth="yes"/>
      <point x="80" y="604"/>
      <point x="57" y="588"/>
      <point x="32" y="567" type="curve"/>
    </contour>
    <contour>
      <point x="224" y="549" type="curve"/>
      <point x="229" y="549" type="line"/>
      <point x="229" y="559" type="line"/>
      <point x="215" y="592"/>
      <point x="182" y="668"/>
      <point x="173" y="716" type="curve"/>
      <point x="135" y="716" type="line"/>
      <point x="135" y="709" type="line"/>
      <point x="156" y="661"/>
      <point x="208" y="580"/>
    </contour>
  </outline>
</glyph>
<glyph name="uni1FCE" format="2">
  <advance width="238"/>
  <unicode hex="1FCE"/>
  <anchor x="148" y="536" name="_top"/>
  <anchor x="148" y="714" name="top"/>
  <outline>
    <contour>
      <point x="59" y="552" type="line"/>
      <point x="109" y="579"/>
      <point x="132" y="618"/>
      <point x="132" y="653" type="curve" smooth="yes"/>
      <point x="132" y="686"/>
      <point x="116" y="714"/>
      <point x="88" y="714" type="curve" smooth="yes"/>
      <point x="78" y="714"/>
      <point x="69" y="706"/>
      <point x="69" y="694" type="curve" smooth="yes"/>
      <point x="69" y="669"/>
      <point x="107" y="672"/>
      <point x="107" y="640" type="curve" smooth="yes"/>
      <point x="107" y="604"/>
      <point x="84" y="588"/>
      <point x="59" y="567" type="curve"/>
    </contour>
    <contour>
      <point x="143" y="549" type="line"/>
      <point x="148" y="549" type="line"/>
      <point x="164" y="570"/>
      <point x="221" y="677"/>
      <point x="235" y="709" type="curve"/>
      <point x="235" y="716" type="line"/>
      <point x="193" y="716" type="line"/>
      <point x="187" y="668"/>
      <point x="166" y="600"/>
      <point x="143" y="559" type="curve"/>
    </contour>
  </outline>
</glyph>
<glyph name="uni1FDF" format="2">
  <advance width="238"/>
  <unicode hex="1FDF"/>
  <anchor x="123" y="536" name="_top"/>
  <anchor x="123" y="859" name="top"/>
  <outline>
    <contour>
      <point x="24" y="775" type="curve"/>
      <point x="51" y="775" type="line"/>
      <point x="52" y="809"/>
      <point x="58" y="830"/>
      <point x="77" y="830" type="curve" smooth="yes"/>
      <point x="103" y="830"/>
      <point x="117" y="755"/>
      <point x="165" y="755" type="curve" smooth="yes"/>
      <point x="212" y="755"/>
      <point x="217" y="805"/>
      <point x="221" y="843" type="curve"/>
      <point x="194" y="843" type="line"/>
      <point x="191" y="811"/>
      <point x="186" y="785"/>
      <point x="164" y="785" type="curve" smooth="yes"/>
      <point x="127" y="785"/>
      <point x="112" y="859"/>
      <point x="74" y="859" type="curve" smooth="yes"/>
      <point x="29" y="859"/>
      <point x="28" y="814"/>
    </contour>
    <contour>
      <point x="153" y="581" type="curve"/>
      <point x="153" y="594" type="line"/>
      <point x="121" y="595"/>
      <point x="111" y="614"/>
      <point x="111" y="634" type="curve" smooth="yes"/>
      <point x="111" y="662"/>
      <point x="155" y="658"/>
      <point x="155" y="684" type="curve" smooth="yes"/>
      <point x="155" y="700"/>
      <point x="144" y="710"/>
      <point x="133" y="710" type="curve" smooth="yes"/>
      <point x="106" y="710"/>
      <point x="91" y="683"/>
      <point x="91" y="651" type="curve" smooth="yes"/>
      <point x="91" y="608"/>
      <point x="108" y="587"/>
    </contour>
  </outline>
</glyph>
<glyph name="uni1FFD" format="2">
  <advance width="160"/>
  <unicode hex="1FFD"/>
  <anchor x="90" y="536" name="_top"/>
  <anchor x="90" y="760" name="top"/>
  <outline>
    <contour>
      <point x="45" y="583" type="line"/>
      <point x="43" y="583" type="line"/>
      <point x="65" y="607"/>
      <point x="122" y="720"/>
      <point x="133" y="752" type="curve"/>
      <point x="133" y="760" type="line"/>
      <point x="84" y="760" type="line"/>
      <point x="80" y="707"/>
      <point x="71" y="643"/>
      <point x="45" y="598" type="curve"/>
    </contour>
  </outline>
</glyph>
<glyph name="emdash" format="2">
  <advance width="1000"/>
  <unicode hex="2014"/>
  <outline>
    <contour>
      <point x="-2" y="252" type="line"/>
      <point x="1002" y="252" type="line"/>
      <point x="1002" y="281" type="line"/>
      <point x="-2" y="281" type="line"/>
    </contour>
  </outline>
</glyph>
<glyph name="second" format="2">
  <advance width="217"/>
  <unicode hex="2033"/>
  <outline>
    <contour>
      <point x="110" y="479" type="line"/>
      <point x="135" y="479" type="line"/>
      <point x="197" y="714" type="line"/>
      <point x="158" y="714" type="line"/>
    </contour>
    <contour>
      <point x="20" y="479" type="line"/>
      <point x="45" y="479" type="line"/>
      <point x="107" y="714" type="line"/>
      <point x="68" y="714" type="line"/>
    </contour>
  </outline>
</glyph>
<glyph name="caretinsertionpoint" format="2">
  <advance width="268"/>
  <unicode hex="2041"/>
  <outline>
    <contour>
      <point x="155" y="376" type="line"/>
      <point x="254" y="714" type="line"/>
      <point x="216" y="714" type="line"/>
      <point x="2" y="0" type="line"/>
      <point x="42" y="0" type="line"/>
      <point x="135" y="311" type="line"/>
      <point x="227" y="0" type="line"/>
      <point x="264" y="0" type="line"/>
    </contour>
  </outline>
</glyph>
<glyph name="parenrightsuperior" format="2">
  <advance width="150"/>
  <unicode hex="207E"/>
  <outline>
    <contour>
      <point x="54" y="194" type="line"/>
      <point x="87" y="255"/>
      <point x="127" y="371"/>
      <point x="127" y="491" type="curve" smooth="yes"/>
      <point x="127" y="609"/>
      <point x="87" y="724"/>
      <point x="54" y="786" type="curve"/>
      <point x="54" y="772" type="line"/>
      <point x="64" y="702"/>
      <point x="99" y="588"/>
      <point x="99" y="491" type="curve" smooth="yes"/>
      <point x="99" y="394"/>
      <point x="64" y="273"/>
      <point x="54" y="209" type="curve"/>
    </contour>
  </outline>
</glyph>
<glyph name="uni20A0" format="2">
  <advance width="371"/>
  <unicode hex="20A0"/>
  <outline>
    <contour>
      <point x="115" y="0" type="line"/>
      <point x="339" y="0" type="line"/>
      <point x="341" y="120" type="line"/>
      <point x="321" y="120" type="line"/>
      <point x="318" y="80" type="line" smooth="yes"/>
      <point x="317" y="45"/>
      <point x="307" y="25"/>
      <point x="261" y="25" type="curve" smooth="yes"/>
      <point x="181" y="25" type="line"/>
      <point x="183" y="244" type="line"/>
      <point x="297" y="244" type="line"/>
      <point x="297" y="267" type="line"/>
      <point x="183" y="267" type="line"/>
      <point x="183" y="463" type="line"/>
      <point x="248" y="463" type="line" smooth="yes"/>
      <point x="295" y="463"/>
      <point x="303" y="444"/>
      <point x="306" y="387" type="curve" smooth="yes"/>
      <point x="307" y="366" type="line"/>
      <point x="327" y="366" type="line"/>
      <point x="323" y="488" type="line"/>
      <point x="115" y="488" type="line"/>
      <point x="115" y="468" type="line"/>
      <point x="104" y="468" type="line" smooth="yes"/>
      <point x="139" y="468"/>
      <point x="155" y="460"/>
      <point x="155" y="390" type="curve" smooth="yes"/>
      <point x="155" y="271" type="line"/>
      <point x="150" y="271" type="line" smooth="yes"/>
      <point x="85" y="271"/>
      <point x="57" y="357"/>
      <point x="57" y="476" type="curve" smooth="yes"/>
      <point x="57" y="579"/>
      <point x="75" y="697"/>
      <point x="153" y="697" type="curve" smooth="yes"/>
      <point x="193" y="697"/>
      <point x="207" y="665"/>
      <point x="207" y="599" type="curve"/>
      <point x="220" y="599"/>
      <point x="230" y="618"/>
      <point x="230" y="637" type="curve" smooth="yes"/>
      <point x="230" y="678"/>
      <point x="209" y="722"/>
      <point x="155" y="722" type="curve" smooth="yes"/>
      <point x="51" y="722"/>
      <point x="29" y="598"/>
      <point x="29" y="476" type="curve" smooth="yes"/>
      <point x="29" y="347"/>
      <point x="54" y="246"/>
      <point x="145" y="246" type="curve" smooth="yes"/>
      <point x="155" y="246" type="line"/>
      <point x="155" y="89" type="line" smooth="yes"/>
      <point x="155" y="28"/>
      <point x="143" y="20"/>
      <point x="104" y="20" type="curve" smooth="yes"/>
      <point x="115" y="20" type="line"/>
    </contour>
  </outline>
</glyph>
<glyph name="uni20B3" format="2">
  <advance width="417"/>
  <unicode hex="20B3"/>
  <anchor x="198" y="714" name="top"/>
  <anchor x="198" y="0" name="bottom"/>
  <outline>
    <contour>
      <point x="3" y="411" type="line"/>
      <point x="410" y="411" type="line"/>
      <point x="410" y="436" type="line"/>
      <point x="3" y="436" type="line"/>
    </contour>
    <contour>
      <point x="3" y="277" type="line"/>
      <point x="410" y="277" type="line"/>
      <point x="410" y="302" type="line"/>
      <point x="3" y="302" type="line"/>
    </contour>
    <component base="Lambda"/>
  </outline>
</glyph>
<glyph name="uni20B4" format="2">
  <advance width="310"/>
  <unicode hex="20B4"/>
  <anchor x="148" y="0" name="bottom"/>
  <anchor x="154" y="714" name="top"/>
  <anchor x="6" y="714" name="topright"/>
  <outline>
    <contour>
      <point x="155" y="-10" type="curve" smooth="yes"/>
      <point x="237" y="-10"/>
      <point x="266" y="67"/>
      <point x="266" y="123" type="curve" smooth="yes"/>
      <point x="266" y="133"/>
      <point x="266" y="169"/>
      <point x="248" y="169" type="curve"/>
      <point x="242" y="103"/>
      <point x="224" y="15"/>
      <point x="153" y="15" type="curve" smooth="yes"/>
      <point x="90" y="15"/>
      <point x="49" y="56"/>
      <point x="49" y="160" type="curve" smooth="yes"/>
      <point x="49" y="274"/>
      <point x="78" y="298"/>
      <point x="150" y="350" type="curve" smooth="yes"/>
      <point x="194" y="385"/>
      <point x="258" y="440"/>
      <point x="258" y="569" type="curve" smooth="yes"/>
      <point x="258" y="655"/>
      <point x="219" y="724"/>
      <point x="141" y="724" type="curve" smooth="yes"/>
      <point x="67" y="724"/>
      <point x="37" y="657"/>
      <point x="37" y="614" type="curve" smooth="yes"/>
      <point x="37" y="581"/>
      <point x="49" y="572"/>
      <point x="58" y="572" type="curve"/>
      <point x="58" y="639"/>
      <point x="85" y="699"/>
      <point x="140" y="699" type="curve" smooth="yes"/>
      <point x="202" y="699"/>
      <point x="230" y="639"/>
      <point x="230" y="559" type="curve" smooth="yes"/>
      <point x="230" y="459"/>
      <point x="201" y="420"/>
      <point x="129" y="371" type="curve" smooth="yes"/>
      <point x="68" y="327"/>
      <point x="21" y="283"/>
      <point x="21" y="174" type="curve" smooth="yes"/>
      <point x="21" y="45"/>
      <point x="67" y="-10"/>
    </contour>
    <contour>
      <point x="15" y="285" type="line"/>
      <point x="302" y="285" type="line"/>
      <point x="302" y="310" type="line"/>
      <point x="15" y="310" type="line"/>
    </contour>
    <contour>
      <point x="15" y="434" type="line"/>
      <point x="302" y="434" type="line"/>
      <point x="302" y="459" type="line"/>
      <point x="15" y="459" type="line"/>
    </contour>
  </outline>
</glyph>
<glyph name="centrelinesymbol" format="2">
  <advance width="371"/>
  <unicode hex="2104"/>
  <outline>
    <contour>
      <point x="96" y="0" type="line"/>
      <point x="356" y="0" type="line"/>
      <point x="357" y="164" type="line"/>
      <point x="337" y="164" type="line"/>
      <point x="337" y="91" type="line" smooth="yes"/>
      <point x="337" y="41"/>
      <point x="332" y="25"/>
      <point x="282" y="25" type="curve" smooth="yes"/>
      <point x="181" y="25" type="line"/>
      <point x="181" y="125" type="line"/>
      <point x="231" y="124"/>
      <point x="256" y="151"/>
      <point x="266" y="173" type="curve"/>
      <point x="266" y="206" type="line"/>
      <point x="240" y="169"/>
      <point x="223" y="148"/>
      <point x="181" y="149" type="curve"/>
      <point x="181" y="571" type="line"/>
      <point x="238" y="572"/>
      <point x="256" y="536"/>
      <point x="256" y="434" type="curve"/>
      <point x="266" y="434"/>
      <point x="281" y="442"/>
      <point x="281" y="488" type="curve" smooth="yes"/>
      <point x="281" y="550"/>
      <point x="243" y="595"/>
      <point x="181" y="596" type="curve"/>
      <point x="181" y="607" type="line" smooth="yes"/>
      <point x="181" y="683"/>
      <point x="188" y="694"/>
      <point x="236" y="694" type="curve" smooth="yes"/>
      <point x="247" y="694" type="line"/>
      <point x="247" y="714" type="line"/>
      <point x="96" y="714" type="line"/>
      <point x="96" y="694" type="line"/>
      <point x="96" y="694" type="line" smooth="yes"/>
      <point x="148" y="694"/>
      <point x="153" y="683"/>
      <point x="153" y="607" type="curve" smooth="yes"/>
      <point x="153" y="594" type="line"/>
      <point x="80" y="580"/>
      <point x="35" y="500"/>
      <point x="35" y="361" type="curve" smooth="yes"/>
      <point x="35" y="216"/>
      <point x="72" y="140"/>
      <point x="153" y="126" type="curve"/>
      <point x="153" y="108" type="line" smooth="yes"/>
      <point x="153" y="31"/>
      <point x="148" y="20"/>
      <point x="94" y="20" type="curve" smooth="yes"/>
      <point x="96" y="20" type="line"/>
    </contour>
    <contour>
      <point x="153" y="151" type="line"/>
      <point x="84" y="165"/>
      <point x="63" y="223"/>
      <point x="63" y="362" type="curve" smooth="yes"/>
      <point x="63" y="495"/>
      <point x="96" y="555"/>
      <point x="153" y="569" type="curve"/>
    </contour>
  </outline>
</glyph>
<glyph name="afii61248" format="2">
  <advance width="429"/>
  <unicode hex="2105"/>
  <outline>
    <contour>
      <point x="81" y="0" type="line"/>
      <point x="113" y="0" type="line"/>
      <point x="349" y="714" type="line"/>
      <point x="316" y="714" type="line"/>
    </contour>
    <contour>
      <point x="311" y="-10" type="curve" smooth="yes"/>
      <point x="373" y="-10"/>
      <point x="405" y="37"/>
      <point x="405" y="161" type="curve" smooth="yes"/>
      <point x="405" y="284"/>
      <point x="365" y="329"/>
      <point x="310" y="329" type="curve" smooth="yes"/>
      <point x="247" y="329"/>
      <point x="220" y="284"/>
      <point x="220" y="161" type="curve" smooth="yes"/>
      <point x="220" y="37"/>
      <point x="253" y="-10"/>
    </contour>
    <contour>
      <point x="311" y="16" type="curve" smooth="yes"/>
      <point x="268" y="16"/>
      <point x="250" y="57"/>
      <point x="250" y="162" type="curve" smooth="yes"/>
      <point x="250" y="266"/>
      <point x="265" y="303"/>
      <point x="307" y="303" type="curve" smooth="yes"/>
      <point x="350" y="303"/>
      <point x="375" y="266"/>
      <point x="375" y="162" type="curve" smooth="yes"/>
      <point x="375" y="57"/>
      <point x="356" y="16"/>
    </contour>
    <contour>
      <point x="129" y="381" type="curve" smooth="yes"/>
      <point x="172" y="381"/>
      <point x="184" y="409"/>
      <point x="184" y="432" type="curve" smooth="yes"/>
      <point x="184" y="436"/>
      <point x="182" y="440"/>
      <point x="176" y="445" type="curve"/>
      <point x="165" y="421"/>
      <point x="141" y="406"/>
      <point x="132" y="407" type="curve" smooth="yes"/>
      <point x="76" y="407"/>
      <point x="54" y="454"/>
      <point x="54" y="551" type="curve" smooth="yes"/>
      <point x="54" y="661"/>
      <point x="101" y="703"/>
      <point x="128" y="703" type="curve" smooth="yes"/>
      <point x="173" y="703"/>
      <point x="172" y="673"/>
      <point x="172" y="602" type="curve"/>
      <point x="186" y="602"/>
      <point x="189" y="633"/>
      <point x="189" y="651" type="curve" smooth="yes"/>
      <point x="189" y="696"/>
      <point x="181" y="720"/>
      <point x="126" y="720" type="curve" smooth="yes"/>
      <point x="80" y="720"/>
      <point x="24" y="683"/>
      <point x="24" y="553" type="curve" smooth="yes"/>
      <point x="24" y="435"/>
      <point x="70" y="381"/>
    </contour>
  </outline>
</glyph>
<glyph name="planckconstant" format="2">
  <advance width="327"/>
  <unicode hex="210E"/>
  <outline>
    <contour>
      <point x="237" y="-10" type="curve" smooth="yes"/>
      <point x="260" y="-10"/>
      <point x="280" y="15"/>
      <point x="270" y="17" type="curve"/>
      <point x="265" y="45" type="line"/>
      <point x="256" y="18"/>
      <point x="252" y="14"/>
      <point x="242" y="14" type="curve" smooth="yes"/>
      <point x="236" y="14"/>
      <point x="232" y="25"/>
      <point x="232" y="61" type="curve" smooth="yes"/>
      <point x="232" y="96"/>
      <point x="243" y="173"/>
      <point x="257" y="240" type="curve" smooth="yes"/>
      <point x="273" y="306" type="line" smooth="yes"/>
      <point x="283" y="346"/>
      <point x="300" y="413"/>
      <point x="300" y="459" type="curve" smooth="yes"/>
      <point x="300" y="509"/>
      <point x="276" y="544"/>
      <point x="224" y="544" type="curve" smooth="yes"/>
      <point x="176" y="544"/>
      <point x="144" y="502"/>
      <point x="117" y="446" type="curve"/>
      <point x="115" y="446" type="line"/>
      <point x="123" y="489"/>
      <point x="136" y="536"/>
      <point x="165" y="671" type="curve" smooth="yes"/>
      <point x="184" y="760" type="line"/>
      <point x="120" y="760" type="line"/>
      <point x="115" y="740" type="line"/>
      <point x="99" y="740" type="line" smooth="yes"/>
      <point x="130" y="740"/>
      <point x="145" y="733"/>
      <point x="145" y="724" type="curve" smooth="yes"/>
      <point x="145" y="719"/>
      <point x="140" y="691"/>
      <point x="119" y="603" type="curve" smooth="yes"/>
      <point x="-5" y="0" type="line"/>
      <point x="23" y="0" type="line"/>
      <point x="88" y="301" type="line" smooth="yes"/>
      <point x="99" y="349"/>
      <point x="121" y="412"/>
      <point x="131" y="440" type="curve" smooth="yes"/>
      <point x="148" y="481"/>
      <point x="179" y="519"/>
      <point x="230" y="519" type="curve" smooth="yes"/>
      <point x="266" y="519"/>
      <point x="273" y="487"/>
      <point x="273" y="463" type="curve" smooth="yes"/>
      <point x="273" y="424"/>
      <point x="254" y="346"/>
      <point x="245" y="307" type="curve" smooth="yes"/>
      <point x="233" y="256" type="line" smooth="yes"/>
      <point x="217" y="187"/>
      <point x="204" y="103"/>
      <point x="204" y="64" type="curve" smooth="yes"/>
      <point x="204" y="28"/>
      <point x="207" y="-10"/>
    </contour>
  </outline>
</glyph>
<glyph name="uni214D" format="2">
  <advance width="451"/>
  <unicode hex="214D"/>
  <outline>
    <contour>
      <point x="120" y="0" type="line"/>
      <point x="143" y="0" type="line"/>
      <point x="356" y="714" type="line"/>
      <point x="332" y="714" type="line"/>
    </contour>
    <contour>
      <point x="-8" y="380" type="line"/>
      <point x="70" y="380" type="line"/>
      <point x="70" y="400" type="line"/>
      <point x="76" y="400" type="line" smooth="yes"/>
      <point x="46" y="400"/>
      <point x="44" y="409"/>
      <point x="44" y="421" type="curve" smooth="yes"/>
      <point x="44" y="437"/>
      <point x="53" y="461"/>
      <point x="58" y="475" type="curve" smooth="yes"/>
      <point x="58" y="481" type="line"/>
      <point x="145" y="481" type="line"/>
      <point x="144" y="476" type="line" smooth="yes"/>
      <point x="149" y="455"/>
      <point x="157" y="433"/>
      <point x="157" y="422" type="curve" smooth="yes"/>
      <point x="157" y="409"/>
      <point x="157" y="400"/>
      <point x="119" y="400" type="curve" smooth="yes"/>
      <point x="126" y="400" type="line"/>
      <point x="126" y="380" type="line"/>
      <point x="215" y="380" type="line"/>
      <point x="215" y="400" type="line"/>
      <point x="219" y="400" type="line" smooth="yes"/>
      <point x="202" y="400"/>
      <point x="197" y="401"/>
      <point x="191" y="423" type="curve" smooth="yes"/>
      <point x="111" y="714" type="line"/>
      <point x="96" y="714" type="line"/>
      <point x="30" y="467" type="line" smooth="yes"/>
      <point x="14" y="411"/>
      <point x="10" y="400"/>
      <point x="-9" y="400" type="curve" smooth="yes"/>
      <point x="-8" y="400" type="line"/>
    </contour>
    <contour>
      <point x="359" y="-11" type="curve" smooth="yes"/>
      <point x="398" y="-11"/>
      <point x="440" y="26"/>
      <point x="440" y="80" type="curve" smooth="yes"/>
      <point x="440" y="123"/>
      <point x="441" y="152"/>
      <point x="384" y="175" type="curve" smooth="yes"/>
      <point x="318" y="201"/>
      <point x="307" y="224"/>
      <point x="307" y="259" type="curve" smooth="yes"/>
      <point x="307" y="292"/>
      <point x="324" y="320"/>
      <point x="357" y="320" type="curve" smooth="yes"/>
      <point x="412" y="320"/>
      <point x="410" y="270"/>
      <point x="410" y="256" type="curve"/>
      <point x="413" y="256"/>
      <point x="426" y="266"/>
      <point x="426" y="289" type="curve" smooth="yes"/>
      <point x="426" y="311"/>
      <point x="407" y="345"/>
      <point x="359" y="345" type="curve" smooth="yes"/>
      <point x="306" y="345"/>
      <point x="279" y="303"/>
      <point x="279" y="257" type="curve" smooth="yes"/>
      <point x="279" y="209"/>
      <point x="305" y="177"/>
      <point x="361" y="154" type="curve" smooth="yes"/>
      <point x="413" y="133"/>
      <point x="412" y="120"/>
      <point x="412" y="82" type="curve" smooth="yes"/>
      <point x="412" y="53"/>
      <point x="396" y="15"/>
      <point x="359" y="14" type="curve" smooth="yes"/>
      <point x="306" y="13"/>
      <point x="295" y="57"/>
      <point x="290" y="85" type="curve"/>
      <point x="279" y="85"/>
      <point x="274" y="68"/>
      <point x="274" y="55" type="curve" smooth="yes"/>
      <point x="274" y="40"/>
      <point x="278" y="-11"/>
    </contour>
    <contour>
      <point x="65" y="507" type="line"/>
      <point x="68" y="533" type="line" smooth="yes"/>
      <point x="86" y="590"/>
      <point x="94" y="627"/>
      <point x="99" y="658" type="curve"/>
      <point x="105" y="634"/>
      <point x="115" y="601"/>
      <point x="134" y="529" type="curve" smooth="yes"/>
      <point x="138" y="507" type="line"/>
    </contour>
  </outline>
</glyph>
<glyph name="uni2C60" format="2">
  <advance width="338"/>
  <unicode hex="2C60"/>
  <anchor x="169" y="0" name="bottom"/>
  <anchor x="169" y="714" name="top"/>
  <anchor x="338" y="714" name="topright"/>
  <anchor x="179" y="357" name="center"/>
  <outline>
    <contour>
      <point x="8" y="406" type="line"/>
      <point x="209" y="406" type="line"/>
      <point x="209" y="431" type="line"/>
      <point x="8" y="431" type="line"/>
    </contour>
    <contour>
      <point x="8" y="294" type="line"/>
      <point x="209" y="294" type="line"/>
      <point x="209" y="319" type="line"/>
      <point x="8" y="319" type="line"/>
    </contour>
    <component base="L"/>
  </outline>
</glyph>
<glyph name="uni2C73" format="2">
  <advance width="588"/>
  <unicode hex="2C73"/>
  <anchor x="295" y="0" name="bottom"/>
  <anchor x="295" y="536" name="top"/>
  <outline>
    <contour>
      <point x="129" y="0" type="line"/>
      <point x="162" y="0" type="line"/>
      <point x="260" y="496" type="line"/>
      <point x="353" y="0" type="line"/>
      <point x="389" y="0" type="line"/>
      <point x="458" y="390" type="line" smooth="yes"/>
      <point x="480" y="501"/>
      <point x="487" y="517"/>
      <point x="512" y="517" type="curve" smooth="yes"/>
      <point x="525" y="517"/>
      <point x="540" y="497"/>
      <point x="534" y="448" type="curve"/>
      <point x="547" y="452"/>
      <point x="557" y="461"/>
      <point x="557" y="488" type="curve" smooth="yes"/>
      <point x="557" y="519"/>
      <point x="535" y="541"/>
      <point x="509" y="541" type="curve" smooth="yes"/>
      <point x="464" y="541"/>
      <point x="453" y="476"/>
      <point x="429" y="363" type="curve" smooth="yes"/>
      <point x="413" y="254" type="line" smooth="yes"/>
      <point x="390" y="144"/>
      <point x="375" y="72"/>
      <point x="372" y="23" type="curve"/>
      <point x="369" y="23" type="line"/>
      <point x="365" y="74"/>
      <point x="351" y="172"/>
      <point x="341" y="223" type="curve" smooth="yes"/>
      <point x="276" y="536" type="line"/>
      <point x="241" y="536" type="line"/>
      <point x="179" y="208" type="line" smooth="yes"/>
      <point x="170" y="159"/>
      <point x="148" y="65"/>
      <point x="148" y="27" type="curve"/>
      <point x="145" y="27" type="line"/>
      <point x="143" y="67"/>
      <point x="127" y="162"/>
      <point x="119" y="210" type="curve" smooth="yes"/>
      <point x="82" y="425" type="line" smooth="yes"/>
      <point x="78" y="447"/>
      <point x="70" y="491"/>
      <point x="70" y="496" type="curve" smooth="yes"/>
      <point x="70" y="506"/>
      <point x="71" y="516"/>
      <point x="98" y="516" type="curve" smooth="yes"/>
      <point x="124" y="516" type="line"/>
      <point x="124" y="536" type="line"/>
      <point x="4" y="536" type="line"/>
      <point x="4" y="516" type="line"/>
      <point x="-10" y="516" type="line" smooth="yes"/>
      <point x="29" y="516"/>
      <point x="38" y="514"/>
      <point x="47" y="463" type="curve" smooth="yes"/>
    </contour>
  </outline>
</glyph>
<glyph name="uni2C7E" format="2">
  <advance width="310"/>
  <unicode hex="2C7E"/>
  <anchor x="142" y="714" name="top"/>
  <anchor x="290" y="714" name="topright"/>
  <anchor x="148" y="0" name="bottom"/>
  <outline>
    <contour>
      <point x="224" y="-240" type="curve" smooth="yes"/>
      <point x="267" y="-240"/>
      <point x="283" y="-203"/>
      <point x="283" y="-166" type="curve" smooth="yes"/>
      <point x="283" y="-139"/>
      <point x="273" y="-129"/>
      <point x="262" y="-129" type="curve"/>
      <point x="262" y="-178"/>
      <point x="260" y="-215"/>
      <point x="229" y="-215" type="curve" smooth="yes"/>
      <point x="197" y="-215"/>
      <point x="188" y="-177"/>
      <point x="181" y="-106" type="curve" smooth="yes"/>
      <point x="180" y="-68"/>
      <point x="159" y="-20"/>
      <point x="140" y="-5" type="curve"/>
      <point x="96" y="2" type="line"/>
      <point x="126" y="-10"/>
      <point x="152" y="-46"/>
      <point x="154" y="-123" type="curve" smooth="yes"/>
      <point x="161" y="-203"/>
      <point x="182" y="-240"/>
    </contour>
    <component base="S"/>
  </outline>
</glyph>
<glyph name="uni2DF5" format="2">
  <unicode hex="2DF5"/>
  <anchor x="0" y="536" name="_top"/>
  <anchor x="0" y="834" name="top"/>
  <anchor x="142" y="834" name="topright"/>
  <outline>
    <contour>
      <point x="-60" y="616" type="curve" smooth="yes"/>
      <point x="-35" y="616"/>
      <point x="-19" y="636"/>
      <point x="-19" y="652" type="curve" smooth="yes"/>
      <point x="-19" y="659"/>
      <point x="-20" y="662"/>
      <point x="-24" y="663" type="curve"/>
      <point x="-27" y="647"/>
      <point x="-40" y="626"/>
      <point x="-60" y="626" type="curve" smooth="yes"/>
      <point x="-93" y="626"/>
      <point x="-105" y="649"/>
      <point x="-105" y="726" type="curve" smooth="yes"/>
      <point x="-105" y="804"/>
      <point x="-83" y="824"/>
      <point x="-49" y="824" type="curve" smooth="yes"/>
      <point x="46" y="824" type="line"/>
      <point x="46" y="658" type="line" smooth="yes"/>
      <point x="46" y="630"/>
      <point x="43" y="628"/>
      <point x="19" y="628" type="curve" smooth="yes"/>
      <point x="18" y="628" type="line"/>
      <point x="18" y="620" type="line"/>
      <point x="91" y="620" type="line"/>
      <point x="91" y="628" type="line"/>
      <point x="85" y="628" type="line" smooth="yes"/>
      <point x="61" y="628"/>
      <point x="59" y="630"/>
      <point x="59" y="658" type="curve" smooth="yes"/>
      <point x="59" y="824" type="line"/>
      <point x="79" y="824" type="line" smooth="yes"/>
      <point x="107" y="824"/>
      <point x="105" y="824"/>
      <point x="108" y="783" type="curve" smooth="yes"/>
      <point x="108" y="780" type="line"/>
      <point x="117" y="780" type="line"/>
      <point x="115" y="834" type="line"/>
      <point x="-50" y="834" type="line" smooth="yes"/>
      <point x="-92" y="834"/>
      <point x="-117" y="810"/>
      <point x="-117" y="725" type="curve" smooth="yes"/>
      <point x="-117" y="636"/>
      <point x="-94" y="616"/>
    </contour>
  </outline>
</glyph>
<glyph name="tildedotabove" format="2">
  <advance width="342"/>
  <unicode hex="2E1E"/>
  <outline>
    <contour>
      <point x="30" y="314" type="line"/>
      <point x="42" y="340"/>
      <point x="63" y="372"/>
      <point x="95" y="372" type="curve" smooth="yes"/>
      <point x="113" y="372"/>
      <point x="137" y="367"/>
      <point x="163" y="346" type="curve" smooth="yes"/>
      <point x="197" y="321"/>
      <point x="219" y="313"/>
      <point x="243" y="313" type="curve" smooth="yes"/>
      <point x="269" y="313"/>
      <point x="293" y="329"/>
      <point x="310" y="367" type="curve"/>
      <point x="310" y="399" type="line"/>
      <point x="298" y="373"/>
      <point x="277" y="341"/>
      <point x="242" y="341" type="curve" smooth="yes"/>
      <point x="227" y="341"/>
      <point x="203" y="345"/>
      <point x="176" y="367" type="curve" smooth="yes"/>
      <point x="139" y="394"/>
      <point x="119" y="400"/>
      <point x="98" y="400" type="curve" smooth="yes"/>
      <point x="70" y="400"/>
      <point x="46" y="386"/>
      <point x="30" y="348" type="curve"/>
    </contour>
    <contour>
      <point x="174" y="493" type="curve" smooth="yes"/>
      <point x="190" y="493"/>
      <point x="200" y="500"/>
      <point x="200" y="526" type="curve" smooth="yes"/>
      <point x="200" y="556"/>
      <point x="190" y="564"/>
      <point x="174" y="564" type="curve" smooth="yes"/>
      <point x="156" y="564"/>
      <point x="150" y="556"/>
      <point x="150" y="526" type="curve" smooth="yes"/>
      <point x="150" y="500"/>
      <point x="156" y="493"/>
    </contour>
  </outline>
</glyph>
<glyph name="threeemdash" format="2">
  <advance width="1692"/>
  <unicode hex="2E3B"/>
  <outline>
    <contour>
      <point x="23" y="260" type="line"/>
      <point x="1669" y="260" type="line"/>
      <point x="1669" y="290" type="line"/>
      <point x="23" y="290" type="line"/>
    </contour>
  </outline>
</glyph>
<glyph name="uniA641" format="2">
  <advance width="296"/>
  <unicode hex="A641"/>
  <outline>
    <contour>
      <point x="49" y="-220" type="curve"/>
      <point x="49" y="-155"/>
      <point x="77" y="-116"/>
      <point x="117" y="-116" type="curve" smooth="yes"/>
      <point x="168" y="-116"/>
      <point x="191" y="-167"/>
      <point x="232" y="-167" type="curve" smooth="yes"/>
      <point x="270" y="-167"/>
      <point x="291" y="-129"/>
      <point x="291" y="-78" type="curve" smooth="yes"/>
      <point x="291" y="-37"/>
      <point x="278" y="25"/>
      <point x="178" y="25" type="curve" smooth="yes"/>
      <point x="68" y="25" type="line"/>
      <point x="243" y="514" type="line"/>
      <point x="243" y="536" type="line"/>
      <point x="46" y="536" type="line"/>
      <point x="38" y="420" type="line"/>
      <point x="58" y="420" type="line"/>
      <point x="60" y="437" type="line" smooth="yes"/>
      <point x="64" y="490"/>
      <point x="67" y="511"/>
      <point x="113" y="511" type="curve" smooth="yes"/>
      <point x="213" y="511" type="line"/>
      <point x="37" y="22" type="line"/>
      <point x="37" y="0" type="line"/>
      <point x="183" y="0" type="line" smooth="yes"/>
      <point x="241" y="0"/>
      <point x="263" y="-32"/>
      <point x="263" y="-78" type="curve" smooth="yes"/>
      <point x="263" y="-117"/>
      <point x="247" y="-142"/>
      <point x="234" y="-142" type="curve" smooth="yes"/>
      <point x="204" y="-142"/>
      <point x="170" y="-91"/>
      <point x="119" y="-91" type="curve" smooth="yes"/>
      <point x="52" y="-91"/>
      <point x="33" y="-145"/>
      <point x="33" y="-179" type="curve" smooth="yes"/>
      <point x="33" y="-204"/>
      <point x="41" y="-220"/>
    </contour>
  </outline>
</glyph>
<glyph name="uniA643" format="2">
  <advance width="296"/>
  <unicode hex="A643"/>
  <outline>
    <contour>
      <point x="52" y="263" type="line"/>
      <point x="256" y="263" type="line"/>
      <point x="256" y="288" type="line"/>
      <point x="52" y="288" type="line"/>
    </contour>
    <component base="uniA641"/>
  </outline>
</glyph>
<glyph name="uniA648" format="2">
  <advance width="414"/>
  <unicode hex="A648"/>
  <outline>
    <contour>
      <point x="11" y="0" type="line"/>
      <point x="164" y="0" type="line"/>
      <point x="164" y="20" type="line"/>
      <point x="152" y="20" type="line" smooth="yes"/>
      <point x="102" y="20"/>
      <point x="96" y="31"/>
      <point x="96" y="106" type="curve" smooth="yes"/>
      <point x="96" y="267" type="line" smooth="yes"/>
      <point x="96" y="324"/>
      <point x="110" y="448"/>
      <point x="214" y="448" type="curve" smooth="yes"/>
      <point x="267" y="448"/>
      <point x="322" y="411"/>
      <point x="322" y="259" type="curve" smooth="yes"/>
      <point x="322" y="108" type="line" smooth="yes"/>
      <point x="322" y="29"/>
      <point x="314" y="20"/>
      <point x="267" y="20" type="curve" smooth="yes"/>
      <point x="255" y="20" type="line"/>
      <point x="255" y="0" type="line"/>
      <point x="408" y="0" type="line"/>
      <point x="408" y="20" type="line"/>
      <point x="405" y="20" type="line" smooth="yes"/>
      <point x="356" y="20"/>
      <point x="350" y="31"/>
      <point x="350" y="103" type="curve" smooth="yes"/>
      <point x="350" y="252" type="line" smooth="yes"/>
      <point x="350" y="421"/>
      <point x="290" y="467"/>
      <point x="228" y="473" type="curve"/>
      <point x="228" y="559" type="line"/>
      <point x="274" y="559" type="line"/>
      <point x="274" y="584" type="line"/>
      <point x="228" y="584" type="line"/>
      <point x="228" y="607" type="line" smooth="yes"/>
      <point x="228" y="683"/>
      <point x="235" y="694"/>
      <point x="282" y="694" type="curve" smooth="yes"/>
      <point x="291" y="694" type="line"/>
      <point x="291" y="714" type="line"/>
      <point x="140" y="714" type="line"/>
      <point x="140" y="694" type="line"/>
      <point x="144" y="694" type="line" smooth="yes"/>
      <point x="194" y="694"/>
      <point x="200" y="683"/>
      <point x="200" y="607" type="curve" smooth="yes"/>
      <point x="200" y="584" type="line"/>
      <point x="156" y="584" type="line"/>
      <point x="156" y="559" type="line"/>
      <point x="200" y="559" type="line"/>
      <point x="200" y="473" type="line"/>
      <point x="99" y="463"/>
      <point x="68" y="346"/>
      <point x="68" y="273" type="curve" smooth="yes"/>
      <point x="68" y="106" type="line" smooth="yes"/>
      <point x="68" y="31"/>
      <point x="62" y="20"/>
      <point x="12" y="20" type="curve" smooth="yes"/>
      <point x="11" y="20" type="line"/>
    </contour>
  </outline>
</glyph>
